<svg xmlns="http://www.w3.org/2000/svg" xmlns:xlink="http://www.w3.org/1999/xlink" width="500" zoomAndPan="magnify" viewBox="0 0 375 374.999991" height="500" preserveAspectRatio="xMidYMid meet" version="1.2"><defs><clipPath id="95d389adc2"><path d="M 17.367188 119.667969 L 45 119.667969 L 45 166.785156 L 17.367188 166.785156 Z M 17.367188 119.667969 "/></clipPath><clipPath id="2cf7245758"><path d="M 44 138 L 71 138 L 71 166.785156 L 44 166.785156 Z M 44 138 "/></clipPath><clipPath id="254a8971e3"><path d="M 6 166.851562 L 83.191406 166.851562 L 83.191406 213.96875 L 6 213.96875 Z M 6 166.851562 "/></clipPath></defs><g id="47dfbb871f"><g clip-rule="nonzero" clip-path="url(#95d389adc2)"><path style=" stroke:none;fill-rule:nonzero;fill:#36a03d;fill-opacity:1;" d="M 39.421875 166.128906 C 39.941406 144.210938 30.425781 137.074219 30.425781 137.074219 C 37.75 142.097656 41.265625 153.042969 42.019531 162.574219 C 54.84375 123.964844 17.378906 119.675781 17.363281 119.675781 C 19.628906 122.789062 19.183594 132.40625 19.65625 136.875 C 20.242188 142.429688 23.175781 147.59375 27.441406 151.042969 C 30.09375 153.183594 37.375 157.921875 39.421875 166.128906 "/></g><g clip-rule="nonzero" clip-path="url(#2cf7245758)"><path style=" stroke:none;fill-rule:nonzero;fill:#7ecb2a;fill-opacity:1;" d="M 45.121094 165.597656 C 59.6875 157.746094 62.171875 147.304688 62.171875 147.304688 C 61.46875 156.421875 55.429688 162.722656 49.460938 166.777344 C 80.519531 159.203125 67.265625 138.160156 67.265625 138.160156 C 65.578125 140.875 54.6875 145.117188 51.734375 147.105469 C 42.496094 153.328125 43.890625 161.824219 45.121094 165.597656 "/></g><g clip-rule="nonzero" clip-path="url(#254a8971e3)"><path style=" stroke:none;fill-rule:nonzero;fill:#ff000d;fill-opacity:1;" d="M 72.578125 176.808594 C 73.34375 176.40625 74.199219 176.203125 75.007812 176.203125 C 75.894531 176.203125 76.6875 176.4375 77.289062 176.859375 C 77.894531 177.285156 78.367188 177.882812 78.648438 178.863281 C 78.839844 179.535156 78.914062 180.152344 78.914062 180.734375 C 78.914062 182.78125 77.910156 184.636719 76.179688 186.367188 C 74.472656 188.078125 72.089844 189.515625 69.878906 190.523438 C 69.394531 190.742188 68.9375 190.976562 68.480469 191.210938 C 70.691406 186.054688 71.914062 180.917969 72.578125 176.808594 Z M 77.550781 203.414062 L 60.710938 203.414062 C 61.742188 202.304688 62.691406 201.144531 63.5625 199.945312 C 66.0625 197.632812 68.527344 195.847656 71.65625 194.417969 C 74.183594 193.257812 76.945312 191.621094 79.191406 189.410156 C 81.417969 187.199219 83.191406 184.265625 83.191406 180.734375 C 83.191406 179.753906 83.050781 178.742188 82.777344 177.726562 C 82.261719 175.84375 81.140625 174.320312 79.734375 173.339844 C 78.316406 172.367188 76.65625 171.925781 75.007812 171.925781 C 74.402344 171.925781 73.785156 171.984375 73.1875 172.109375 C 73.390625 169.769531 73.390625 168.347656 73.390625 168.347656 C 73.390625 167.59375 72.824219 166.988281 72.113281 166.988281 L 14.824219 166.988281 C 14.117188 166.988281 13.546875 167.59375 13.546875 168.347656 C 13.546875 168.347656 13.542969 189.820312 26.238281 203.414062 L 9.398438 203.414062 C 6.566406 203.414062 5.992188 204.949219 8.398438 206.441406 C 13.144531 209.375 25.34375 213.382812 37.910156 213.382812 L 49.039062 213.382812 C 61.601562 213.382812 73.800781 209.375 78.546875 206.441406 C 80.953125 204.949219 80.382812 203.414062 77.550781 203.414062 "/></g><g style="fill:#ffffff;fill-opacity:1;"><g transform="translate(87.809947, 210.469326)"><path style="stroke:none" d="M 14.53125 1.015625 C 12.582031 1.015625 10.738281 0.765625 9 0.265625 C 7.257812 -0.222656 5.664062 -0.96875 4.21875 -1.96875 C 3.9375 -2.195312 3.679688 -2.4375 3.453125 -2.6875 C 3.234375 -2.9375 3.054688 -3.21875 2.921875 -3.53125 C 2.554688 -4.664062 2.304688 -6.054688 2.171875 -7.703125 C 2.035156 -9.359375 1.988281 -10.957031 2.03125 -12.5 C 2.03125 -12.8125 2.15625 -13.035156 2.40625 -13.171875 C 2.65625 -13.304688 2.960938 -13.375 3.328125 -13.375 C 3.691406 -13.375 3.972656 -13.316406 4.171875 -13.203125 C 4.378906 -13.097656 4.53125 -12.882812 4.625 -12.5625 C 5.613281 -9.164062 7.054688 -6.515625 8.953125 -4.609375 C 10.859375 -2.710938 13.015625 -1.765625 15.421875 -1.765625 C 16.910156 -1.765625 18.175781 -2.101562 19.21875 -2.78125 C 20.257812 -3.457031 21.050781 -4.335938 21.59375 -5.421875 C 22.144531 -6.515625 22.421875 -7.695312 22.421875 -8.96875 C 22.421875 -10.550781 22.132812 -11.863281 21.5625 -12.90625 C 21 -13.945312 20.148438 -14.882812 19.015625 -15.71875 C 17.878906 -16.5625 16.453125 -17.457031 14.734375 -18.40625 C 12.878906 -19.488281 11.066406 -20.628906 9.296875 -21.828125 C 7.535156 -23.035156 6.085938 -24.460938 4.953125 -26.109375 C 3.828125 -27.765625 3.265625 -29.816406 3.265625 -32.265625 C 3.265625 -34.796875 3.90625 -37.023438 5.1875 -38.953125 C 6.476562 -40.878906 8.28125 -42.382812 10.59375 -43.46875 C 12.90625 -44.550781 15.578125 -45.09375 18.609375 -45.09375 C 20.285156 -45.09375 21.847656 -44.910156 23.296875 -44.546875 C 24.742188 -44.191406 25.898438 -43.832031 26.765625 -43.46875 C 27.265625 -43.289062 27.632812 -43.066406 27.875 -42.796875 C 28.125 -42.523438 28.316406 -42.09375 28.453125 -41.5 C 28.722656 -40.550781 28.960938 -39.421875 29.171875 -38.109375 C 29.378906 -36.796875 29.484375 -35.414062 29.484375 -33.96875 C 29.484375 -33.414062 29.070312 -33.140625 28.25 -33.140625 C 27.894531 -33.140625 27.535156 -33.226562 27.171875 -33.40625 C 26.804688 -33.59375 26.578125 -33.847656 26.484375 -34.171875 C 25.671875 -36.796875 24.550781 -38.785156 23.125 -40.140625 C 21.695312 -41.492188 19.941406 -42.171875 17.859375 -42.171875 C 16.460938 -42.171875 15.265625 -41.929688 14.265625 -41.453125 C 13.265625 -40.984375 12.46875 -40.257812 11.875 -39.28125 C 11.289062 -38.3125 11 -37.054688 11 -35.515625 C 11 -34.335938 11.394531 -33.25 12.1875 -32.25 C 12.976562 -31.257812 14.085938 -30.289062 15.515625 -29.34375 C 16.941406 -28.394531 18.539062 -27.351562 20.3125 -26.21875 C 22.476562 -24.945312 24.296875 -23.664062 25.765625 -22.375 C 27.242188 -21.082031 28.367188 -19.65625 29.140625 -18.09375 C 29.910156 -16.539062 30.296875 -14.695312 30.296875 -12.5625 C 30.296875 -9.570312 29.640625 -7.066406 28.328125 -5.046875 C 27.015625 -3.035156 25.179688 -1.519531 22.828125 -0.5 C 20.472656 0.507812 17.707031 1.015625 14.53125 1.015625 Z M 14.53125 1.015625 "/></g></g><g style="fill:#ffffff;fill-opacity:1;"><g transform="translate(116.945444, 210.469326)"><path style="stroke:none" d="M 14.40625 0.953125 C 11.90625 0.953125 9.703125 0.316406 7.796875 -0.953125 C 5.898438 -2.222656 4.410156 -3.976562 3.328125 -6.21875 C 2.242188 -8.457031 1.703125 -11.003906 1.703125 -13.859375 C 1.703125 -16.617188 2.34375 -19.140625 3.625 -21.421875 C 4.914062 -23.710938 6.648438 -25.535156 8.828125 -26.890625 C 11.003906 -28.253906 13.382812 -28.9375 15.96875 -28.9375 C 17.863281 -28.9375 19.554688 -28.539062 21.046875 -27.75 C 22.546875 -26.957031 23.738281 -25.867188 24.625 -24.484375 C 25.507812 -23.109375 25.953125 -21.554688 25.953125 -19.828125 C 25.953125 -18.203125 25.25 -17.390625 23.84375 -17.390625 L 10.046875 -17.390625 C 9.410156 -17.390625 8.945312 -17.21875 8.65625 -16.875 C 8.363281 -16.539062 8.21875 -15.921875 8.21875 -15.015625 C 8.21875 -13.109375 8.632812 -11.382812 9.46875 -9.84375 C 10.3125 -8.3125 11.429688 -7.09375 12.828125 -6.1875 C 14.234375 -5.28125 15.84375 -4.828125 17.65625 -4.828125 C 18.96875 -4.828125 20.175781 -5.085938 21.28125 -5.609375 C 22.394531 -6.128906 23.453125 -6.84375 24.453125 -7.75 C 24.628906 -7.882812 24.785156 -8.003906 24.921875 -8.109375 C 25.054688 -8.222656 25.191406 -8.28125 25.328125 -8.28125 C 25.785156 -8.28125 26.015625 -8.007812 26.015625 -7.46875 C 26.015625 -6.832031 25.742188 -6.0625 25.203125 -5.15625 C 24.660156 -4.113281 23.878906 -3.117188 22.859375 -2.171875 C 21.835938 -1.222656 20.601562 -0.46875 19.15625 0.09375 C 17.707031 0.664062 16.125 0.953125 14.40625 0.953125 Z M 10.046875 -20.03125 L 14.875 -20.03125 C 16.050781 -20.03125 16.929688 -20.050781 17.515625 -20.09375 C 18.109375 -20.144531 18.675781 -20.238281 19.21875 -20.375 C 19.445312 -20.414062 19.601562 -20.609375 19.6875 -20.953125 C 19.78125 -21.296875 19.828125 -21.691406 19.828125 -22.140625 C 19.828125 -23.359375 19.363281 -24.382812 18.4375 -25.21875 C 17.507812 -26.0625 16.367188 -26.484375 15.015625 -26.484375 C 14.054688 -26.484375 13.125 -26.203125 12.21875 -25.640625 C 11.320312 -25.078125 10.578125 -24.363281 9.984375 -23.5 C 9.390625 -22.632812 9.117188 -21.753906 9.171875 -20.859375 C 9.171875 -20.304688 9.460938 -20.03125 10.046875 -20.03125 Z M 10.046875 -20.03125 "/></g></g><g style="fill:#ffffff;fill-opacity:1;"><g transform="translate(140.919232, 210.469326)"><path style="stroke:none" d="M 2.984375 0.203125 C 2.617188 0.203125 2.300781 0.125 2.03125 -0.03125 C 1.757812 -0.1875 1.625 -0.398438 1.625 -0.671875 C 1.625 -1.035156 1.769531 -1.304688 2.0625 -1.484375 C 2.363281 -1.671875 2.738281 -1.832031 3.1875 -1.96875 C 4.144531 -2.238281 4.8125 -2.566406 5.1875 -2.953125 C 5.570312 -3.335938 5.765625 -3.867188 5.765625 -4.546875 L 5.765625 -19.828125 C 5.765625 -20.867188 5.617188 -21.738281 5.328125 -22.4375 C 5.035156 -23.144531 4.414062 -23.613281 3.46875 -23.84375 C 3.28125 -23.925781 3.097656 -24.046875 2.921875 -24.203125 C 2.742188 -24.367188 2.65625 -24.609375 2.65625 -24.921875 C 2.65625 -25.515625 2.898438 -25.878906 3.390625 -26.015625 C 4.753906 -26.378906 6.226562 -26.863281 7.8125 -27.46875 C 9.394531 -28.082031 10.726562 -28.6875 11.8125 -29.28125 C 12.039062 -29.414062 12.289062 -29.550781 12.5625 -29.6875 C 12.832031 -29.820312 13.035156 -29.890625 13.171875 -29.890625 C 13.535156 -29.890625 13.71875 -29.660156 13.71875 -29.203125 C 13.71875 -29.023438 13.707031 -28.617188 13.6875 -27.984375 C 13.664062 -27.347656 13.640625 -26.65625 13.609375 -25.90625 C 13.585938 -25.164062 13.554688 -24.5 13.515625 -23.90625 C 13.515625 -23.632812 13.582031 -23.5 13.71875 -23.5 C 14.445312 -24.445312 15.265625 -25.328125 16.171875 -26.140625 C 17.078125 -26.960938 18.035156 -27.644531 19.046875 -28.1875 C 20.066406 -28.726562 21.097656 -29 22.140625 -29 C 23.453125 -29 24.4375 -28.726562 25.09375 -28.1875 C 25.75 -27.644531 26.078125 -26.96875 26.078125 -26.15625 C 26.078125 -25.519531 25.90625 -24.835938 25.5625 -24.109375 C 25.226562 -23.390625 24.800781 -22.769531 24.28125 -22.25 C 23.757812 -21.726562 23.179688 -21.46875 22.546875 -21.46875 C 22.179688 -21.46875 21.796875 -21.546875 21.390625 -21.703125 C 20.984375 -21.859375 20.578125 -22.050781 20.171875 -22.28125 C 19.765625 -22.457031 19.34375 -22.632812 18.90625 -22.8125 C 18.476562 -23 18.085938 -23.09375 17.734375 -23.09375 C 16.597656 -23.09375 15.578125 -22.671875 14.671875 -21.828125 C 13.765625 -20.992188 13.3125 -19.351562 13.3125 -16.90625 L 13.3125 -4.953125 C 13.3125 -4.140625 13.601562 -3.515625 14.1875 -3.078125 C 14.78125 -2.648438 15.6875 -2.257812 16.90625 -1.90625 C 17.40625 -1.769531 17.78125 -1.617188 18.03125 -1.453125 C 18.28125 -1.296875 18.40625 -1.035156 18.40625 -0.671875 C 18.40625 -0.0859375 18 0.203125 17.1875 0.203125 C 15.820312 0.203125 14.539062 0.144531 13.34375 0.03125 C 12.144531 -0.0820312 10.957031 -0.140625 9.78125 -0.140625 C 9.007812 -0.140625 8.269531 -0.113281 7.5625 -0.0625 C 6.863281 -0.0195312 6.148438 0.03125 5.421875 0.09375 C 4.703125 0.164062 3.890625 0.203125 2.984375 0.203125 Z M 2.984375 0.203125 "/></g></g><g style="fill:#ffffff;fill-opacity:1;"><g transform="translate(163.534662, 210.469326)"><path style="stroke:none" d="M 14.40625 0.953125 C 11.90625 0.953125 9.703125 0.316406 7.796875 -0.953125 C 5.898438 -2.222656 4.410156 -3.976562 3.328125 -6.21875 C 2.242188 -8.457031 1.703125 -11.003906 1.703125 -13.859375 C 1.703125 -16.617188 2.34375 -19.140625 3.625 -21.421875 C 4.914062 -23.710938 6.648438 -25.535156 8.828125 -26.890625 C 11.003906 -28.253906 13.382812 -28.9375 15.96875 -28.9375 C 17.863281 -28.9375 19.554688 -28.539062 21.046875 -27.75 C 22.546875 -26.957031 23.738281 -25.867188 24.625 -24.484375 C 25.507812 -23.109375 25.953125 -21.554688 25.953125 -19.828125 C 25.953125 -18.203125 25.25 -17.390625 23.84375 -17.390625 L 10.046875 -17.390625 C 9.410156 -17.390625 8.945312 -17.21875 8.65625 -16.875 C 8.363281 -16.539062 8.21875 -15.921875 8.21875 -15.015625 C 8.21875 -13.109375 8.632812 -11.382812 9.46875 -9.84375 C 10.3125 -8.3125 11.429688 -7.09375 12.828125 -6.1875 C 14.234375 -5.28125 15.84375 -4.828125 17.65625 -4.828125 C 18.96875 -4.828125 20.175781 -5.085938 21.28125 -5.609375 C 22.394531 -6.128906 23.453125 -6.84375 24.453125 -7.75 C 24.628906 -7.882812 24.785156 -8.003906 24.921875 -8.109375 C 25.054688 -8.222656 25.191406 -8.28125 25.328125 -8.28125 C 25.785156 -8.28125 26.015625 -8.007812 26.015625 -7.46875 C 26.015625 -6.832031 25.742188 -6.0625 25.203125 -5.15625 C 24.660156 -4.113281 23.878906 -3.117188 22.859375 -2.171875 C 21.835938 -1.222656 20.601562 -0.46875 19.15625 0.09375 C 17.707031 0.664062 16.125 0.953125 14.40625 0.953125 Z M 10.046875 -20.03125 L 14.875 -20.03125 C 16.050781 -20.03125 16.929688 -20.050781 17.515625 -20.09375 C 18.109375 -20.144531 18.675781 -20.238281 19.21875 -20.375 C 19.445312 -20.414062 19.601562 -20.609375 19.6875 -20.953125 C 19.78125 -21.296875 19.828125 -21.691406 19.828125 -22.140625 C 19.828125 -23.359375 19.363281 -24.382812 18.4375 -25.21875 C 17.507812 -26.0625 16.367188 -26.484375 15.015625 -26.484375 C 14.054688 -26.484375 13.125 -26.203125 12.21875 -25.640625 C 11.320312 -25.078125 10.578125 -24.363281 9.984375 -23.5 C 9.390625 -22.632812 9.117188 -21.753906 9.171875 -20.859375 C 9.171875 -20.304688 9.460938 -20.03125 10.046875 -20.03125 Z M 10.046875 -20.03125 "/></g></g><g style="fill:#ffffff;fill-opacity:1;"><g transform="translate(187.50845, 210.469326)"><path style="stroke:none" d="M 2.859375 0.203125 C 2.492188 0.203125 2.175781 0.125 1.90625 -0.03125 C 1.632812 -0.1875 1.5 -0.398438 1.5 -0.671875 C 1.5 -1.035156 1.644531 -1.304688 1.9375 -1.484375 C 2.226562 -1.671875 2.601562 -1.832031 3.0625 -1.96875 C 3.738281 -2.144531 4.359375 -2.390625 4.921875 -2.703125 C 5.484375 -3.023438 5.765625 -3.640625 5.765625 -4.546875 L 5.765625 -19.765625 C 5.765625 -20.804688 5.617188 -21.695312 5.328125 -22.4375 C 5.035156 -23.1875 4.414062 -23.675781 3.46875 -23.90625 C 3.28125 -24 3.117188 -24.125 2.984375 -24.28125 C 2.847656 -24.4375 2.78125 -24.695312 2.78125 -25.0625 C 2.78125 -25.65625 2.984375 -25.992188 3.390625 -26.078125 C 4.972656 -26.441406 6.546875 -26.925781 8.109375 -27.53125 C 9.671875 -28.144531 11.039062 -28.796875 12.21875 -29.484375 C 12.40625 -29.566406 12.585938 -29.675781 12.765625 -29.8125 C 12.953125 -29.945312 13.132812 -30.015625 13.3125 -30.015625 C 13.539062 -30.015625 13.6875 -29.9375 13.75 -29.78125 C 13.820312 -29.625 13.859375 -29.457031 13.859375 -29.28125 C 13.859375 -28.957031 13.800781 -28.363281 13.6875 -27.5 C 13.570312 -26.644531 13.515625 -25.898438 13.515625 -25.265625 C 13.515625 -25.085938 13.523438 -24.894531 13.546875 -24.6875 C 13.566406 -24.488281 13.601562 -24.363281 13.65625 -24.3125 C 15.195312 -25.757812 16.789062 -26.890625 18.4375 -27.703125 C 20.09375 -28.523438 21.960938 -28.9375 24.046875 -28.9375 C 26.359375 -28.9375 28.289062 -28.050781 29.84375 -26.28125 C 31.40625 -24.519531 32.1875 -22.191406 32.1875 -19.296875 L 32.1875 -4.484375 C 32.1875 -3.578125 32.457031 -2.988281 33 -2.71875 C 33.550781 -2.445312 34.164062 -2.195312 34.84375 -1.96875 C 35.207031 -1.832031 35.546875 -1.660156 35.859375 -1.453125 C 36.179688 -1.253906 36.34375 -0.972656 36.34375 -0.609375 C 36.34375 -0.335938 36.191406 -0.132812 35.890625 0 C 35.597656 0.132812 35.316406 0.203125 35.046875 0.203125 C 34.140625 0.203125 33.347656 0.164062 32.671875 0.09375 C 31.992188 0.03125 31.328125 -0.0195312 30.671875 -0.0625 C 30.015625 -0.113281 29.273438 -0.140625 28.453125 -0.140625 C 27.679688 -0.140625 26.957031 -0.113281 26.28125 -0.0625 C 25.601562 -0.0195312 24.910156 0.03125 24.203125 0.09375 C 23.503906 0.164062 22.703125 0.203125 21.796875 0.203125 C 21.578125 0.203125 21.328125 0.132812 21.046875 0 C 20.773438 -0.132812 20.640625 -0.335938 20.640625 -0.609375 C 20.640625 -0.972656 20.773438 -1.253906 21.046875 -1.453125 C 21.328125 -1.660156 21.644531 -1.832031 22 -1.96875 C 22.6875 -2.195312 23.289062 -2.445312 23.8125 -2.71875 C 24.332031 -2.988281 24.59375 -3.578125 24.59375 -4.484375 L 24.59375 -18.265625 C 24.59375 -20.078125 24.148438 -21.503906 23.265625 -22.546875 C 22.378906 -23.585938 21.191406 -24.109375 19.703125 -24.109375 C 18.472656 -24.109375 17.40625 -23.925781 16.5 -23.5625 C 15.59375 -23.207031 14.710938 -22.6875 13.859375 -22 C 13.671875 -21.863281 13.53125 -21.671875 13.4375 -21.421875 C 13.351562 -21.179688 13.3125 -20.921875 13.3125 -20.640625 L 13.3125 -4.484375 C 13.3125 -3.578125 13.570312 -2.972656 14.09375 -2.671875 C 14.613281 -2.378906 15.210938 -2.144531 15.890625 -1.96875 C 16.835938 -1.65625 17.3125 -1.222656 17.3125 -0.671875 C 17.3125 -0.398438 17.195312 -0.1875 16.96875 -0.03125 C 16.75 0.125 16.457031 0.203125 16.09375 0.203125 C 15.1875 0.203125 14.394531 0.164062 13.71875 0.09375 C 13.039062 0.03125 12.382812 -0.0195312 11.75 -0.0625 C 11.113281 -0.113281 10.390625 -0.140625 9.578125 -0.140625 C 8.804688 -0.140625 8.082031 -0.113281 7.40625 -0.0625 C 6.726562 -0.0195312 6.023438 0.03125 5.296875 0.09375 C 4.578125 0.164062 3.765625 0.203125 2.859375 0.203125 Z M 2.859375 0.203125 "/></g></g><g style="fill:#ffffff;fill-opacity:1;"><g transform="translate(221.330256, 210.469326)"><path style="stroke:none" d="M 24.3125 1.296875 C 24.175781 1.296875 23.984375 1.171875 23.734375 0.921875 C 23.484375 0.671875 23.359375 0.476562 23.359375 0.34375 C 23.453125 -0.289062 23.53125 -0.957031 23.59375 -1.65625 C 23.664062 -2.363281 23.722656 -2.96875 23.765625 -3.46875 L 23.765625 -3.875 C 22.910156 -2.601562 21.703125 -1.476562 20.140625 -0.5 C 18.578125 0.46875 16.800781 0.953125 14.8125 0.953125 C 12.269531 0.953125 10.023438 0.304688 8.078125 -0.984375 C 6.128906 -2.273438 4.597656 -3.992188 3.484375 -6.140625 C 2.378906 -8.296875 1.828125 -10.617188 1.828125 -13.109375 C 1.828125 -16.054688 2.492188 -18.71875 3.828125 -21.09375 C 5.171875 -23.46875 7.039062 -25.34375 9.4375 -26.71875 C 11.84375 -28.101562 14.628906 -28.796875 17.796875 -28.796875 C 18.566406 -28.796875 19.347656 -28.738281 20.140625 -28.625 C 20.929688 -28.507812 21.617188 -28.363281 22.203125 -28.1875 C 22.753906 -28.050781 23.050781 -27.984375 23.09375 -27.984375 C 23.320312 -27.984375 23.4375 -28.367188 23.4375 -29.140625 L 23.4375 -37.703125 C 23.4375 -39.421875 23.207031 -40.617188 22.75 -41.296875 C 22.300781 -41.972656 21.578125 -42.40625 20.578125 -42.59375 C 20.078125 -42.726562 19.828125 -43.066406 19.828125 -43.609375 C 19.828125 -44.109375 20.054688 -44.425781 20.515625 -44.5625 C 22.273438 -44.96875 23.9375 -45.429688 25.5 -45.953125 C 27.0625 -46.472656 28.34375 -46.957031 29.34375 -47.40625 C 29.789062 -47.59375 30.113281 -47.71875 30.3125 -47.78125 C 30.519531 -47.851562 30.648438 -47.890625 30.703125 -47.890625 C 31.148438 -47.890625 31.375 -47.660156 31.375 -47.203125 C 31.375 -47.203125 31.351562 -46.929688 31.3125 -46.390625 C 31.269531 -45.847656 31.210938 -45.113281 31.140625 -44.1875 C 31.078125 -43.257812 31.019531 -42.207031 30.96875 -41.03125 L 30.765625 -7.953125 C 30.765625 -6.410156 30.878906 -5.296875 31.109375 -4.609375 C 31.335938 -3.929688 31.722656 -3.59375 32.265625 -3.59375 C 32.492188 -3.59375 32.785156 -3.601562 33.140625 -3.625 C 33.503906 -3.65625 34.140625 -3.710938 35.046875 -3.796875 C 35.722656 -3.847656 36.0625 -3.625 36.0625 -3.125 C 36.0625 -2.757812 35.9375 -2.40625 35.6875 -2.0625 C 35.4375 -1.726562 35.203125 -1.5625 34.984375 -1.5625 C 33.441406 -1.382812 31.878906 -1.085938 30.296875 -0.671875 C 28.710938 -0.265625 27.101562 0.253906 25.46875 0.890625 C 25.15625 1.023438 24.914062 1.125 24.75 1.1875 C 24.59375 1.257812 24.445312 1.296875 24.3125 1.296875 Z M 17.9375 -3.328125 C 18.789062 -3.328125 19.738281 -3.539062 20.78125 -3.96875 C 21.820312 -4.40625 22.707031 -5.003906 23.4375 -5.765625 L 23.4375 -19.90625 C 23.4375 -20.851562 23.117188 -21.789062 22.484375 -22.71875 C 21.847656 -23.644531 21.007812 -24.414062 19.96875 -25.03125 C 18.925781 -25.644531 17.816406 -25.953125 16.640625 -25.953125 C 15.554688 -25.953125 14.492188 -25.550781 13.453125 -24.75 C 12.410156 -23.957031 11.535156 -22.742188 10.828125 -21.109375 C 10.128906 -19.484375 9.78125 -17.40625 9.78125 -14.875 C 9.78125 -12.789062 10.039062 -11.007812 10.5625 -9.53125 C 11.082031 -8.0625 11.75 -6.875 12.5625 -5.96875 C 13.375 -5.070312 14.253906 -4.40625 15.203125 -3.96875 C 16.160156 -3.539062 17.070312 -3.328125 17.9375 -3.328125 Z M 17.9375 -3.328125 "/></g></g><g style="fill:#ffffff;fill-opacity:1;"><g transform="translate(254.065383, 210.469326)"><path style="stroke:none" d="M 2.71875 0.203125 C 2.351562 0.203125 2.054688 0.125 1.828125 -0.03125 C 1.609375 -0.1875 1.5 -0.398438 1.5 -0.671875 C 1.5 -1.035156 1.632812 -1.304688 1.90625 -1.484375 C 2.175781 -1.671875 2.492188 -1.8125 2.859375 -1.90625 C 3.941406 -2.175781 4.71875 -2.46875 5.1875 -2.78125 C 5.664062 -3.101562 5.90625 -3.648438 5.90625 -4.421875 L 5.90625 -19.15625 C 5.90625 -20.601562 5.675781 -21.6875 5.21875 -22.40625 C 4.769531 -23.132812 4.003906 -23.585938 2.921875 -23.765625 C 2.691406 -23.816406 2.507812 -23.941406 2.375 -24.140625 C 2.238281 -24.347656 2.171875 -24.585938 2.171875 -24.859375 C 2.171875 -25.492188 2.421875 -25.832031 2.921875 -25.875 C 5.097656 -26.332031 6.988281 -26.957031 8.59375 -27.75 C 10.195312 -28.539062 11.429688 -29.160156 12.296875 -29.609375 C 12.929688 -29.929688 13.335938 -30.09375 13.515625 -30.09375 C 14.015625 -30.09375 14.265625 -29.863281 14.265625 -29.40625 C 14.222656 -28.769531 14.128906 -27.894531 13.984375 -26.78125 C 13.847656 -25.675781 13.722656 -24.5 13.609375 -23.25 C 13.503906 -22.007812 13.453125 -20.847656 13.453125 -19.765625 L 13.453125 -4.484375 C 13.453125 -3.804688 13.695312 -3.285156 14.1875 -2.921875 C 14.6875 -2.554688 15.484375 -2.21875 16.578125 -1.90625 C 16.929688 -1.769531 17.242188 -1.617188 17.515625 -1.453125 C 17.796875 -1.296875 17.9375 -1.035156 17.9375 -0.671875 C 17.9375 -0.128906 17.550781 0.140625 16.78125 0.140625 C 15.914062 0.140625 15.085938 0.113281 14.296875 0.0625 C 13.503906 0.0195312 12.734375 -0.0195312 11.984375 -0.0625 C 11.242188 -0.113281 10.460938 -0.140625 9.640625 -0.140625 C 8.867188 -0.140625 8.117188 -0.113281 7.390625 -0.0625 C 6.671875 -0.0195312 5.9375 0.03125 5.1875 0.09375 C 4.445312 0.164062 3.625 0.203125 2.71875 0.203125 Z M 9.515625 -34.03125 C 8.203125 -34.03125 7.09375 -34.484375 6.1875 -35.390625 C 5.28125 -36.296875 4.828125 -37.378906 4.828125 -38.640625 C 4.828125 -40.046875 5.28125 -41.203125 6.1875 -42.109375 C 7.09375 -43.015625 8.203125 -43.46875 9.515625 -43.46875 C 10.867188 -43.46875 12 -43.015625 12.90625 -42.109375 C 13.8125 -41.203125 14.265625 -40.046875 14.265625 -38.640625 C 14.265625 -37.378906 13.8125 -36.296875 12.90625 -35.390625 C 12 -34.484375 10.867188 -34.03125 9.515625 -34.03125 Z M 9.515625 -34.03125 "/></g></g><g style="fill:#ffffff;fill-opacity:1;"><g transform="translate(269.277818, 210.469326)"><path style="stroke:none" d="M 2.515625 18.34375 C 2.242188 18.34375 1.945312 18.273438 1.625 18.140625 C 1.3125 18.003906 1.15625 17.773438 1.15625 17.453125 C 1.15625 17.085938 1.3125 16.816406 1.625 16.640625 C 1.945312 16.460938 2.3125 16.304688 2.71875 16.171875 C 3.570312 15.898438 4.238281 15.59375 4.71875 15.25 C 5.195312 14.90625 5.4375 14.347656 5.4375 13.578125 L 5.4375 -19.625 C 5.4375 -20.082031 5.320312 -20.613281 5.09375 -21.21875 C 4.863281 -21.832031 4.535156 -22.398438 4.109375 -22.921875 C 3.679688 -23.441406 3.125 -23.75 2.4375 -23.84375 C 2.21875 -23.925781 2.050781 -24.046875 1.9375 -24.203125 C 1.820312 -24.367188 1.765625 -24.632812 1.765625 -25 C 1.765625 -25.3125 1.820312 -25.546875 1.9375 -25.703125 C 2.050781 -25.867188 2.195312 -25.972656 2.375 -26.015625 C 4.007812 -26.378906 5.640625 -26.84375 7.265625 -27.40625 C 8.898438 -27.96875 10.328125 -28.523438 11.546875 -29.078125 C 11.679688 -29.117188 11.816406 -29.195312 11.953125 -29.3125 C 12.085938 -29.425781 12.222656 -29.484375 12.359375 -29.484375 C 12.585938 -29.484375 12.734375 -29.398438 12.796875 -29.234375 C 12.867188 -29.078125 12.90625 -28.882812 12.90625 -28.65625 C 12.90625 -28.300781 12.847656 -27.703125 12.734375 -26.859375 C 12.617188 -26.023438 12.5625 -25.3125 12.5625 -24.71875 C 12.5625 -24.269531 12.609375 -24.019531 12.703125 -23.96875 C 13.148438 -24.425781 13.953125 -25.023438 15.109375 -25.765625 C 16.265625 -26.515625 17.597656 -27.179688 19.109375 -27.765625 C 20.628906 -28.359375 22.09375 -28.65625 23.5 -28.65625 C 25.894531 -28.65625 27.941406 -28.007812 29.640625 -26.71875 C 31.335938 -25.4375 32.640625 -23.785156 33.546875 -21.765625 C 34.453125 -19.753906 34.90625 -17.660156 34.90625 -15.484375 C 34.90625 -13.398438 34.507812 -11.375 33.71875 -9.40625 C 32.925781 -7.4375 31.804688 -5.660156 30.359375 -4.078125 C 28.910156 -2.492188 27.242188 -1.222656 25.359375 -0.265625 C 23.484375 0.679688 21.460938 1.15625 19.296875 1.15625 C 18.742188 1.15625 18.09375 1.070312 17.34375 0.90625 C 16.601562 0.75 15.859375 0.546875 15.109375 0.296875 C 14.359375 0.0546875 13.710938 -0.222656 13.171875 -0.546875 C 13.128906 -0.546875 13.082031 -0.421875 13.03125 -0.171875 C 12.988281 0.078125 12.957031 0.359375 12.9375 0.671875 C 12.914062 0.992188 12.90625 1.242188 12.90625 1.421875 L 12.90625 13.171875 C 12.90625 13.765625 13.082031 14.253906 13.4375 14.640625 C 13.800781 15.023438 14.253906 15.328125 14.796875 15.546875 C 15.347656 15.773438 15.960938 15.984375 16.640625 16.171875 C 17.085938 16.304688 17.445312 16.460938 17.71875 16.640625 C 18 16.816406 18.140625 17.085938 18.140625 17.453125 C 18.140625 17.722656 18 17.9375 17.71875 18.09375 C 17.445312 18.257812 17.175781 18.34375 16.90625 18.34375 C 15.550781 18.34375 14.226562 18.285156 12.9375 18.171875 C 11.644531 18.054688 10.410156 18 9.234375 18 C 8.460938 18 7.738281 18.019531 7.0625 18.0625 C 6.382812 18.113281 5.679688 18.171875 4.953125 18.234375 C 4.234375 18.304688 3.421875 18.34375 2.515625 18.34375 Z M 19.5 -1.703125 C 20.039062 -1.703125 20.71875 -1.894531 21.53125 -2.28125 C 22.34375 -2.664062 23.144531 -3.285156 23.9375 -4.140625 C 24.726562 -5.003906 25.382812 -6.179688 25.90625 -7.671875 C 26.425781 -9.171875 26.6875 -11.003906 26.6875 -13.171875 C 26.6875 -15.660156 26.414062 -17.664062 25.875 -19.1875 C 25.332031 -20.707031 24.65625 -21.847656 23.84375 -22.609375 C 23.03125 -23.378906 22.203125 -23.890625 21.359375 -24.140625 C 20.523438 -24.390625 19.789062 -24.515625 19.15625 -24.515625 C 18.25 -24.515625 17.316406 -24.320312 16.359375 -23.9375 C 15.410156 -23.550781 14.617188 -23.097656 13.984375 -22.578125 C 13.359375 -22.054688 13.046875 -21.617188 13.046875 -21.265625 C 13.046875 -20.628906 13.046875 -19.800781 13.046875 -18.78125 C 13.046875 -17.757812 13.03125 -16.671875 13 -15.515625 C 12.976562 -14.359375 12.957031 -13.304688 12.9375 -12.359375 C 12.914062 -11.410156 12.90625 -10.734375 12.90625 -10.328125 C 12.90625 -9.015625 13.195312 -7.6875 13.78125 -6.34375 C 14.375 -5.007812 15.164062 -3.898438 16.15625 -3.015625 C 17.15625 -2.140625 18.269531 -1.703125 19.5 -1.703125 Z M 19.5 -1.703125 "/></g></g><g style="fill:#ffffff;fill-opacity:1;"><g transform="translate(302.216695, 210.469326)"><path style="stroke:none" d="M 2.71875 0.203125 C 2.351562 0.203125 2.054688 0.125 1.828125 -0.03125 C 1.609375 -0.1875 1.5 -0.398438 1.5 -0.671875 C 1.5 -1.035156 1.632812 -1.304688 1.90625 -1.484375 C 2.175781 -1.671875 2.492188 -1.8125 2.859375 -1.90625 C 3.941406 -2.175781 4.71875 -2.46875 5.1875 -2.78125 C 5.664062 -3.101562 5.90625 -3.648438 5.90625 -4.421875 L 5.90625 -19.15625 C 5.90625 -20.601562 5.675781 -21.6875 5.21875 -22.40625 C 4.769531 -23.132812 4.003906 -23.585938 2.921875 -23.765625 C 2.691406 -23.816406 2.507812 -23.941406 2.375 -24.140625 C 2.238281 -24.347656 2.171875 -24.585938 2.171875 -24.859375 C 2.171875 -25.492188 2.421875 -25.832031 2.921875 -25.875 C 5.097656 -26.332031 6.988281 -26.957031 8.59375 -27.75 C 10.195312 -28.539062 11.429688 -29.160156 12.296875 -29.609375 C 12.929688 -29.929688 13.335938 -30.09375 13.515625 -30.09375 C 14.015625 -30.09375 14.265625 -29.863281 14.265625 -29.40625 C 14.222656 -28.769531 14.128906 -27.894531 13.984375 -26.78125 C 13.847656 -25.675781 13.722656 -24.5 13.609375 -23.25 C 13.503906 -22.007812 13.453125 -20.847656 13.453125 -19.765625 L 13.453125 -4.484375 C 13.453125 -3.804688 13.695312 -3.285156 14.1875 -2.921875 C 14.6875 -2.554688 15.484375 -2.21875 16.578125 -1.90625 C 16.929688 -1.769531 17.242188 -1.617188 17.515625 -1.453125 C 17.796875 -1.296875 17.9375 -1.035156 17.9375 -0.671875 C 17.9375 -0.128906 17.550781 0.140625 16.78125 0.140625 C 15.914062 0.140625 15.085938 0.113281 14.296875 0.0625 C 13.503906 0.0195312 12.734375 -0.0195312 11.984375 -0.0625 C 11.242188 -0.113281 10.460938 -0.140625 9.640625 -0.140625 C 8.867188 -0.140625 8.117188 -0.113281 7.390625 -0.0625 C 6.671875 -0.0195312 5.9375 0.03125 5.1875 0.09375 C 4.445312 0.164062 3.625 0.203125 2.71875 0.203125 Z M 9.515625 -34.03125 C 8.203125 -34.03125 7.09375 -34.484375 6.1875 -35.390625 C 5.28125 -36.296875 4.828125 -37.378906 4.828125 -38.640625 C 4.828125 -40.046875 5.28125 -41.203125 6.1875 -42.109375 C 7.09375 -43.015625 8.203125 -43.46875 9.515625 -43.46875 C 10.867188 -43.46875 12 -43.015625 12.90625 -42.109375 C 13.8125 -41.203125 14.265625 -40.046875 14.265625 -38.640625 C 14.265625 -37.378906 13.8125 -36.296875 12.90625 -35.390625 C 12 -34.484375 10.867188 -34.03125 9.515625 -34.03125 Z M 9.515625 -34.03125 "/></g></g><g style="fill:#ffffff;fill-opacity:1;"><g transform="translate(317.429129, 210.469326)"><path style="stroke:none" d="M 14.203125 0.953125 C 11.484375 0.953125 9.421875 0.226562 8.015625 -1.21875 C 6.609375 -2.664062 5.90625 -4.773438 5.90625 -7.546875 L 5.90625 -23.234375 C 5.90625 -23.585938 5.757812 -23.851562 5.46875 -24.03125 C 5.175781 -24.21875 4.597656 -24.335938 3.734375 -24.390625 L 2.984375 -24.390625 C 2.710938 -24.390625 2.484375 -24.601562 2.296875 -25.03125 C 2.117188 -25.457031 2.03125 -25.875 2.03125 -26.28125 C 2.03125 -26.375 2.0625 -26.5 2.125 -26.65625 C 2.195312 -26.8125 2.300781 -26.914062 2.4375 -26.96875 C 3.476562 -27.414062 4.539062 -28.035156 5.625 -28.828125 C 6.71875 -29.617188 7.738281 -30.429688 8.6875 -31.265625 C 9.644531 -32.109375 10.441406 -32.828125 11.078125 -33.421875 C 11.390625 -33.640625 11.644531 -33.835938 11.84375 -34.015625 C 12.050781 -34.203125 12.289062 -34.296875 12.5625 -34.296875 C 12.925781 -34.296875 13.207031 -34.21875 13.40625 -34.0625 C 13.613281 -33.90625 13.671875 -33.597656 13.578125 -33.140625 L 13.171875 -29.40625 C 13.128906 -28.863281 13.253906 -28.5 13.546875 -28.3125 C 13.835938 -28.132812 14.257812 -28.046875 14.8125 -28.046875 L 22.828125 -28.046875 C 22.960938 -28.046875 23.097656 -27.882812 23.234375 -27.5625 C 23.367188 -27.25 23.4375 -26.9375 23.4375 -26.625 C 23.4375 -26.039062 23.351562 -25.5 23.1875 -25 C 23.03125 -24.5 22.84375 -24.25 22.625 -24.25 L 16.171875 -24.25 C 15.128906 -24.25 14.414062 -24.132812 14.03125 -23.90625 C 13.644531 -23.675781 13.453125 -23.203125 13.453125 -22.484375 L 13.453125 -9.4375 C 13.453125 -7.445312 13.835938 -5.941406 14.609375 -4.921875 C 15.378906 -3.898438 16.460938 -3.390625 17.859375 -3.390625 C 19.128906 -3.390625 20.09375 -3.503906 20.75 -3.734375 C 21.40625 -3.960938 22.003906 -4.234375 22.546875 -4.546875 C 22.679688 -4.640625 22.796875 -4.6875 22.890625 -4.6875 C 23.117188 -4.6875 23.285156 -4.550781 23.390625 -4.28125 C 23.503906 -4.007812 23.5625 -3.710938 23.5625 -3.390625 C 23.5625 -3.171875 23.117188 -2.695312 22.234375 -1.96875 C 21.359375 -1.25 20.207031 -0.582031 18.78125 0.03125 C 17.351562 0.644531 15.828125 0.953125 14.203125 0.953125 Z M 14.203125 0.953125 "/></g></g><g style="fill:#ffffff;fill-opacity:1;"><g transform="translate(337.803287, 210.469326)"><path style="stroke:none" d="M 5.296875 19.296875 C 4.210938 19.296875 3.191406 18.941406 2.234375 18.234375 C 1.285156 17.535156 0.8125 16.617188 0.8125 15.484375 C 0.8125 14.628906 1.023438 13.816406 1.453125 13.046875 C 1.890625 12.273438 2.535156 11.890625 3.390625 11.890625 C 4.023438 11.890625 4.671875 12 5.328125 12.21875 C 5.984375 12.445312 6.609375 12.539062 7.203125 12.5 C 7.742188 12.457031 8.140625 12.332031 8.390625 12.125 C 8.640625 11.914062 8.921875 11.539062 9.234375 11 C 9.597656 10.363281 9.992188 9.671875 10.421875 8.921875 C 10.859375 8.179688 11.3125 7.289062 11.78125 6.25 C 12.257812 5.207031 12.789062 3.960938 13.375 2.515625 C 13.78125 1.566406 13.984375 0.660156 13.984375 -0.203125 C 13.984375 -0.742188 13.914062 -1.265625 13.78125 -1.765625 C 13.644531 -2.265625 13.488281 -2.71875 13.3125 -3.125 L 5.09375 -22.484375 C 4.726562 -23.390625 4.285156 -24.179688 3.765625 -24.859375 C 3.242188 -25.535156 2.597656 -25.988281 1.828125 -26.21875 C 1.421875 -26.394531 1.09375 -26.570312 0.84375 -26.75 C 0.59375 -26.9375 0.46875 -27.210938 0.46875 -27.578125 C 0.46875 -27.941406 0.648438 -28.15625 1.015625 -28.21875 C 1.378906 -28.289062 1.695312 -28.328125 1.96875 -28.328125 C 3.007812 -28.328125 3.847656 -28.300781 4.484375 -28.25 C 5.117188 -28.207031 5.707031 -28.160156 6.25 -28.109375 C 6.789062 -28.066406 7.378906 -28.046875 8.015625 -28.046875 C 8.960938 -28.046875 9.726562 -28.066406 10.3125 -28.109375 C 10.90625 -28.160156 11.53125 -28.207031 12.1875 -28.25 C 12.84375 -28.300781 13.671875 -28.328125 14.671875 -28.328125 C 14.984375 -28.328125 15.320312 -28.269531 15.6875 -28.15625 C 16.050781 -28.039062 16.234375 -27.800781 16.234375 -27.4375 C 16.234375 -27.070312 16.03125 -26.785156 15.625 -26.578125 C 15.21875 -26.378906 14.832031 -26.210938 14.46875 -26.078125 C 14.007812 -25.941406 13.644531 -25.679688 13.375 -25.296875 C 13.101562 -24.910156 12.96875 -24.359375 12.96875 -23.640625 C 12.96875 -23.316406 13.035156 -22.914062 13.171875 -22.4375 C 13.304688 -21.96875 13.46875 -21.460938 13.65625 -20.921875 L 18.34375 -9.578125 C 18.382812 -9.398438 18.472656 -9.3125 18.609375 -9.3125 C 18.648438 -9.3125 18.71875 -9.398438 18.8125 -9.578125 L 22.6875 -20.640625 C 22.820312 -20.960938 22.945312 -21.382812 23.0625 -21.90625 C 23.175781 -22.425781 23.234375 -22.867188 23.234375 -23.234375 C 23.234375 -24.046875 23.039062 -24.664062 22.65625 -25.09375 C 22.269531 -25.53125 21.847656 -25.835938 21.390625 -26.015625 C 21.035156 -26.191406 20.648438 -26.378906 20.234375 -26.578125 C 19.828125 -26.785156 19.625 -27.070312 19.625 -27.4375 C 19.625 -27.800781 19.816406 -28.039062 20.203125 -28.15625 C 20.585938 -28.269531 20.914062 -28.328125 21.1875 -28.328125 C 22.1875 -28.328125 23.023438 -28.28125 23.703125 -28.1875 C 24.378906 -28.09375 25.171875 -28.046875 26.078125 -28.046875 C 26.671875 -28.046875 27.160156 -28.066406 27.546875 -28.109375 C 27.929688 -28.160156 28.347656 -28.207031 28.796875 -28.25 C 29.253906 -28.300781 29.820312 -28.328125 30.5 -28.328125 C 30.769531 -28.328125 31.097656 -28.289062 31.484375 -28.21875 C 31.867188 -28.15625 32.0625 -27.941406 32.0625 -27.578125 C 32.0625 -27.210938 31.9375 -26.9375 31.6875 -26.75 C 31.4375 -26.570312 31.109375 -26.394531 30.703125 -26.21875 C 29.929688 -25.988281 29.179688 -25.476562 28.453125 -24.6875 C 27.734375 -23.894531 27.144531 -22.976562 26.6875 -21.9375 L 16.90625 1.703125 C 16.632812 2.335938 16.269531 3.1875 15.8125 4.25 C 15.363281 5.3125 14.878906 6.472656 14.359375 7.734375 C 13.835938 9.003906 13.28125 10.316406 12.6875 11.671875 C 12.101562 13.035156 11.539062 14.375 11 15.6875 C 10.5 16.863281 9.738281 17.757812 8.71875 18.375 C 7.707031 18.988281 6.566406 19.296875 5.296875 19.296875 Z M 5.296875 19.296875 "/></g></g></g></svg>