<svg xmlns="http://www.w3.org/2000/svg" xmlns:xlink="http://www.w3.org/1999/xlink" width="500" zoomAndPan="magnify" viewBox="0 0 375 374.999991" height="500" preserveAspectRatio="xMidYMid meet" version="1.2"><defs><clipPath id="1c10e15639"><path d="M 0 3.519531 L 371.480469 3.519531 L 371.480469 375 L 0 375 Z M 0 3.519531 "/></clipPath><clipPath id="3e5e3cab84"><path d="M 185.738281 3.519531 C 83.160156 3.519531 0 86.679688 0 189.261719 C 0 291.839844 83.160156 375 185.738281 375 C 288.320312 375 371.480469 291.839844 371.480469 189.261719 C 371.480469 86.679688 288.320312 3.519531 185.738281 3.519531 Z M 185.738281 3.519531 "/></clipPath><clipPath id="1ade32c3b3"><path d="M 126.714844 95.324219 L 244.464844 95.324219 L 244.464844 173 L 126.714844 173 Z M 126.714844 95.324219 "/></clipPath></defs><g id="2e133c16a2"><g clip-rule="nonzero" clip-path="url(#1c10e15639)"><g clip-rule="nonzero" clip-path="url(#3e5e3cab84)"><path style=" stroke:none;fill-rule:nonzero;fill:#000000;fill-opacity:1;" d="M 0 3.519531 L 371.480469 3.519531 L 371.480469 375 L 0 375 Z M 0 3.519531 "/></g></g><g style="fill:#ffffff;fill-opacity:1;"><g transform="translate(25.42171, 240.381016)"><path style="stroke:none" d="M 17.03125 1.1875 C 14.75 1.1875 12.585938 0.894531 10.546875 0.3125 C 8.503906 -0.269531 6.632812 -1.144531 4.9375 -2.3125 C 4.613281 -2.570312 4.316406 -2.847656 4.046875 -3.140625 C 3.785156 -3.429688 3.578125 -3.765625 3.421875 -4.140625 C 2.992188 -5.460938 2.703125 -7.09375 2.546875 -9.03125 C 2.390625 -10.96875 2.335938 -12.835938 2.390625 -14.640625 C 2.390625 -15.015625 2.535156 -15.28125 2.828125 -15.4375 C 3.117188 -15.601562 3.476562 -15.6875 3.90625 -15.6875 C 4.320312 -15.6875 4.648438 -15.617188 4.890625 -15.484375 C 5.128906 -15.347656 5.300781 -15.09375 5.40625 -14.71875 C 6.570312 -10.738281 8.269531 -7.632812 10.5 -5.40625 C 12.726562 -3.175781 15.25 -2.0625 18.0625 -2.0625 C 19.8125 -2.0625 21.296875 -2.457031 22.515625 -3.25 C 23.742188 -4.050781 24.675781 -5.085938 25.3125 -6.359375 C 25.945312 -7.640625 26.265625 -9.019531 26.265625 -10.5 C 26.265625 -12.363281 25.929688 -13.90625 25.265625 -15.125 C 24.609375 -16.34375 23.613281 -17.441406 22.28125 -18.421875 C 20.957031 -19.398438 19.285156 -20.445312 17.265625 -21.5625 C 15.097656 -22.84375 12.976562 -24.1875 10.90625 -25.59375 C 8.832031 -27 7.132812 -28.671875 5.8125 -30.609375 C 4.488281 -32.546875 3.828125 -34.945312 3.828125 -37.8125 C 3.828125 -40.78125 4.582031 -43.390625 6.09375 -45.640625 C 7.601562 -47.898438 9.707031 -49.664062 12.40625 -50.9375 C 15.113281 -52.207031 18.25 -52.84375 21.8125 -52.84375 C 23.769531 -52.84375 25.597656 -52.628906 27.296875 -52.203125 C 28.992188 -51.785156 30.347656 -51.363281 31.359375 -50.9375 C 31.941406 -50.726562 32.378906 -50.460938 32.671875 -50.140625 C 32.960938 -49.828125 33.1875 -49.320312 33.34375 -48.625 C 33.664062 -47.507812 33.945312 -46.179688 34.1875 -44.640625 C 34.425781 -43.109375 34.546875 -41.492188 34.546875 -39.796875 C 34.546875 -39.160156 34.066406 -38.84375 33.109375 -38.84375 C 32.679688 -38.84375 32.253906 -38.945312 31.828125 -39.15625 C 31.410156 -39.375 31.148438 -39.664062 31.046875 -40.03125 C 30.085938 -43.113281 28.769531 -45.445312 27.09375 -47.03125 C 25.425781 -48.625 23.375 -49.421875 20.9375 -49.421875 C 19.289062 -49.421875 17.882812 -49.140625 16.71875 -48.578125 C 15.550781 -48.023438 14.617188 -47.175781 13.921875 -46.03125 C 13.234375 -44.894531 12.890625 -43.425781 12.890625 -41.625 C 12.890625 -40.25 13.351562 -38.976562 14.28125 -37.8125 C 15.21875 -36.644531 16.519531 -35.503906 18.1875 -34.390625 C 19.851562 -33.273438 21.722656 -32.050781 23.796875 -30.71875 C 26.347656 -29.238281 28.484375 -27.738281 30.203125 -26.21875 C 31.929688 -24.707031 33.242188 -23.035156 34.140625 -21.203125 C 35.046875 -19.378906 35.5 -17.21875 35.5 -14.71875 C 35.5 -11.21875 34.726562 -8.285156 33.1875 -5.921875 C 31.644531 -3.566406 29.492188 -1.789062 26.734375 -0.59375 C 23.984375 0.59375 20.75 1.1875 17.03125 1.1875 Z M 17.03125 1.1875 "/></g></g><g style="fill:#ffffff;fill-opacity:1;"><g transform="translate(59.565628, 240.381016)"><path style="stroke:none" d="M 16.875 1.109375 C 13.957031 1.109375 11.382812 0.367188 9.15625 -1.109375 C 6.925781 -2.597656 5.171875 -4.65625 3.890625 -7.28125 C 2.617188 -9.90625 1.984375 -12.890625 1.984375 -16.234375 C 1.984375 -19.472656 2.738281 -22.429688 4.25 -25.109375 C 5.769531 -27.785156 7.800781 -29.921875 10.34375 -31.515625 C 12.894531 -33.109375 15.679688 -33.90625 18.703125 -33.90625 C 20.929688 -33.90625 22.921875 -33.441406 24.671875 -32.515625 C 26.421875 -31.585938 27.8125 -30.3125 28.84375 -28.6875 C 29.882812 -27.070312 30.40625 -25.253906 30.40625 -23.234375 C 30.40625 -21.328125 29.582031 -20.375 27.9375 -20.375 L 11.78125 -20.375 C 11.039062 -20.375 10.492188 -20.175781 10.140625 -19.78125 C 9.796875 -19.382812 9.625 -18.65625 9.625 -17.59375 C 9.625 -15.363281 10.113281 -13.34375 11.09375 -11.53125 C 12.082031 -9.726562 13.398438 -8.296875 15.046875 -7.234375 C 16.691406 -6.179688 18.570312 -5.65625 20.6875 -5.65625 C 22.226562 -5.65625 23.648438 -5.957031 24.953125 -6.5625 C 26.253906 -7.175781 27.488281 -8.015625 28.65625 -9.078125 C 28.863281 -9.234375 29.046875 -9.375 29.203125 -9.5 C 29.367188 -9.632812 29.53125 -9.703125 29.6875 -9.703125 C 30.21875 -9.703125 30.484375 -9.382812 30.484375 -8.75 C 30.484375 -8.007812 30.164062 -7.109375 29.53125 -6.046875 C 28.894531 -4.828125 27.976562 -3.660156 26.78125 -2.546875 C 25.59375 -1.429688 24.144531 -0.546875 22.4375 0.109375 C 20.738281 0.773438 18.882812 1.109375 16.875 1.109375 Z M 11.78125 -23.484375 L 17.4375 -23.484375 C 18.8125 -23.484375 19.84375 -23.507812 20.53125 -23.5625 C 21.21875 -23.613281 21.882812 -23.71875 22.53125 -23.875 C 22.789062 -23.925781 22.972656 -24.148438 23.078125 -24.546875 C 23.179688 -24.953125 23.234375 -25.421875 23.234375 -25.953125 C 23.234375 -27.378906 22.691406 -28.582031 21.609375 -29.5625 C 20.523438 -30.550781 19.1875 -31.046875 17.59375 -31.046875 C 16.476562 -31.046875 15.390625 -30.710938 14.328125 -30.046875 C 13.265625 -29.378906 12.390625 -28.539062 11.703125 -27.53125 C 11.015625 -26.53125 10.695312 -25.5 10.75 -24.4375 C 10.75 -23.800781 11.09375 -23.484375 11.78125 -23.484375 Z M 11.78125 -23.484375 "/></g></g><g style="fill:#ffffff;fill-opacity:1;"><g transform="translate(87.66061, 240.381016)"><path style="stroke:none" d="M 3.5 0.234375 C 3.070312 0.234375 2.695312 0.144531 2.375 -0.03125 C 2.0625 -0.21875 1.90625 -0.472656 1.90625 -0.796875 C 1.90625 -1.222656 2.078125 -1.539062 2.421875 -1.75 C 2.765625 -1.957031 3.203125 -2.144531 3.734375 -2.3125 C 4.847656 -2.625 5.628906 -3.003906 6.078125 -3.453125 C 6.535156 -3.910156 6.765625 -4.535156 6.765625 -5.328125 L 6.765625 -23.234375 C 6.765625 -24.460938 6.59375 -25.488281 6.25 -26.3125 C 5.90625 -27.132812 5.175781 -27.675781 4.0625 -27.9375 C 3.84375 -28.039062 3.628906 -28.1875 3.421875 -28.375 C 3.210938 -28.5625 3.109375 -28.835938 3.109375 -29.203125 C 3.109375 -29.898438 3.398438 -30.328125 3.984375 -30.484375 C 5.578125 -30.910156 7.300781 -31.476562 9.15625 -32.1875 C 11.007812 -32.90625 12.570312 -33.613281 13.84375 -34.3125 C 14.113281 -34.46875 14.40625 -34.625 14.71875 -34.78125 C 15.039062 -34.9375 15.28125 -35.015625 15.4375 -35.015625 C 15.863281 -35.015625 16.078125 -34.75 16.078125 -34.21875 C 16.078125 -34.007812 16.0625 -33.53125 16.03125 -32.78125 C 16.007812 -32.039062 15.984375 -31.234375 15.953125 -30.359375 C 15.929688 -29.484375 15.894531 -28.703125 15.84375 -28.015625 C 15.84375 -27.703125 15.921875 -27.546875 16.078125 -27.546875 C 16.921875 -28.648438 17.875 -29.679688 18.9375 -30.640625 C 20 -31.597656 21.125 -32.394531 22.3125 -33.03125 C 23.507812 -33.664062 24.722656 -33.984375 25.953125 -33.984375 C 27.484375 -33.984375 28.632812 -33.664062 29.40625 -33.03125 C 30.175781 -32.394531 30.5625 -31.597656 30.5625 -30.640625 C 30.5625 -29.898438 30.363281 -29.101562 29.96875 -28.25 C 29.570312 -27.40625 29.066406 -26.675781 28.453125 -26.0625 C 27.847656 -25.457031 27.171875 -25.15625 26.421875 -25.15625 C 25.992188 -25.15625 25.539062 -25.242188 25.0625 -25.421875 C 24.59375 -25.609375 24.117188 -25.835938 23.640625 -26.109375 C 23.160156 -26.316406 22.664062 -26.523438 22.15625 -26.734375 C 21.65625 -26.953125 21.195312 -27.0625 20.78125 -27.0625 C 19.445312 -27.0625 18.25 -26.566406 17.1875 -25.578125 C 16.125 -24.597656 15.59375 -22.675781 15.59375 -19.8125 L 15.59375 -5.8125 C 15.59375 -4.851562 15.9375 -4.117188 16.625 -3.609375 C 17.320312 -3.109375 18.382812 -2.648438 19.8125 -2.234375 C 20.394531 -2.066406 20.832031 -1.890625 21.125 -1.703125 C 21.414062 -1.523438 21.5625 -1.222656 21.5625 -0.796875 C 21.5625 -0.109375 21.085938 0.234375 20.140625 0.234375 C 18.546875 0.234375 17.046875 0.164062 15.640625 0.03125 C 14.234375 -0.09375 12.84375 -0.15625 11.46875 -0.15625 C 10.5625 -0.15625 9.695312 -0.128906 8.875 -0.078125 C 8.050781 -0.0234375 7.210938 0.0351562 6.359375 0.109375 C 5.515625 0.191406 4.5625 0.234375 3.5 0.234375 Z M 3.5 0.234375 "/></g></g><g style="fill:#ffffff;fill-opacity:1;"><g transform="translate(114.163759, 240.381016)"><path style="stroke:none" d="M 16.875 1.109375 C 13.957031 1.109375 11.382812 0.367188 9.15625 -1.109375 C 6.925781 -2.597656 5.171875 -4.65625 3.890625 -7.28125 C 2.617188 -9.90625 1.984375 -12.890625 1.984375 -16.234375 C 1.984375 -19.472656 2.738281 -22.429688 4.25 -25.109375 C 5.769531 -27.785156 7.800781 -29.921875 10.34375 -31.515625 C 12.894531 -33.109375 15.679688 -33.90625 18.703125 -33.90625 C 20.929688 -33.90625 22.921875 -33.441406 24.671875 -32.515625 C 26.421875 -31.585938 27.8125 -30.3125 28.84375 -28.6875 C 29.882812 -27.070312 30.40625 -25.253906 30.40625 -23.234375 C 30.40625 -21.328125 29.582031 -20.375 27.9375 -20.375 L 11.78125 -20.375 C 11.039062 -20.375 10.492188 -20.175781 10.140625 -19.78125 C 9.796875 -19.382812 9.625 -18.65625 9.625 -17.59375 C 9.625 -15.363281 10.113281 -13.34375 11.09375 -11.53125 C 12.082031 -9.726562 13.398438 -8.296875 15.046875 -7.234375 C 16.691406 -6.179688 18.570312 -5.65625 20.6875 -5.65625 C 22.226562 -5.65625 23.648438 -5.957031 24.953125 -6.5625 C 26.253906 -7.175781 27.488281 -8.015625 28.65625 -9.078125 C 28.863281 -9.234375 29.046875 -9.375 29.203125 -9.5 C 29.367188 -9.632812 29.53125 -9.703125 29.6875 -9.703125 C 30.21875 -9.703125 30.484375 -9.382812 30.484375 -8.75 C 30.484375 -8.007812 30.164062 -7.109375 29.53125 -6.046875 C 28.894531 -4.828125 27.976562 -3.660156 26.78125 -2.546875 C 25.59375 -1.429688 24.144531 -0.546875 22.4375 0.109375 C 20.738281 0.773438 18.882812 1.109375 16.875 1.109375 Z M 11.78125 -23.484375 L 17.4375 -23.484375 C 18.8125 -23.484375 19.84375 -23.507812 20.53125 -23.5625 C 21.21875 -23.613281 21.882812 -23.71875 22.53125 -23.875 C 22.789062 -23.925781 22.972656 -24.148438 23.078125 -24.546875 C 23.179688 -24.953125 23.234375 -25.421875 23.234375 -25.953125 C 23.234375 -27.378906 22.691406 -28.582031 21.609375 -29.5625 C 20.523438 -30.550781 19.1875 -31.046875 17.59375 -31.046875 C 16.476562 -31.046875 15.390625 -30.710938 14.328125 -30.046875 C 13.265625 -29.378906 12.390625 -28.539062 11.703125 -27.53125 C 11.015625 -26.53125 10.695312 -25.5 10.75 -24.4375 C 10.75 -23.800781 11.09375 -23.484375 11.78125 -23.484375 Z M 11.78125 -23.484375 "/></g></g><g style="fill:#ffffff;fill-opacity:1;"><g transform="translate(142.258741, 240.381016)"><path style="stroke:none" d="M 3.34375 0.234375 C 2.914062 0.234375 2.539062 0.144531 2.21875 -0.03125 C 1.90625 -0.21875 1.75 -0.472656 1.75 -0.796875 C 1.75 -1.222656 1.921875 -1.539062 2.265625 -1.75 C 2.609375 -1.957031 3.046875 -2.144531 3.578125 -2.3125 C 4.378906 -2.519531 5.109375 -2.804688 5.765625 -3.171875 C 6.429688 -3.546875 6.765625 -4.265625 6.765625 -5.328125 L 6.765625 -23.15625 C 6.765625 -24.382812 6.59375 -25.4375 6.25 -26.3125 C 5.90625 -27.1875 5.175781 -27.753906 4.0625 -28.015625 C 3.84375 -28.117188 3.65625 -28.265625 3.5 -28.453125 C 3.34375 -28.640625 3.265625 -28.945312 3.265625 -29.375 C 3.265625 -30.0625 3.503906 -30.457031 3.984375 -30.5625 C 5.835938 -30.988281 7.675781 -31.554688 9.5 -32.265625 C 11.332031 -32.984375 12.941406 -33.742188 14.328125 -34.546875 C 14.535156 -34.648438 14.742188 -34.78125 14.953125 -34.9375 C 15.171875 -35.101562 15.382812 -35.1875 15.59375 -35.1875 C 15.863281 -35.1875 16.035156 -35.09375 16.109375 -34.90625 C 16.191406 -34.71875 16.234375 -34.519531 16.234375 -34.3125 C 16.234375 -33.9375 16.164062 -33.242188 16.03125 -32.234375 C 15.90625 -31.222656 15.84375 -30.347656 15.84375 -29.609375 C 15.84375 -29.398438 15.851562 -29.175781 15.875 -28.9375 C 15.90625 -28.695312 15.945312 -28.550781 16 -28.5 C 17.800781 -30.195312 19.671875 -31.519531 21.609375 -32.46875 C 23.546875 -33.425781 25.734375 -33.90625 28.171875 -33.90625 C 30.878906 -33.90625 33.148438 -32.867188 34.984375 -30.796875 C 36.816406 -28.734375 37.734375 -26.003906 37.734375 -22.609375 L 37.734375 -5.25 C 37.734375 -4.1875 38.050781 -3.492188 38.6875 -3.171875 C 39.320312 -2.859375 40.035156 -2.570312 40.828125 -2.3125 C 41.253906 -2.144531 41.648438 -1.941406 42.015625 -1.703125 C 42.390625 -1.472656 42.578125 -1.144531 42.578125 -0.71875 C 42.578125 -0.394531 42.40625 -0.15625 42.0625 0 C 41.71875 0.15625 41.390625 0.234375 41.078125 0.234375 C 40.015625 0.234375 39.082031 0.191406 38.28125 0.109375 C 37.488281 0.0351562 36.707031 -0.0234375 35.9375 -0.078125 C 35.164062 -0.128906 34.300781 -0.15625 33.34375 -0.15625 C 32.445312 -0.15625 31.597656 -0.128906 30.796875 -0.078125 C 30.003906 -0.0234375 29.195312 0.0351562 28.375 0.109375 C 27.550781 0.191406 26.609375 0.234375 25.546875 0.234375 C 25.285156 0.234375 24.992188 0.15625 24.671875 0 C 24.359375 -0.15625 24.203125 -0.394531 24.203125 -0.71875 C 24.203125 -1.144531 24.359375 -1.472656 24.671875 -1.703125 C 24.992188 -1.941406 25.363281 -2.144531 25.78125 -2.3125 C 26.582031 -2.570312 27.285156 -2.859375 27.890625 -3.171875 C 28.503906 -3.492188 28.8125 -4.1875 28.8125 -5.25 L 28.8125 -21.40625 C 28.8125 -23.53125 28.289062 -25.203125 27.25 -26.421875 C 26.21875 -27.640625 24.828125 -28.25 23.078125 -28.25 C 21.648438 -28.25 20.40625 -28.035156 19.34375 -27.609375 C 18.28125 -27.191406 17.242188 -26.582031 16.234375 -25.78125 C 16.023438 -25.625 15.863281 -25.398438 15.75 -25.109375 C 15.644531 -24.816406 15.59375 -24.515625 15.59375 -24.203125 L 15.59375 -5.25 C 15.59375 -4.1875 15.898438 -3.484375 16.515625 -3.140625 C 17.128906 -2.796875 17.832031 -2.519531 18.625 -2.3125 C 19.738281 -1.9375 20.296875 -1.429688 20.296875 -0.796875 C 20.296875 -0.472656 20.160156 -0.21875 19.890625 -0.03125 C 19.628906 0.144531 19.285156 0.234375 18.859375 0.234375 C 17.796875 0.234375 16.867188 0.191406 16.078125 0.109375 C 15.285156 0.0351562 14.515625 -0.0234375 13.765625 -0.078125 C 13.023438 -0.128906 12.175781 -0.15625 11.21875 -0.15625 C 10.320312 -0.15625 9.472656 -0.128906 8.671875 -0.078125 C 7.878906 -0.0234375 7.054688 0.0351562 6.203125 0.109375 C 5.359375 0.191406 4.40625 0.234375 3.34375 0.234375 Z M 3.34375 0.234375 "/></g></g><g style="fill:#ffffff;fill-opacity:1;"><g transform="translate(181.894468, 240.381016)"><path style="stroke:none" d="M 28.5 1.515625 C 28.332031 1.515625 28.101562 1.367188 27.8125 1.078125 C 27.519531 0.785156 27.375 0.554688 27.375 0.390625 C 27.488281 -0.347656 27.582031 -1.128906 27.65625 -1.953125 C 27.738281 -2.773438 27.804688 -3.476562 27.859375 -4.0625 L 27.859375 -4.53125 C 26.847656 -3.050781 25.425781 -1.738281 23.59375 -0.59375 C 21.769531 0.539062 19.6875 1.109375 17.34375 1.109375 C 14.375 1.109375 11.75 0.351562 9.46875 -1.15625 C 7.1875 -2.664062 5.394531 -4.679688 4.09375 -7.203125 C 2.800781 -9.722656 2.15625 -12.441406 2.15625 -15.359375 C 2.15625 -18.804688 2.9375 -21.921875 4.5 -24.703125 C 6.0625 -27.492188 8.25 -29.695312 11.0625 -31.3125 C 13.875 -32.9375 17.140625 -33.75 20.859375 -33.75 C 21.753906 -33.75 22.664062 -33.679688 23.59375 -33.546875 C 24.53125 -33.410156 25.34375 -33.238281 26.03125 -33.03125 C 26.664062 -32.875 27.007812 -32.796875 27.0625 -32.796875 C 27.320312 -32.796875 27.453125 -33.242188 27.453125 -34.140625 L 27.453125 -44.171875 C 27.453125 -46.191406 27.1875 -47.597656 26.65625 -48.390625 C 26.132812 -49.191406 25.285156 -49.695312 24.109375 -49.90625 C 23.523438 -50.0625 23.234375 -50.457031 23.234375 -51.09375 C 23.234375 -51.675781 23.5 -52.050781 24.03125 -52.21875 C 26.101562 -52.695312 28.054688 -53.238281 29.890625 -53.84375 C 31.722656 -54.457031 33.222656 -55.03125 34.390625 -55.5625 C 34.921875 -55.769531 35.300781 -55.910156 35.53125 -55.984375 C 35.769531 -56.066406 35.914062 -56.109375 35.96875 -56.109375 C 36.5 -56.109375 36.765625 -55.84375 36.765625 -55.3125 C 36.765625 -55.3125 36.738281 -54.992188 36.6875 -54.359375 C 36.632812 -53.722656 36.566406 -52.859375 36.484375 -51.765625 C 36.410156 -50.679688 36.347656 -49.453125 36.296875 -48.078125 L 36.0625 -9.3125 C 36.0625 -7.507812 36.191406 -6.207031 36.453125 -5.40625 C 36.722656 -4.613281 37.175781 -4.21875 37.8125 -4.21875 C 38.070312 -4.21875 38.414062 -4.226562 38.84375 -4.25 C 39.269531 -4.28125 40.015625 -4.347656 41.078125 -4.453125 C 41.867188 -4.503906 42.265625 -4.238281 42.265625 -3.65625 C 42.265625 -3.238281 42.117188 -2.828125 41.828125 -2.421875 C 41.535156 -2.023438 41.253906 -1.828125 40.984375 -1.828125 C 39.179688 -1.617188 37.351562 -1.273438 35.5 -0.796875 C 33.644531 -0.316406 31.757812 0.289062 29.84375 1.03125 C 29.476562 1.195312 29.203125 1.316406 29.015625 1.390625 C 28.828125 1.472656 28.65625 1.515625 28.5 1.515625 Z M 21.015625 -3.90625 C 22.023438 -3.90625 23.140625 -4.15625 24.359375 -4.65625 C 25.578125 -5.15625 26.609375 -5.859375 27.453125 -6.765625 L 27.453125 -23.328125 C 27.453125 -24.441406 27.082031 -25.539062 26.34375 -26.625 C 25.601562 -27.707031 24.617188 -28.609375 23.390625 -29.328125 C 22.171875 -30.046875 20.875 -30.40625 19.5 -30.40625 C 18.226562 -30.40625 16.976562 -29.941406 15.75 -29.015625 C 14.53125 -28.085938 13.507812 -26.664062 12.6875 -24.75 C 11.875 -22.84375 11.46875 -20.40625 11.46875 -17.4375 C 11.46875 -14.988281 11.769531 -12.898438 12.375 -11.171875 C 12.988281 -9.453125 13.769531 -8.0625 14.71875 -7 C 15.675781 -5.9375 16.710938 -5.15625 17.828125 -4.65625 C 18.941406 -4.15625 20.003906 -3.90625 21.015625 -3.90625 Z M 21.015625 -3.90625 "/></g></g><g style="fill:#ffffff;fill-opacity:1;"><g transform="translate(220.256726, 240.381016)"><path style="stroke:none" d="M 3.1875 0.234375 C 2.757812 0.234375 2.410156 0.144531 2.140625 -0.03125 C 1.878906 -0.21875 1.75 -0.472656 1.75 -0.796875 C 1.75 -1.222656 1.90625 -1.539062 2.21875 -1.75 C 2.539062 -1.957031 2.914062 -2.117188 3.34375 -2.234375 C 4.613281 -2.546875 5.523438 -2.890625 6.078125 -3.265625 C 6.640625 -3.640625 6.921875 -4.273438 6.921875 -5.171875 L 6.921875 -22.453125 C 6.921875 -24.148438 6.65625 -25.421875 6.125 -26.265625 C 5.59375 -27.117188 4.691406 -27.648438 3.421875 -27.859375 C 3.160156 -27.910156 2.945312 -28.054688 2.78125 -28.296875 C 2.625 -28.535156 2.546875 -28.8125 2.546875 -29.125 C 2.546875 -29.875 2.835938 -30.273438 3.421875 -30.328125 C 5.972656 -30.859375 8.1875 -31.585938 10.0625 -32.515625 C 11.945312 -33.441406 13.394531 -34.171875 14.40625 -34.703125 C 15.144531 -35.078125 15.625 -35.265625 15.84375 -35.265625 C 16.425781 -35.265625 16.71875 -35 16.71875 -34.46875 C 16.664062 -33.71875 16.554688 -32.691406 16.390625 -31.390625 C 16.234375 -30.097656 16.085938 -28.722656 15.953125 -27.265625 C 15.828125 -25.804688 15.765625 -24.4375 15.765625 -23.15625 L 15.765625 -5.25 C 15.765625 -4.457031 16.054688 -3.847656 16.640625 -3.421875 C 17.222656 -2.992188 18.148438 -2.597656 19.421875 -2.234375 C 19.847656 -2.066406 20.21875 -1.890625 20.53125 -1.703125 C 20.851562 -1.523438 21.015625 -1.222656 21.015625 -0.796875 C 21.015625 -0.160156 20.5625 0.15625 19.65625 0.15625 C 18.644531 0.15625 17.675781 0.128906 16.75 0.078125 C 15.820312 0.0234375 14.921875 -0.0234375 14.046875 -0.078125 C 13.171875 -0.128906 12.253906 -0.15625 11.296875 -0.15625 C 10.398438 -0.15625 9.523438 -0.128906 8.671875 -0.078125 C 7.828125 -0.0234375 6.96875 0.0351562 6.09375 0.109375 C 5.21875 0.191406 4.25 0.234375 3.1875 0.234375 Z M 11.15625 -39.875 C 9.613281 -39.875 8.3125 -40.40625 7.25 -41.46875 C 6.1875 -42.53125 5.65625 -43.800781 5.65625 -45.28125 C 5.65625 -46.925781 6.1875 -48.28125 7.25 -49.34375 C 8.3125 -50.40625 9.613281 -50.9375 11.15625 -50.9375 C 12.738281 -50.9375 14.0625 -50.40625 15.125 -49.34375 C 16.1875 -48.28125 16.71875 -46.925781 16.71875 -45.28125 C 16.71875 -43.800781 16.1875 -42.53125 15.125 -41.46875 C 14.0625 -40.40625 12.738281 -39.875 11.15625 -39.875 Z M 11.15625 -39.875 "/></g></g><g style="fill:#ffffff;fill-opacity:1;"><g transform="translate(238.084417, 240.381016)"><path style="stroke:none" d="M 2.9375 21.484375 C 2.625 21.484375 2.28125 21.40625 1.90625 21.25 C 1.539062 21.09375 1.359375 20.828125 1.359375 20.453125 C 1.359375 20.023438 1.539062 19.707031 1.90625 19.5 C 2.28125 19.289062 2.707031 19.101562 3.1875 18.9375 C 4.195312 18.625 4.976562 18.265625 5.53125 17.859375 C 6.09375 17.460938 6.375 16.816406 6.375 15.921875 L 6.375 -23 C 6.375 -23.53125 6.238281 -24.15625 5.96875 -24.875 C 5.707031 -25.59375 5.320312 -26.253906 4.8125 -26.859375 C 4.3125 -27.472656 3.660156 -27.832031 2.859375 -27.9375 C 2.597656 -28.039062 2.398438 -28.1875 2.265625 -28.375 C 2.128906 -28.5625 2.0625 -28.867188 2.0625 -29.296875 C 2.0625 -29.660156 2.128906 -29.9375 2.265625 -30.125 C 2.398438 -30.3125 2.570312 -30.429688 2.78125 -30.484375 C 4.695312 -30.910156 6.609375 -31.453125 8.515625 -32.109375 C 10.421875 -32.773438 12.09375 -33.425781 13.53125 -34.0625 C 13.6875 -34.113281 13.84375 -34.207031 14 -34.34375 C 14.164062 -34.476562 14.328125 -34.546875 14.484375 -34.546875 C 14.753906 -34.546875 14.925781 -34.453125 15 -34.265625 C 15.082031 -34.078125 15.125 -33.851562 15.125 -33.59375 C 15.125 -33.164062 15.054688 -32.457031 14.921875 -31.46875 C 14.785156 -30.488281 14.71875 -29.65625 14.71875 -28.96875 C 14.71875 -28.4375 14.773438 -28.144531 14.890625 -28.09375 C 15.421875 -28.625 16.359375 -29.328125 17.703125 -30.203125 C 19.054688 -31.078125 20.625 -31.859375 22.40625 -32.546875 C 24.1875 -33.242188 25.898438 -33.59375 27.546875 -33.59375 C 30.359375 -33.59375 32.757812 -32.832031 34.75 -31.3125 C 36.738281 -29.800781 38.257812 -27.863281 39.3125 -25.5 C 40.375 -23.144531 40.90625 -20.691406 40.90625 -18.140625 C 40.90625 -15.703125 40.441406 -13.328125 39.515625 -11.015625 C 38.585938 -8.710938 37.273438 -6.628906 35.578125 -4.765625 C 33.878906 -2.910156 31.925781 -1.425781 29.71875 -0.3125 C 27.519531 0.800781 25.148438 1.359375 22.609375 1.359375 C 21.972656 1.359375 21.210938 1.265625 20.328125 1.078125 C 19.453125 0.890625 18.578125 0.648438 17.703125 0.359375 C 16.828125 0.0664062 16.070312 -0.265625 15.4375 -0.640625 C 15.382812 -0.640625 15.332031 -0.492188 15.28125 -0.203125 C 15.226562 0.0859375 15.1875 0.421875 15.15625 0.796875 C 15.132812 1.171875 15.125 1.460938 15.125 1.671875 L 15.125 15.4375 C 15.125 16.125 15.332031 16.691406 15.75 17.140625 C 16.175781 17.597656 16.707031 17.957031 17.34375 18.21875 C 17.988281 18.488281 18.707031 18.726562 19.5 18.9375 C 20.03125 19.101562 20.453125 19.289062 20.765625 19.5 C 21.085938 19.707031 21.25 20.023438 21.25 20.453125 C 21.25 20.773438 21.085938 21.023438 20.765625 21.203125 C 20.453125 21.390625 20.132812 21.484375 19.8125 21.484375 C 18.226562 21.484375 16.675781 21.414062 15.15625 21.28125 C 13.644531 21.15625 12.203125 21.09375 10.828125 21.09375 C 9.921875 21.09375 9.066406 21.117188 8.265625 21.171875 C 7.472656 21.222656 6.648438 21.285156 5.796875 21.359375 C 4.953125 21.441406 4 21.484375 2.9375 21.484375 Z M 22.84375 -1.984375 C 23.476562 -1.984375 24.269531 -2.207031 25.21875 -2.65625 C 26.175781 -3.113281 27.117188 -3.847656 28.046875 -4.859375 C 28.984375 -5.867188 29.753906 -7.25 30.359375 -9 C 30.972656 -10.75 31.28125 -12.894531 31.28125 -15.4375 C 31.28125 -18.351562 30.960938 -20.703125 30.328125 -22.484375 C 29.691406 -24.265625 28.894531 -25.601562 27.9375 -26.5 C 26.976562 -27.40625 26.007812 -28.003906 25.03125 -28.296875 C 24.050781 -28.585938 23.191406 -28.734375 22.453125 -28.734375 C 21.390625 -28.734375 20.300781 -28.503906 19.1875 -28.046875 C 18.070312 -27.597656 17.140625 -27.066406 16.390625 -26.453125 C 15.648438 -25.847656 15.28125 -25.332031 15.28125 -24.90625 C 15.28125 -24.164062 15.28125 -23.195312 15.28125 -22 C 15.28125 -20.8125 15.265625 -19.539062 15.234375 -18.1875 C 15.210938 -16.832031 15.1875 -15.597656 15.15625 -14.484375 C 15.132812 -13.367188 15.125 -12.570312 15.125 -12.09375 C 15.125 -10.5625 15.46875 -9.007812 16.15625 -7.4375 C 16.84375 -5.875 17.769531 -4.570312 18.9375 -3.53125 C 20.101562 -2.5 21.40625 -1.984375 22.84375 -1.984375 Z M 22.84375 -1.984375 "/></g></g><g style="fill:#ffffff;fill-opacity:1;"><g transform="translate(276.685456, 240.381016)"><path style="stroke:none" d="M 3.1875 0.234375 C 2.757812 0.234375 2.410156 0.144531 2.140625 -0.03125 C 1.878906 -0.21875 1.75 -0.472656 1.75 -0.796875 C 1.75 -1.222656 1.90625 -1.539062 2.21875 -1.75 C 2.539062 -1.957031 2.914062 -2.117188 3.34375 -2.234375 C 4.613281 -2.546875 5.523438 -2.890625 6.078125 -3.265625 C 6.640625 -3.640625 6.921875 -4.273438 6.921875 -5.171875 L 6.921875 -22.453125 C 6.921875 -24.148438 6.65625 -25.421875 6.125 -26.265625 C 5.59375 -27.117188 4.691406 -27.648438 3.421875 -27.859375 C 3.160156 -27.910156 2.945312 -28.054688 2.78125 -28.296875 C 2.625 -28.535156 2.546875 -28.8125 2.546875 -29.125 C 2.546875 -29.875 2.835938 -30.273438 3.421875 -30.328125 C 5.972656 -30.859375 8.1875 -31.585938 10.0625 -32.515625 C 11.945312 -33.441406 13.394531 -34.171875 14.40625 -34.703125 C 15.144531 -35.078125 15.625 -35.265625 15.84375 -35.265625 C 16.425781 -35.265625 16.71875 -35 16.71875 -34.46875 C 16.664062 -33.71875 16.554688 -32.691406 16.390625 -31.390625 C 16.234375 -30.097656 16.085938 -28.722656 15.953125 -27.265625 C 15.828125 -25.804688 15.765625 -24.4375 15.765625 -23.15625 L 15.765625 -5.25 C 15.765625 -4.457031 16.054688 -3.847656 16.640625 -3.421875 C 17.222656 -2.992188 18.148438 -2.597656 19.421875 -2.234375 C 19.847656 -2.066406 20.21875 -1.890625 20.53125 -1.703125 C 20.851562 -1.523438 21.015625 -1.222656 21.015625 -0.796875 C 21.015625 -0.160156 20.5625 0.15625 19.65625 0.15625 C 18.644531 0.15625 17.675781 0.128906 16.75 0.078125 C 15.820312 0.0234375 14.921875 -0.0234375 14.046875 -0.078125 C 13.171875 -0.128906 12.253906 -0.15625 11.296875 -0.15625 C 10.398438 -0.15625 9.523438 -0.128906 8.671875 -0.078125 C 7.828125 -0.0234375 6.96875 0.0351562 6.09375 0.109375 C 5.21875 0.191406 4.25 0.234375 3.1875 0.234375 Z M 11.15625 -39.875 C 9.613281 -39.875 8.3125 -40.40625 7.25 -41.46875 C 6.1875 -42.53125 5.65625 -43.800781 5.65625 -45.28125 C 5.65625 -46.925781 6.1875 -48.28125 7.25 -49.34375 C 8.3125 -50.40625 9.613281 -50.9375 11.15625 -50.9375 C 12.738281 -50.9375 14.0625 -50.40625 15.125 -49.34375 C 16.1875 -48.28125 16.71875 -46.925781 16.71875 -45.28125 C 16.71875 -43.800781 16.1875 -42.53125 15.125 -41.46875 C 14.0625 -40.40625 12.738281 -39.875 11.15625 -39.875 Z M 11.15625 -39.875 "/></g></g><g style="fill:#ffffff;fill-opacity:1;"><g transform="translate(294.513133, 240.381016)"><path style="stroke:none" d="M 16.640625 1.109375 C 13.453125 1.109375 11.035156 0.257812 9.390625 -1.4375 C 7.742188 -3.132812 6.921875 -5.597656 6.921875 -8.828125 L 6.921875 -27.21875 C 6.921875 -27.644531 6.75 -27.960938 6.40625 -28.171875 C 6.0625 -28.390625 5.382812 -28.523438 4.375 -28.578125 L 3.5 -28.578125 C 3.1875 -28.578125 2.921875 -28.828125 2.703125 -29.328125 C 2.492188 -29.835938 2.390625 -30.328125 2.390625 -30.796875 C 2.390625 -30.910156 2.425781 -31.054688 2.5 -31.234375 C 2.582031 -31.421875 2.703125 -31.539062 2.859375 -31.59375 C 4.085938 -32.125 5.335938 -32.851562 6.609375 -33.78125 C 7.878906 -34.71875 9.070312 -35.675781 10.1875 -36.65625 C 11.300781 -37.632812 12.226562 -38.46875 12.96875 -39.15625 C 13.34375 -39.425781 13.648438 -39.664062 13.890625 -39.875 C 14.128906 -40.082031 14.40625 -40.1875 14.71875 -40.1875 C 15.144531 -40.1875 15.476562 -40.09375 15.71875 -39.90625 C 15.957031 -39.726562 16.023438 -39.375 15.921875 -38.84375 L 15.4375 -34.46875 C 15.382812 -33.832031 15.53125 -33.40625 15.875 -33.1875 C 16.21875 -32.976562 16.707031 -32.875 17.34375 -32.875 L 26.75 -32.875 C 26.90625 -32.875 27.0625 -32.6875 27.21875 -32.3125 C 27.375 -31.945312 27.453125 -31.578125 27.453125 -31.203125 C 27.453125 -30.515625 27.359375 -29.878906 27.171875 -29.296875 C 26.992188 -28.710938 26.769531 -28.421875 26.5 -28.421875 L 18.9375 -28.421875 C 17.71875 -28.421875 16.882812 -28.285156 16.4375 -28.015625 C 15.988281 -27.753906 15.765625 -27.195312 15.765625 -26.34375 L 15.765625 -11.0625 C 15.765625 -8.726562 16.210938 -6.960938 17.109375 -5.765625 C 18.015625 -4.578125 19.289062 -3.984375 20.9375 -3.984375 C 22.414062 -3.984375 23.539062 -4.113281 24.3125 -4.375 C 25.082031 -4.644531 25.785156 -4.960938 26.421875 -5.328125 C 26.578125 -5.429688 26.710938 -5.484375 26.828125 -5.484375 C 27.085938 -5.484375 27.285156 -5.320312 27.421875 -5 C 27.554688 -4.6875 27.625 -4.347656 27.625 -3.984375 C 27.625 -3.710938 27.101562 -3.148438 26.0625 -2.296875 C 25.03125 -1.453125 23.675781 -0.675781 22 0.03125 C 20.332031 0.75 18.546875 1.109375 16.640625 1.109375 Z M 16.640625 1.109375 "/></g></g><g style="fill:#ffffff;fill-opacity:1;"><g transform="translate(318.389804, 240.381016)"><path style="stroke:none" d="M 6.203125 22.609375 C 4.929688 22.609375 3.738281 22.195312 2.625 21.375 C 1.507812 20.550781 0.953125 19.472656 0.953125 18.140625 C 0.953125 17.140625 1.203125 16.1875 1.703125 15.28125 C 2.210938 14.375 2.972656 13.921875 3.984375 13.921875 C 4.722656 13.921875 5.476562 14.050781 6.25 14.3125 C 7.019531 14.582031 7.75 14.691406 8.4375 14.640625 C 9.070312 14.585938 9.535156 14.441406 9.828125 14.203125 C 10.117188 13.960938 10.453125 13.523438 10.828125 12.890625 C 11.253906 12.148438 11.71875 11.34375 12.21875 10.46875 C 12.71875 9.59375 13.242188 8.539062 13.796875 7.3125 C 14.359375 6.09375 14.988281 4.632812 15.6875 2.9375 C 16.15625 1.832031 16.390625 0.773438 16.390625 -0.234375 C 16.390625 -0.867188 16.3125 -1.476562 16.15625 -2.0625 C 16 -2.644531 15.8125 -3.175781 15.59375 -3.65625 L 5.96875 -26.34375 C 5.539062 -27.40625 5.019531 -28.332031 4.40625 -29.125 C 3.800781 -29.925781 3.050781 -30.457031 2.15625 -30.71875 C 1.675781 -30.9375 1.289062 -31.148438 1 -31.359375 C 0.707031 -31.566406 0.5625 -31.882812 0.5625 -32.3125 C 0.5625 -32.738281 0.769531 -32.988281 1.1875 -33.0625 C 1.613281 -33.144531 1.988281 -33.1875 2.3125 -33.1875 C 3.53125 -33.1875 4.507812 -33.160156 5.25 -33.109375 C 6 -33.054688 6.691406 -33.003906 7.328125 -32.953125 C 7.960938 -32.898438 8.648438 -32.875 9.390625 -32.875 C 10.503906 -32.875 11.40625 -32.898438 12.09375 -32.953125 C 12.789062 -33.003906 13.519531 -33.054688 14.28125 -33.109375 C 15.050781 -33.160156 16.019531 -33.1875 17.1875 -33.1875 C 17.5625 -33.1875 17.957031 -33.117188 18.375 -32.984375 C 18.800781 -32.859375 19.015625 -32.582031 19.015625 -32.15625 C 19.015625 -31.726562 18.773438 -31.394531 18.296875 -31.15625 C 17.828125 -30.914062 17.378906 -30.71875 16.953125 -30.5625 C 16.421875 -30.40625 15.992188 -30.097656 15.671875 -29.640625 C 15.359375 -29.191406 15.203125 -28.546875 15.203125 -27.703125 C 15.203125 -27.328125 15.28125 -26.859375 15.4375 -26.296875 C 15.601562 -25.742188 15.789062 -25.148438 16 -24.515625 L 21.484375 -11.21875 C 21.535156 -11.007812 21.644531 -10.90625 21.8125 -10.90625 C 21.863281 -10.90625 21.941406 -11.007812 22.046875 -11.21875 L 26.578125 -24.203125 C 26.742188 -24.566406 26.890625 -25.050781 27.015625 -25.65625 C 27.148438 -26.269531 27.21875 -26.789062 27.21875 -27.21875 C 27.21875 -28.175781 26.992188 -28.90625 26.546875 -29.40625 C 26.097656 -29.914062 25.609375 -30.273438 25.078125 -30.484375 C 24.648438 -30.691406 24.195312 -30.914062 23.71875 -31.15625 C 23.238281 -31.394531 23 -31.726562 23 -32.15625 C 23 -32.582031 23.222656 -32.859375 23.671875 -32.984375 C 24.128906 -33.117188 24.515625 -33.1875 24.828125 -33.1875 C 25.992188 -33.1875 26.972656 -33.132812 27.765625 -33.03125 C 28.566406 -32.925781 29.5 -32.875 30.5625 -32.875 C 31.25 -32.875 31.816406 -32.898438 32.265625 -32.953125 C 32.722656 -33.003906 33.21875 -33.054688 33.75 -33.109375 C 34.28125 -33.160156 34.941406 -33.1875 35.734375 -33.1875 C 36.054688 -33.1875 36.441406 -33.144531 36.890625 -33.0625 C 37.335938 -32.988281 37.5625 -32.738281 37.5625 -32.3125 C 37.5625 -31.882812 37.414062 -31.566406 37.125 -31.359375 C 36.832031 -31.148438 36.445312 -30.9375 35.96875 -30.71875 C 35.070312 -30.457031 34.195312 -29.863281 33.34375 -28.9375 C 32.5 -28.007812 31.8125 -26.929688 31.28125 -25.703125 L 19.8125 1.984375 C 19.5 2.734375 19.078125 3.726562 18.546875 4.96875 C 18.015625 6.21875 17.441406 7.582031 16.828125 9.0625 C 16.222656 10.550781 15.570312 12.09375 14.875 13.6875 C 14.1875 15.28125 13.523438 16.847656 12.890625 18.390625 C 12.304688 19.765625 11.414062 20.8125 10.21875 21.53125 C 9.03125 22.25 7.691406 22.609375 6.203125 22.609375 Z M 6.203125 22.609375 "/></g></g><path style=" stroke:none;fill-rule:nonzero;fill:#f4b626;fill-opacity:1;" d="M 177.761719 153.246094 C 174.554688 148.171875 171.582031 140.765625 171.824219 130.96875 C 165.625 126.105469 156.714844 121.785156 143.882812 119.117188 C 146.777344 133.042969 151.617188 142.347656 156.988281 148.578125 C 166.019531 147.988281 172.933594 150.417969 177.761719 153.246094 "/><g clip-rule="nonzero" clip-path="url(#1ade32c3b3)"><path style=" stroke:none;fill-rule:nonzero;fill:#a9791d;fill-opacity:1;" d="M 190.25 156.316406 C 197.132812 147.945312 207.015625 128.015625 185.585938 95.332031 C 164.152344 128.023438 174.042969 147.953125 180.921875 156.324219 C 173.117188 150.183594 155.375 142.136719 126.710938 160.933594 C 166.851562 187.257812 185.585938 160.933594 185.585938 160.933594 C 185.585938 160.933594 204.316406 187.257812 244.457031 160.933594 C 215.800781 142.140625 198.058594 150.179688 190.25 156.316406 "/></g><path style=" stroke:none;fill-rule:nonzero;fill:#f4b626;fill-opacity:1;" d="M 214.183594 148.578125 C 219.554688 142.347656 224.394531 133.042969 227.285156 119.117188 C 214.453125 121.785156 205.546875 126.105469 199.347656 130.96875 C 199.589844 140.765625 196.613281 148.171875 193.40625 153.246094 C 198.234375 150.417969 205.148438 147.988281 214.183594 148.578125 "/><path style=" stroke:none;fill-rule:nonzero;fill:#f4b626;fill-opacity:1;" d="M 185.585938 176.496094 C 206.859375 176.496094 226.539062 178.152344 242.636719 180.957031 C 241.53125 180.378906 240.371094 179.894531 239.226562 179.460938 C 236.789062 178.542969 234.285156 177.828125 231.773438 177.191406 C 226.730469 175.964844 221.625 175.066406 216.5 174.398438 C 206.242188 173.046875 195.90625 172.554688 185.585938 172.488281 C 175.261719 172.550781 164.929688 173.039062 154.671875 174.390625 C 149.542969 175.058594 144.4375 175.957031 139.394531 177.183594 C 136.882812 177.824219 134.378906 178.539062 131.941406 179.453125 C 130.792969 179.894531 129.632812 180.378906 128.527344 180.957031 C 144.621094 178.152344 164.304688 176.496094 185.585938 176.496094 "/></g></svg>