<svg xmlns="http://www.w3.org/2000/svg" xmlns:xlink="http://www.w3.org/1999/xlink" width="500" zoomAndPan="magnify" viewBox="0 0 375 374.999991" height="500" preserveAspectRatio="xMidYMid meet" version="1.2"><defs><clipPath id="df154378b2"><path d="M 20.128906 157.914062 L 95.878906 157.914062 L 95.878906 208 L 20.128906 208 Z M 20.128906 157.914062 "/></clipPath></defs><g id="3b6ad2ed60"><g style="fill:#000000;fill-opacity:1;"><g transform="translate(105.813761, 207.834744)"><path style="stroke:none" d="M 12.578125 0.875 C 10.890625 0.875 9.289062 0.660156 7.78125 0.234375 C 6.269531 -0.191406 4.890625 -0.835938 3.640625 -1.703125 C 3.410156 -1.898438 3.195312 -2.101562 3 -2.3125 C 2.800781 -2.53125 2.644531 -2.78125 2.53125 -3.0625 C 2.21875 -4.039062 2 -5.242188 1.875 -6.671875 C 1.757812 -8.097656 1.722656 -9.476562 1.765625 -10.8125 C 1.765625 -11.082031 1.867188 -11.273438 2.078125 -11.390625 C 2.296875 -11.515625 2.5625 -11.578125 2.875 -11.578125 C 3.1875 -11.578125 3.429688 -11.523438 3.609375 -11.421875 C 3.785156 -11.328125 3.914062 -11.144531 4 -10.875 C 4.851562 -7.9375 6.101562 -5.644531 7.75 -4 C 9.394531 -2.351562 11.257812 -1.53125 13.34375 -1.53125 C 14.632812 -1.53125 15.726562 -1.820312 16.625 -2.40625 C 17.53125 -3 18.21875 -3.765625 18.6875 -4.703125 C 19.15625 -5.640625 19.390625 -6.65625 19.390625 -7.75 C 19.390625 -9.125 19.144531 -10.257812 18.65625 -11.15625 C 18.164062 -12.0625 17.429688 -12.875 16.453125 -13.59375 C 15.472656 -14.320312 14.238281 -15.097656 12.75 -15.921875 C 11.144531 -16.859375 9.578125 -17.84375 8.046875 -18.875 C 6.515625 -19.914062 5.257812 -21.148438 4.28125 -22.578125 C 3.300781 -24.015625 2.8125 -25.789062 2.8125 -27.90625 C 2.8125 -30.101562 3.367188 -32.03125 4.484375 -33.6875 C 5.609375 -35.351562 7.164062 -36.65625 9.15625 -37.59375 C 11.15625 -38.539062 13.46875 -39.015625 16.09375 -39.015625 C 17.539062 -39.015625 18.890625 -38.851562 20.140625 -38.53125 C 21.398438 -38.21875 22.398438 -37.90625 23.140625 -37.59375 C 23.578125 -37.4375 23.898438 -37.238281 24.109375 -37 C 24.328125 -36.769531 24.492188 -36.398438 24.609375 -35.890625 C 24.847656 -35.066406 25.054688 -34.085938 25.234375 -32.953125 C 25.410156 -31.816406 25.5 -30.625 25.5 -29.375 C 25.5 -28.90625 25.144531 -28.671875 24.4375 -28.671875 C 24.125 -28.671875 23.8125 -28.75 23.5 -28.90625 C 23.1875 -29.0625 22.988281 -29.273438 22.90625 -29.546875 C 22.207031 -31.816406 21.238281 -33.539062 20 -34.71875 C 18.769531 -35.894531 17.253906 -36.484375 15.453125 -36.484375 C 14.234375 -36.484375 13.191406 -36.273438 12.328125 -35.859375 C 11.472656 -35.453125 10.789062 -34.828125 10.28125 -33.984375 C 9.769531 -33.140625 9.515625 -32.050781 9.515625 -30.71875 C 9.515625 -29.707031 9.859375 -28.769531 10.546875 -27.90625 C 11.234375 -27.039062 12.191406 -26.195312 13.421875 -25.375 C 14.660156 -24.550781 16.039062 -23.648438 17.5625 -22.671875 C 19.445312 -21.578125 21.023438 -20.472656 22.296875 -19.359375 C 23.566406 -18.242188 24.535156 -17.007812 25.203125 -15.65625 C 25.867188 -14.300781 26.203125 -12.707031 26.203125 -10.875 C 26.203125 -8.28125 25.632812 -6.113281 24.5 -4.375 C 23.363281 -2.632812 21.773438 -1.320312 19.734375 -0.4375 C 17.703125 0.4375 15.316406 0.875 12.578125 0.875 Z M 12.578125 0.875 "/></g></g><g style="fill:#000000;fill-opacity:1;"><g transform="translate(131.01715, 207.834744)"><path style="stroke:none" d="M 12.453125 0.828125 C 10.296875 0.828125 8.394531 0.28125 6.75 -0.8125 C 5.101562 -1.914062 3.8125 -3.4375 2.875 -5.375 C 1.9375 -7.3125 1.46875 -9.515625 1.46875 -11.984375 C 1.46875 -14.367188 2.023438 -16.550781 3.140625 -18.53125 C 4.253906 -20.507812 5.75 -22.085938 7.625 -23.265625 C 9.507812 -24.441406 11.570312 -25.03125 13.8125 -25.03125 C 15.457031 -25.03125 16.925781 -24.6875 18.21875 -24 C 19.507812 -23.3125 20.535156 -22.367188 21.296875 -21.171875 C 22.054688 -19.984375 22.4375 -18.644531 22.4375 -17.15625 C 22.4375 -15.75 21.832031 -15.046875 20.625 -15.046875 L 8.6875 -15.046875 C 8.144531 -15.046875 7.742188 -14.894531 7.484375 -14.59375 C 7.234375 -14.300781 7.109375 -13.765625 7.109375 -12.984375 C 7.109375 -11.335938 7.46875 -9.847656 8.1875 -8.515625 C 8.914062 -7.179688 9.882812 -6.125 11.09375 -5.34375 C 12.3125 -4.5625 13.707031 -4.171875 15.28125 -4.171875 C 16.414062 -4.171875 17.460938 -4.394531 18.421875 -4.84375 C 19.378906 -5.289062 20.289062 -5.910156 21.15625 -6.703125 C 21.3125 -6.816406 21.445312 -6.921875 21.5625 -7.015625 C 21.675781 -7.117188 21.789062 -7.171875 21.90625 -7.171875 C 22.300781 -7.171875 22.5 -6.9375 22.5 -6.46875 C 22.5 -5.914062 22.265625 -5.25 21.796875 -4.46875 C 21.328125 -3.5625 20.648438 -2.695312 19.765625 -1.875 C 18.890625 -1.050781 17.820312 -0.394531 16.5625 0.09375 C 15.3125 0.582031 13.941406 0.828125 12.453125 0.828125 Z M 8.6875 -17.328125 L 12.859375 -17.328125 C 13.878906 -17.328125 14.644531 -17.347656 15.15625 -17.390625 C 15.664062 -17.429688 16.15625 -17.507812 16.625 -17.625 C 16.820312 -17.664062 16.957031 -17.832031 17.03125 -18.125 C 17.113281 -18.414062 17.15625 -18.757812 17.15625 -19.15625 C 17.15625 -20.207031 16.753906 -21.09375 15.953125 -21.8125 C 15.148438 -22.539062 14.160156 -22.90625 12.984375 -22.90625 C 12.160156 -22.90625 11.359375 -22.660156 10.578125 -22.171875 C 9.796875 -21.679688 9.148438 -21.066406 8.640625 -20.328125 C 8.128906 -19.585938 7.894531 -18.820312 7.9375 -18.03125 C 7.9375 -17.5625 8.1875 -17.328125 8.6875 -17.328125 Z M 8.6875 -17.328125 "/></g></g><g style="fill:#000000;fill-opacity:1;"><g transform="translate(151.755507, 207.834744)"><path style="stroke:none" d="M 2.578125 0.171875 C 2.265625 0.171875 1.988281 0.101562 1.75 -0.03125 C 1.519531 -0.164062 1.40625 -0.351562 1.40625 -0.59375 C 1.40625 -0.90625 1.53125 -1.140625 1.78125 -1.296875 C 2.039062 -1.453125 2.367188 -1.585938 2.765625 -1.703125 C 3.585938 -1.941406 4.164062 -2.226562 4.5 -2.5625 C 4.832031 -2.894531 5 -3.351562 5 -3.9375 L 5 -17.15625 C 5 -18.050781 4.867188 -18.800781 4.609375 -19.40625 C 4.359375 -20.019531 3.820312 -20.425781 3 -20.625 C 2.84375 -20.695312 2.6875 -20.800781 2.53125 -20.9375 C 2.375 -21.082031 2.296875 -21.289062 2.296875 -21.5625 C 2.296875 -22.070312 2.507812 -22.382812 2.9375 -22.5 C 4.113281 -22.8125 5.382812 -23.234375 6.75 -23.765625 C 8.125 -24.296875 9.28125 -24.816406 10.21875 -25.328125 C 10.414062 -25.441406 10.628906 -25.554688 10.859375 -25.671875 C 11.097656 -25.785156 11.273438 -25.84375 11.390625 -25.84375 C 11.710938 -25.84375 11.875 -25.648438 11.875 -25.265625 C 11.875 -25.109375 11.863281 -24.753906 11.84375 -24.203125 C 11.820312 -23.648438 11.800781 -23.050781 11.78125 -22.40625 C 11.757812 -21.757812 11.726562 -21.1875 11.6875 -20.6875 C 11.6875 -20.445312 11.75 -20.328125 11.875 -20.328125 C 12.5 -21.148438 13.203125 -21.910156 13.984375 -22.609375 C 14.765625 -23.316406 15.59375 -23.90625 16.46875 -24.375 C 17.351562 -24.851562 18.25 -25.09375 19.15625 -25.09375 C 20.289062 -25.09375 21.140625 -24.851562 21.703125 -24.375 C 22.273438 -23.90625 22.5625 -23.320312 22.5625 -22.625 C 22.5625 -22.070312 22.410156 -21.484375 22.109375 -20.859375 C 21.816406 -20.234375 21.445312 -19.691406 21 -19.234375 C 20.550781 -18.785156 20.050781 -18.5625 19.5 -18.5625 C 19.1875 -18.5625 18.851562 -18.628906 18.5 -18.765625 C 18.15625 -18.898438 17.804688 -19.066406 17.453125 -19.265625 C 17.097656 -19.421875 16.734375 -19.578125 16.359375 -19.734375 C 15.984375 -19.890625 15.640625 -19.96875 15.328125 -19.96875 C 14.347656 -19.96875 13.46875 -19.601562 12.6875 -18.875 C 11.90625 -18.15625 11.515625 -16.738281 11.515625 -14.625 L 11.515625 -4.28125 C 11.515625 -3.582031 11.769531 -3.046875 12.28125 -2.671875 C 12.789062 -2.296875 13.570312 -1.953125 14.625 -1.640625 C 15.0625 -1.523438 15.382812 -1.398438 15.59375 -1.265625 C 15.8125 -1.128906 15.921875 -0.90625 15.921875 -0.59375 C 15.921875 -0.0820312 15.566406 0.171875 14.859375 0.171875 C 13.679688 0.171875 12.570312 0.117188 11.53125 0.015625 C 10.5 -0.078125 9.472656 -0.125 8.453125 -0.125 C 7.796875 -0.125 7.160156 -0.101562 6.546875 -0.0625 C 5.941406 -0.0195312 5.328125 0.0234375 4.703125 0.078125 C 4.078125 0.140625 3.367188 0.171875 2.578125 0.171875 Z M 2.578125 0.171875 "/></g></g><g style="fill:#000000;fill-opacity:1;"><g transform="translate(171.31886, 207.834744)"><path style="stroke:none" d="M 12.453125 0.828125 C 10.296875 0.828125 8.394531 0.28125 6.75 -0.8125 C 5.101562 -1.914062 3.8125 -3.4375 2.875 -5.375 C 1.9375 -7.3125 1.46875 -9.515625 1.46875 -11.984375 C 1.46875 -14.367188 2.023438 -16.550781 3.140625 -18.53125 C 4.253906 -20.507812 5.75 -22.085938 7.625 -23.265625 C 9.507812 -24.441406 11.570312 -25.03125 13.8125 -25.03125 C 15.457031 -25.03125 16.925781 -24.6875 18.21875 -24 C 19.507812 -23.3125 20.535156 -22.367188 21.296875 -21.171875 C 22.054688 -19.984375 22.4375 -18.644531 22.4375 -17.15625 C 22.4375 -15.75 21.832031 -15.046875 20.625 -15.046875 L 8.6875 -15.046875 C 8.144531 -15.046875 7.742188 -14.894531 7.484375 -14.59375 C 7.234375 -14.300781 7.109375 -13.765625 7.109375 -12.984375 C 7.109375 -11.335938 7.46875 -9.847656 8.1875 -8.515625 C 8.914062 -7.179688 9.882812 -6.125 11.09375 -5.34375 C 12.3125 -4.5625 13.707031 -4.171875 15.28125 -4.171875 C 16.414062 -4.171875 17.460938 -4.394531 18.421875 -4.84375 C 19.378906 -5.289062 20.289062 -5.910156 21.15625 -6.703125 C 21.3125 -6.816406 21.445312 -6.921875 21.5625 -7.015625 C 21.675781 -7.117188 21.789062 -7.171875 21.90625 -7.171875 C 22.300781 -7.171875 22.5 -6.9375 22.5 -6.46875 C 22.5 -5.914062 22.265625 -5.25 21.796875 -4.46875 C 21.328125 -3.5625 20.648438 -2.695312 19.765625 -1.875 C 18.890625 -1.050781 17.820312 -0.394531 16.5625 0.09375 C 15.3125 0.582031 13.941406 0.828125 12.453125 0.828125 Z M 8.6875 -17.328125 L 12.859375 -17.328125 C 13.878906 -17.328125 14.644531 -17.347656 15.15625 -17.390625 C 15.664062 -17.429688 16.15625 -17.507812 16.625 -17.625 C 16.820312 -17.664062 16.957031 -17.832031 17.03125 -18.125 C 17.113281 -18.414062 17.15625 -18.757812 17.15625 -19.15625 C 17.15625 -20.207031 16.753906 -21.09375 15.953125 -21.8125 C 15.148438 -22.539062 14.160156 -22.90625 12.984375 -22.90625 C 12.160156 -22.90625 11.359375 -22.660156 10.578125 -22.171875 C 9.796875 -21.679688 9.148438 -21.066406 8.640625 -20.328125 C 8.128906 -19.585938 7.894531 -18.820312 7.9375 -18.03125 C 7.9375 -17.5625 8.1875 -17.328125 8.6875 -17.328125 Z M 8.6875 -17.328125 "/></g></g><g style="fill:#000000;fill-opacity:1;"><g transform="translate(192.057217, 207.834744)"><path style="stroke:none" d="M 2.46875 0.171875 C 2.15625 0.171875 1.878906 0.101562 1.640625 -0.03125 C 1.410156 -0.164062 1.296875 -0.351562 1.296875 -0.59375 C 1.296875 -0.90625 1.421875 -1.140625 1.671875 -1.296875 C 1.929688 -1.453125 2.253906 -1.585938 2.640625 -1.703125 C 3.234375 -1.859375 3.773438 -2.070312 4.265625 -2.34375 C 4.753906 -2.625 5 -3.15625 5 -3.9375 L 5 -17.09375 C 5 -18 4.867188 -18.773438 4.609375 -19.421875 C 4.359375 -20.066406 3.820312 -20.488281 3 -20.6875 C 2.84375 -20.757812 2.703125 -20.863281 2.578125 -21 C 2.460938 -21.132812 2.40625 -21.359375 2.40625 -21.671875 C 2.40625 -22.179688 2.582031 -22.476562 2.9375 -22.5625 C 4.3125 -22.875 5.671875 -23.289062 7.015625 -23.8125 C 8.367188 -24.34375 9.554688 -24.90625 10.578125 -25.5 C 10.734375 -25.570312 10.890625 -25.664062 11.046875 -25.78125 C 11.203125 -25.90625 11.359375 -25.96875 11.515625 -25.96875 C 11.710938 -25.96875 11.835938 -25.898438 11.890625 -25.765625 C 11.953125 -25.628906 11.984375 -25.484375 11.984375 -25.328125 C 11.984375 -25.046875 11.929688 -24.53125 11.828125 -23.78125 C 11.734375 -23.039062 11.6875 -22.398438 11.6875 -21.859375 C 11.6875 -21.703125 11.695312 -21.535156 11.71875 -21.359375 C 11.738281 -21.179688 11.769531 -21.070312 11.8125 -21.03125 C 13.144531 -22.28125 14.523438 -23.257812 15.953125 -23.96875 C 17.378906 -24.675781 18.992188 -25.03125 20.796875 -25.03125 C 22.796875 -25.03125 24.46875 -24.265625 25.8125 -22.734375 C 27.164062 -21.203125 27.84375 -19.1875 27.84375 -16.6875 L 27.84375 -3.875 C 27.84375 -3.09375 28.078125 -2.582031 28.546875 -2.34375 C 29.015625 -2.113281 29.546875 -1.898438 30.140625 -1.703125 C 30.453125 -1.585938 30.742188 -1.441406 31.015625 -1.265625 C 31.296875 -1.085938 31.4375 -0.84375 31.4375 -0.53125 C 31.4375 -0.289062 31.304688 -0.113281 31.046875 0 C 30.796875 0.113281 30.550781 0.171875 30.3125 0.171875 C 29.53125 0.171875 28.84375 0.140625 28.25 0.078125 C 27.664062 0.0234375 27.085938 -0.0195312 26.515625 -0.0625 C 25.953125 -0.101562 25.316406 -0.125 24.609375 -0.125 C 23.953125 -0.125 23.328125 -0.101562 22.734375 -0.0625 C 22.148438 -0.0195312 21.550781 0.0234375 20.9375 0.078125 C 20.332031 0.140625 19.640625 0.171875 18.859375 0.171875 C 18.660156 0.171875 18.441406 0.113281 18.203125 0 C 17.972656 -0.113281 17.859375 -0.289062 17.859375 -0.53125 C 17.859375 -0.84375 17.972656 -1.085938 18.203125 -1.265625 C 18.441406 -1.441406 18.71875 -1.585938 19.03125 -1.703125 C 19.625 -1.898438 20.144531 -2.113281 20.59375 -2.34375 C 21.039062 -2.582031 21.265625 -3.09375 21.265625 -3.875 L 21.265625 -15.796875 C 21.265625 -17.367188 20.878906 -18.601562 20.109375 -19.5 C 19.347656 -20.40625 18.320312 -20.859375 17.03125 -20.859375 C 15.976562 -20.859375 15.054688 -20.703125 14.265625 -20.390625 C 13.484375 -20.078125 12.722656 -19.625 11.984375 -19.03125 C 11.828125 -18.914062 11.707031 -18.75 11.625 -18.53125 C 11.550781 -18.320312 11.515625 -18.097656 11.515625 -17.859375 L 11.515625 -3.875 C 11.515625 -3.09375 11.738281 -2.570312 12.1875 -2.3125 C 12.632812 -2.0625 13.15625 -1.859375 13.75 -1.703125 C 14.570312 -1.429688 14.984375 -1.0625 14.984375 -0.59375 C 14.984375 -0.351562 14.882812 -0.164062 14.6875 -0.03125 C 14.488281 0.101562 14.234375 0.171875 13.921875 0.171875 C 13.140625 0.171875 12.453125 0.140625 11.859375 0.078125 C 11.273438 0.0234375 10.707031 -0.0195312 10.15625 -0.0625 C 9.613281 -0.101562 8.988281 -0.125 8.28125 -0.125 C 7.613281 -0.125 6.984375 -0.101562 6.390625 -0.0625 C 5.804688 -0.0195312 5.203125 0.0234375 4.578125 0.078125 C 3.953125 0.140625 3.25 0.171875 2.46875 0.171875 Z M 2.46875 0.171875 "/></g></g><g style="fill:#000000;fill-opacity:1;"><g transform="translate(221.314388, 207.834744)"><path style="stroke:none" d="M 21.03125 1.109375 C 20.914062 1.109375 20.75 1 20.53125 0.78125 C 20.3125 0.570312 20.203125 0.410156 20.203125 0.296875 C 20.285156 -0.253906 20.351562 -0.832031 20.40625 -1.4375 C 20.46875 -2.039062 20.519531 -2.5625 20.5625 -3 L 20.5625 -3.34375 C 19.820312 -2.25 18.773438 -1.28125 17.421875 -0.4375 C 16.066406 0.40625 14.53125 0.828125 12.8125 0.828125 C 10.613281 0.828125 8.671875 0.269531 6.984375 -0.84375 C 5.304688 -1.96875 3.988281 -3.457031 3.03125 -5.3125 C 2.070312 -7.175781 1.59375 -9.1875 1.59375 -11.34375 C 1.59375 -13.882812 2.164062 -16.179688 3.3125 -18.234375 C 4.46875 -20.296875 6.082031 -21.921875 8.15625 -23.109375 C 10.238281 -24.304688 12.648438 -24.90625 15.390625 -24.90625 C 16.054688 -24.90625 16.734375 -24.851562 17.421875 -24.75 C 18.109375 -24.65625 18.707031 -24.53125 19.21875 -24.375 C 19.6875 -24.257812 19.9375 -24.203125 19.96875 -24.203125 C 20.164062 -24.203125 20.265625 -24.535156 20.265625 -25.203125 L 20.265625 -32.609375 C 20.265625 -34.097656 20.066406 -35.132812 19.671875 -35.71875 C 19.285156 -36.300781 18.660156 -36.675781 17.796875 -36.84375 C 17.367188 -36.957031 17.15625 -37.25 17.15625 -37.71875 C 17.15625 -38.144531 17.351562 -38.421875 17.75 -38.546875 C 19.269531 -38.890625 20.707031 -39.285156 22.0625 -39.734375 C 23.414062 -40.191406 24.519531 -40.613281 25.375 -41 C 25.769531 -41.164062 26.054688 -41.273438 26.234375 -41.328125 C 26.410156 -41.390625 26.519531 -41.421875 26.5625 -41.421875 C 26.945312 -41.421875 27.140625 -41.222656 27.140625 -40.828125 C 27.140625 -40.828125 27.117188 -40.59375 27.078125 -40.125 C 27.046875 -39.65625 27 -39.019531 26.9375 -38.21875 C 26.875 -37.414062 26.828125 -36.503906 26.796875 -35.484375 L 26.609375 -6.875 C 26.609375 -5.539062 26.707031 -4.578125 26.90625 -3.984375 C 27.101562 -3.398438 27.4375 -3.109375 27.90625 -3.109375 C 28.101562 -3.109375 28.359375 -3.117188 28.671875 -3.140625 C 28.984375 -3.160156 29.53125 -3.210938 30.3125 -3.296875 C 30.90625 -3.328125 31.203125 -3.128906 31.203125 -2.703125 C 31.203125 -2.390625 31.09375 -2.082031 30.875 -1.78125 C 30.65625 -1.488281 30.445312 -1.34375 30.25 -1.34375 C 28.925781 -1.1875 27.578125 -0.929688 26.203125 -0.578125 C 24.828125 -0.234375 23.4375 0.210938 22.03125 0.765625 C 21.757812 0.878906 21.550781 0.960938 21.40625 1.015625 C 21.269531 1.078125 21.144531 1.109375 21.03125 1.109375 Z M 15.515625 -2.875 C 16.253906 -2.875 17.070312 -3.0625 17.96875 -3.4375 C 18.875 -3.8125 19.640625 -4.332031 20.265625 -5 L 20.265625 -17.21875 C 20.265625 -18.039062 19.988281 -18.851562 19.4375 -19.65625 C 18.894531 -20.457031 18.171875 -21.117188 17.265625 -21.640625 C 16.367188 -22.171875 15.410156 -22.4375 14.390625 -22.4375 C 13.453125 -22.4375 12.53125 -22.09375 11.625 -21.40625 C 10.726562 -20.726562 9.972656 -19.679688 9.359375 -18.265625 C 8.753906 -16.859375 8.453125 -15.054688 8.453125 -12.859375 C 8.453125 -11.054688 8.675781 -9.519531 9.125 -8.25 C 9.582031 -6.976562 10.160156 -5.953125 10.859375 -5.171875 C 11.566406 -4.390625 12.332031 -3.8125 13.15625 -3.4375 C 13.976562 -3.0625 14.765625 -2.875 15.515625 -2.875 Z M 15.515625 -2.875 "/></g></g><g style="fill:#000000;fill-opacity:1;"><g transform="translate(249.63155, 207.834744)"><path style="stroke:none" d="M 2.34375 0.171875 C 2.03125 0.171875 1.773438 0.101562 1.578125 -0.03125 C 1.390625 -0.164062 1.296875 -0.351562 1.296875 -0.59375 C 1.296875 -0.90625 1.410156 -1.140625 1.640625 -1.296875 C 1.878906 -1.453125 2.15625 -1.566406 2.46875 -1.640625 C 3.40625 -1.878906 4.078125 -2.132812 4.484375 -2.40625 C 4.898438 -2.675781 5.109375 -3.144531 5.109375 -3.8125 L 5.109375 -16.5625 C 5.109375 -17.820312 4.910156 -18.765625 4.515625 -19.390625 C 4.128906 -20.015625 3.46875 -20.40625 2.53125 -20.5625 C 2.332031 -20.601562 2.171875 -20.710938 2.046875 -20.890625 C 1.929688 -21.066406 1.875 -21.269531 1.875 -21.5 C 1.875 -22.050781 2.09375 -22.347656 2.53125 -22.390625 C 4.40625 -22.773438 6.035156 -23.3125 7.421875 -24 C 8.816406 -24.6875 9.890625 -25.222656 10.640625 -25.609375 C 11.179688 -25.890625 11.53125 -26.03125 11.6875 -26.03125 C 12.125 -26.03125 12.34375 -25.832031 12.34375 -25.4375 C 12.300781 -24.882812 12.21875 -24.128906 12.09375 -23.171875 C 11.976562 -22.210938 11.867188 -21.191406 11.765625 -20.109375 C 11.671875 -19.035156 11.625 -18.03125 11.625 -17.09375 L 11.625 -3.875 C 11.625 -3.289062 11.835938 -2.84375 12.265625 -2.53125 C 12.703125 -2.21875 13.390625 -1.921875 14.328125 -1.640625 C 14.648438 -1.523438 14.925781 -1.398438 15.15625 -1.265625 C 15.394531 -1.128906 15.515625 -0.90625 15.515625 -0.59375 C 15.515625 -0.113281 15.179688 0.125 14.515625 0.125 C 13.765625 0.125 13.046875 0.101562 12.359375 0.0625 C 11.679688 0.0195312 11.019531 -0.0195312 10.375 -0.0625 C 9.726562 -0.101562 9.050781 -0.125 8.34375 -0.125 C 7.675781 -0.125 7.03125 -0.101562 6.40625 -0.0625 C 5.78125 -0.0195312 5.144531 0.0234375 4.5 0.078125 C 3.851562 0.140625 3.132812 0.171875 2.34375 0.171875 Z M 8.21875 -29.4375 C 7.082031 -29.4375 6.125 -29.828125 5.34375 -30.609375 C 4.5625 -31.390625 4.171875 -32.328125 4.171875 -33.421875 C 4.171875 -34.640625 4.5625 -35.640625 5.34375 -36.421875 C 6.125 -37.203125 7.082031 -37.59375 8.21875 -37.59375 C 9.394531 -37.59375 10.375 -37.203125 11.15625 -36.421875 C 11.9375 -35.640625 12.328125 -34.640625 12.328125 -33.421875 C 12.328125 -32.328125 11.9375 -31.390625 11.15625 -30.609375 C 10.375 -29.828125 9.394531 -29.4375 8.21875 -29.4375 Z M 8.21875 -29.4375 "/></g></g><g style="fill:#000000;fill-opacity:1;"><g transform="translate(262.791103, 207.834744)"><path style="stroke:none" d="M 2.171875 15.859375 C 1.941406 15.859375 1.6875 15.800781 1.40625 15.6875 C 1.132812 15.570312 1 15.375 1 15.09375 C 1 14.78125 1.132812 14.546875 1.40625 14.390625 C 1.6875 14.234375 2 14.097656 2.34375 13.984375 C 3.09375 13.742188 3.671875 13.476562 4.078125 13.1875 C 4.492188 12.894531 4.703125 12.414062 4.703125 11.75 L 4.703125 -16.984375 C 4.703125 -17.367188 4.601562 -17.828125 4.40625 -18.359375 C 4.207031 -18.890625 3.921875 -19.378906 3.546875 -19.828125 C 3.179688 -20.273438 2.703125 -20.539062 2.109375 -20.625 C 1.921875 -20.695312 1.773438 -20.800781 1.671875 -20.9375 C 1.578125 -21.082031 1.53125 -21.3125 1.53125 -21.625 C 1.53125 -21.894531 1.578125 -22.097656 1.671875 -22.234375 C 1.773438 -22.367188 1.90625 -22.457031 2.0625 -22.5 C 3.46875 -22.8125 4.875 -23.210938 6.28125 -23.703125 C 7.695312 -24.191406 8.929688 -24.671875 9.984375 -25.140625 C 10.097656 -25.179688 10.210938 -25.25 10.328125 -25.34375 C 10.453125 -25.445312 10.570312 -25.5 10.6875 -25.5 C 10.882812 -25.5 11.007812 -25.429688 11.0625 -25.296875 C 11.125 -25.160156 11.15625 -24.992188 11.15625 -24.796875 C 11.15625 -24.484375 11.109375 -23.960938 11.015625 -23.234375 C 10.921875 -22.515625 10.875 -21.898438 10.875 -21.390625 C 10.875 -20.992188 10.910156 -20.773438 10.984375 -20.734375 C 11.378906 -21.128906 12.070312 -21.648438 13.0625 -22.296875 C 14.0625 -22.941406 15.21875 -23.519531 16.53125 -24.03125 C 17.84375 -24.539062 19.109375 -24.796875 20.328125 -24.796875 C 22.398438 -24.796875 24.171875 -24.234375 25.640625 -23.109375 C 27.109375 -21.992188 28.234375 -20.566406 29.015625 -18.828125 C 29.804688 -17.085938 30.203125 -15.273438 30.203125 -13.390625 C 30.203125 -11.585938 29.859375 -9.832031 29.171875 -8.125 C 28.484375 -6.425781 27.507812 -4.890625 26.25 -3.515625 C 25 -2.148438 23.5625 -1.054688 21.9375 -0.234375 C 20.3125 0.585938 18.5625 1 16.6875 1 C 16.21875 1 15.660156 0.929688 15.015625 0.796875 C 14.367188 0.660156 13.722656 0.484375 13.078125 0.265625 C 12.429688 0.046875 11.867188 -0.195312 11.390625 -0.46875 C 11.359375 -0.46875 11.320312 -0.359375 11.28125 -0.140625 C 11.238281 0.0664062 11.207031 0.304688 11.1875 0.578125 C 11.164062 0.859375 11.15625 1.078125 11.15625 1.234375 L 11.15625 11.390625 C 11.15625 11.898438 11.3125 12.320312 11.625 12.65625 C 11.945312 12.988281 12.34375 13.253906 12.8125 13.453125 C 13.28125 13.648438 13.804688 13.828125 14.390625 13.984375 C 14.785156 14.097656 15.097656 14.234375 15.328125 14.390625 C 15.566406 14.546875 15.6875 14.78125 15.6875 15.09375 C 15.6875 15.332031 15.566406 15.519531 15.328125 15.65625 C 15.097656 15.789062 14.863281 15.859375 14.625 15.859375 C 13.445312 15.859375 12.300781 15.804688 11.1875 15.703125 C 10.070312 15.609375 9.003906 15.5625 7.984375 15.5625 C 7.316406 15.5625 6.691406 15.582031 6.109375 15.625 C 5.523438 15.664062 4.914062 15.710938 4.28125 15.765625 C 3.65625 15.828125 2.953125 15.859375 2.171875 15.859375 Z M 16.859375 -1.46875 C 17.328125 -1.46875 17.914062 -1.632812 18.625 -1.96875 C 19.332031 -2.300781 20.023438 -2.835938 20.703125 -3.578125 C 21.390625 -4.328125 21.957031 -5.347656 22.40625 -6.640625 C 22.863281 -7.929688 23.09375 -9.515625 23.09375 -11.390625 C 23.09375 -13.546875 22.851562 -15.28125 22.375 -16.59375 C 21.90625 -17.90625 21.316406 -18.894531 20.609375 -19.5625 C 19.910156 -20.226562 19.195312 -20.664062 18.46875 -20.875 C 17.75 -21.09375 17.113281 -21.203125 16.5625 -21.203125 C 15.78125 -21.203125 14.976562 -21.035156 14.15625 -20.703125 C 13.332031 -20.367188 12.644531 -19.976562 12.09375 -19.53125 C 11.550781 -19.082031 11.28125 -18.703125 11.28125 -18.390625 C 11.28125 -17.835938 11.28125 -17.117188 11.28125 -16.234375 C 11.28125 -15.359375 11.269531 -14.421875 11.25 -13.421875 C 11.226562 -12.421875 11.207031 -11.507812 11.1875 -10.6875 C 11.164062 -9.863281 11.15625 -9.28125 11.15625 -8.9375 C 11.15625 -7.789062 11.410156 -6.640625 11.921875 -5.484375 C 12.429688 -4.335938 13.117188 -3.378906 13.984375 -2.609375 C 14.847656 -1.847656 15.804688 -1.46875 16.859375 -1.46875 Z M 16.859375 -1.46875 "/></g></g><g style="fill:#000000;fill-opacity:1;"><g transform="translate(291.284508, 207.834744)"><path style="stroke:none" d="M 2.34375 0.171875 C 2.03125 0.171875 1.773438 0.101562 1.578125 -0.03125 C 1.390625 -0.164062 1.296875 -0.351562 1.296875 -0.59375 C 1.296875 -0.90625 1.410156 -1.140625 1.640625 -1.296875 C 1.878906 -1.453125 2.15625 -1.566406 2.46875 -1.640625 C 3.40625 -1.878906 4.078125 -2.132812 4.484375 -2.40625 C 4.898438 -2.675781 5.109375 -3.144531 5.109375 -3.8125 L 5.109375 -16.5625 C 5.109375 -17.820312 4.910156 -18.765625 4.515625 -19.390625 C 4.128906 -20.015625 3.46875 -20.40625 2.53125 -20.5625 C 2.332031 -20.601562 2.171875 -20.710938 2.046875 -20.890625 C 1.929688 -21.066406 1.875 -21.269531 1.875 -21.5 C 1.875 -22.050781 2.09375 -22.347656 2.53125 -22.390625 C 4.40625 -22.773438 6.035156 -23.3125 7.421875 -24 C 8.816406 -24.6875 9.890625 -25.222656 10.640625 -25.609375 C 11.179688 -25.890625 11.53125 -26.03125 11.6875 -26.03125 C 12.125 -26.03125 12.34375 -25.832031 12.34375 -25.4375 C 12.300781 -24.882812 12.21875 -24.128906 12.09375 -23.171875 C 11.976562 -22.210938 11.867188 -21.191406 11.765625 -20.109375 C 11.671875 -19.035156 11.625 -18.03125 11.625 -17.09375 L 11.625 -3.875 C 11.625 -3.289062 11.835938 -2.84375 12.265625 -2.53125 C 12.703125 -2.21875 13.390625 -1.921875 14.328125 -1.640625 C 14.648438 -1.523438 14.925781 -1.398438 15.15625 -1.265625 C 15.394531 -1.128906 15.515625 -0.90625 15.515625 -0.59375 C 15.515625 -0.113281 15.179688 0.125 14.515625 0.125 C 13.765625 0.125 13.046875 0.101562 12.359375 0.0625 C 11.679688 0.0195312 11.019531 -0.0195312 10.375 -0.0625 C 9.726562 -0.101562 9.050781 -0.125 8.34375 -0.125 C 7.675781 -0.125 7.03125 -0.101562 6.40625 -0.0625 C 5.78125 -0.0195312 5.144531 0.0234375 4.5 0.078125 C 3.851562 0.140625 3.132812 0.171875 2.34375 0.171875 Z M 8.21875 -29.4375 C 7.082031 -29.4375 6.125 -29.828125 5.34375 -30.609375 C 4.5625 -31.390625 4.171875 -32.328125 4.171875 -33.421875 C 4.171875 -34.640625 4.5625 -35.640625 5.34375 -36.421875 C 6.125 -37.203125 7.082031 -37.59375 8.21875 -37.59375 C 9.394531 -37.59375 10.375 -37.203125 11.15625 -36.421875 C 11.9375 -35.640625 12.328125 -34.640625 12.328125 -33.421875 C 12.328125 -32.328125 11.9375 -31.390625 11.15625 -30.609375 C 10.375 -29.828125 9.394531 -29.4375 8.21875 -29.4375 Z M 8.21875 -29.4375 "/></g></g><g style="fill:#000000;fill-opacity:1;"><g transform="translate(304.444071, 207.834744)"><path style="stroke:none" d="M 12.28125 0.828125 C 9.925781 0.828125 8.140625 0.203125 6.921875 -1.046875 C 5.710938 -2.304688 5.109375 -4.128906 5.109375 -6.515625 L 5.109375 -20.09375 C 5.109375 -20.40625 4.976562 -20.640625 4.71875 -20.796875 C 4.46875 -20.953125 3.972656 -21.050781 3.234375 -21.09375 L 2.578125 -21.09375 C 2.347656 -21.09375 2.15625 -21.273438 2 -21.640625 C 1.84375 -22.015625 1.765625 -22.378906 1.765625 -22.734375 C 1.765625 -22.816406 1.789062 -22.925781 1.84375 -23.0625 C 1.90625 -23.195312 1.992188 -23.285156 2.109375 -23.328125 C 3.015625 -23.710938 3.9375 -24.25 4.875 -24.9375 C 5.8125 -25.625 6.691406 -26.328125 7.515625 -27.046875 C 8.335938 -27.773438 9.023438 -28.394531 9.578125 -28.90625 C 9.847656 -29.101562 10.070312 -29.28125 10.25 -29.4375 C 10.425781 -29.59375 10.632812 -29.671875 10.875 -29.671875 C 11.1875 -29.671875 11.429688 -29.597656 11.609375 -29.453125 C 11.785156 -29.316406 11.832031 -29.054688 11.75 -28.671875 L 11.390625 -25.4375 C 11.359375 -24.96875 11.46875 -24.65625 11.71875 -24.5 C 11.976562 -24.34375 12.34375 -24.265625 12.8125 -24.265625 L 19.734375 -24.265625 C 19.859375 -24.265625 19.976562 -24.125 20.09375 -23.84375 C 20.207031 -23.570312 20.265625 -23.300781 20.265625 -23.03125 C 20.265625 -22.519531 20.195312 -22.046875 20.0625 -21.609375 C 19.925781 -21.179688 19.757812 -20.96875 19.5625 -20.96875 L 13.984375 -20.96875 C 13.078125 -20.96875 12.457031 -20.867188 12.125 -20.671875 C 11.789062 -20.484375 11.625 -20.078125 11.625 -19.453125 L 11.625 -8.171875 C 11.625 -6.441406 11.957031 -5.132812 12.625 -4.25 C 13.289062 -3.375 14.234375 -2.9375 15.453125 -2.9375 C 16.546875 -2.9375 17.375 -3.035156 17.9375 -3.234375 C 18.507812 -3.429688 19.03125 -3.664062 19.5 -3.9375 C 19.625 -4.007812 19.722656 -4.046875 19.796875 -4.046875 C 19.992188 -4.046875 20.140625 -3.925781 20.234375 -3.6875 C 20.335938 -3.457031 20.390625 -3.207031 20.390625 -2.9375 C 20.390625 -2.738281 20.003906 -2.328125 19.234375 -1.703125 C 18.472656 -1.078125 17.472656 -0.5 16.234375 0.03125 C 15.003906 0.5625 13.6875 0.828125 12.28125 0.828125 Z M 12.28125 0.828125 "/></g></g><g style="fill:#000000;fill-opacity:1;"><g transform="translate(322.068644, 207.834744)"><path style="stroke:none" d="M 4.578125 16.6875 C 3.640625 16.6875 2.757812 16.378906 1.9375 15.765625 C 1.113281 15.160156 0.703125 14.367188 0.703125 13.390625 C 0.703125 12.648438 0.890625 11.945312 1.265625 11.28125 C 1.640625 10.613281 2.195312 10.28125 2.9375 10.28125 C 3.488281 10.28125 4.046875 10.378906 4.609375 10.578125 C 5.179688 10.773438 5.722656 10.851562 6.234375 10.8125 C 6.703125 10.769531 7.039062 10.660156 7.25 10.484375 C 7.46875 10.304688 7.710938 9.984375 7.984375 9.515625 C 8.296875 8.960938 8.640625 8.363281 9.015625 7.71875 C 9.390625 7.070312 9.78125 6.296875 10.1875 5.390625 C 10.601562 4.492188 11.066406 3.421875 11.578125 2.171875 C 11.929688 1.347656 12.109375 0.566406 12.109375 -0.171875 C 12.109375 -0.640625 12.046875 -1.085938 11.921875 -1.515625 C 11.804688 -1.953125 11.671875 -2.347656 11.515625 -2.703125 L 4.40625 -19.453125 C 4.09375 -20.234375 3.707031 -20.914062 3.25 -21.5 C 2.800781 -22.09375 2.25 -22.484375 1.59375 -22.671875 C 1.238281 -22.828125 0.953125 -22.984375 0.734375 -23.140625 C 0.515625 -23.296875 0.40625 -23.535156 0.40625 -23.859375 C 0.40625 -24.171875 0.5625 -24.351562 0.875 -24.40625 C 1.1875 -24.46875 1.460938 -24.5 1.703125 -24.5 C 2.609375 -24.5 3.332031 -24.476562 3.875 -24.4375 C 4.425781 -24.394531 4.9375 -24.351562 5.40625 -24.3125 C 5.875 -24.28125 6.382812 -24.265625 6.9375 -24.265625 C 7.757812 -24.265625 8.421875 -24.28125 8.921875 -24.3125 C 9.429688 -24.351562 9.96875 -24.394531 10.53125 -24.4375 C 11.101562 -24.476562 11.820312 -24.5 12.6875 -24.5 C 12.957031 -24.5 13.25 -24.445312 13.5625 -24.34375 C 13.882812 -24.25 14.046875 -24.046875 14.046875 -23.734375 C 14.046875 -23.421875 13.867188 -23.175781 13.515625 -23 C 13.160156 -22.820312 12.828125 -22.675781 12.515625 -22.5625 C 12.117188 -22.445312 11.800781 -22.222656 11.5625 -21.890625 C 11.332031 -21.554688 11.21875 -21.070312 11.21875 -20.4375 C 11.21875 -20.164062 11.273438 -19.820312 11.390625 -19.40625 C 11.515625 -19 11.65625 -18.5625 11.8125 -18.09375 L 15.859375 -8.28125 C 15.898438 -8.125 15.976562 -8.046875 16.09375 -8.046875 C 16.132812 -8.046875 16.195312 -8.125 16.28125 -8.28125 L 19.625 -17.859375 C 19.738281 -18.128906 19.84375 -18.488281 19.9375 -18.9375 C 20.039062 -19.394531 20.09375 -19.78125 20.09375 -20.09375 C 20.09375 -20.800781 19.925781 -21.335938 19.59375 -21.703125 C 19.257812 -22.078125 18.894531 -22.34375 18.5 -22.5 C 18.1875 -22.65625 17.851562 -22.820312 17.5 -23 C 17.15625 -23.175781 16.984375 -23.421875 16.984375 -23.734375 C 16.984375 -24.046875 17.148438 -24.25 17.484375 -24.34375 C 17.816406 -24.445312 18.097656 -24.5 18.328125 -24.5 C 19.191406 -24.5 19.914062 -24.457031 20.5 -24.375 C 21.09375 -24.300781 21.78125 -24.265625 22.5625 -24.265625 C 23.070312 -24.265625 23.492188 -24.28125 23.828125 -24.3125 C 24.160156 -24.351562 24.519531 -24.394531 24.90625 -24.4375 C 25.300781 -24.476562 25.789062 -24.5 26.375 -24.5 C 26.613281 -24.5 26.898438 -24.46875 27.234375 -24.40625 C 27.566406 -24.351562 27.734375 -24.171875 27.734375 -23.859375 C 27.734375 -23.535156 27.625 -23.296875 27.40625 -23.140625 C 27.1875 -22.984375 26.90625 -22.828125 26.5625 -22.671875 C 25.894531 -22.484375 25.242188 -22.046875 24.609375 -21.359375 C 23.984375 -20.671875 23.476562 -19.875 23.09375 -18.96875 L 14.625 1.46875 C 14.394531 2.019531 14.082031 2.753906 13.6875 3.671875 C 13.289062 4.585938 12.867188 5.59375 12.421875 6.6875 C 11.972656 7.789062 11.492188 8.929688 10.984375 10.109375 C 10.472656 11.285156 9.984375 12.441406 9.515625 13.578125 C 9.085938 14.585938 8.429688 15.359375 7.546875 15.890625 C 6.671875 16.421875 5.679688 16.6875 4.578125 16.6875 Z M 4.578125 16.6875 "/></g></g><path style=" stroke:none;fill-rule:nonzero;fill:#f4b626;fill-opacity:1;" d="M 52.96875 195.175781 C 50.90625 191.914062 48.992188 187.148438 49.148438 180.847656 C 45.160156 177.71875 39.429688 174.9375 31.171875 173.222656 C 33.035156 182.179688 36.148438 188.164062 39.601562 192.175781 C 45.414062 191.796875 49.863281 193.359375 52.96875 195.175781 "/><g clip-rule="nonzero" clip-path="url(#df154378b2)"><path style=" stroke:none;fill-rule:nonzero;fill:#a9791d;fill-opacity:1;" d="M 61.003906 197.15625 C 65.429688 191.769531 71.789062 178.949219 58 157.921875 C 44.210938 178.949219 50.574219 191.773438 55 197.15625 C 49.980469 193.207031 38.566406 188.03125 20.125 200.121094 C 45.949219 217.058594 58 200.121094 58 200.121094 C 58 200.121094 70.050781 217.058594 95.875 200.121094 C 77.4375 188.035156 66.027344 193.203125 61.003906 197.15625 "/></g><path style=" stroke:none;fill-rule:nonzero;fill:#f4b626;fill-opacity:1;" d="M 76.398438 192.175781 C 79.851562 188.164062 82.964844 182.179688 84.828125 173.222656 C 76.570312 174.9375 70.839844 177.71875 66.851562 180.847656 C 67.007812 187.148438 65.097656 191.914062 63.03125 195.175781 C 66.136719 193.359375 70.585938 191.796875 76.398438 192.175781 "/><path style=" stroke:none;fill-rule:nonzero;fill:#f4b626;fill-opacity:1;" d="M 58 210.132812 C 71.6875 210.132812 84.347656 211.199219 94.703125 213.003906 C 93.992188 212.632812 93.246094 212.320312 92.507812 212.042969 C 90.941406 211.453125 89.332031 210.992188 87.714844 210.582031 C 84.472656 209.792969 81.1875 209.214844 77.886719 208.785156 C 71.289062 207.917969 64.640625 207.601562 58 207.558594 C 51.359375 207.597656 44.714844 207.910156 38.113281 208.78125 C 34.816406 209.210938 31.53125 209.789062 28.285156 210.578125 C 26.671875 210.992188 25.058594 211.449219 23.492188 212.039062 C 22.753906 212.320312 22.007812 212.632812 21.292969 213.003906 C 31.648438 211.199219 44.3125 210.132812 58 210.132812 "/></g></svg>