<svg xmlns="http://www.w3.org/2000/svg" xmlns:xlink="http://www.w3.org/1999/xlink" width="500" zoomAndPan="magnify" viewBox="0 0 375 374.999991" height="500" preserveAspectRatio="xMidYMid meet" version="1.2"><defs><clipPath id="75a95045cd"><path d="M 25.050781 60.65625 L 349.800781 60.65625 L 349.800781 274 L 25.050781 274 Z M 25.050781 60.65625 "/></clipPath></defs><g id="80b0bba4ea"><path style=" stroke:none;fill-rule:nonzero;fill:#f4b626;fill-opacity:1;" d="M 165.789062 220.355469 C 156.949219 206.371094 148.75 185.953125 149.417969 158.933594 C 132.324219 145.523438 107.761719 133.613281 72.382812 126.261719 C 80.359375 164.65625 93.703125 190.304688 108.511719 207.492188 C 133.417969 205.867188 152.484375 212.566406 165.789062 220.355469 "/><g clip-rule="nonzero" clip-path="url(#75a95045cd)"><path style=" stroke:none;fill-rule:nonzero;fill:#a9791d;fill-opacity:1;" d="M 200.222656 228.828125 C 219.199219 205.742188 246.449219 150.796875 187.359375 60.6875 C 128.265625 150.8125 155.535156 205.761719 174.503906 228.839844 C 152.984375 211.917969 104.070312 189.726562 25.035156 241.550781 C 135.714844 314.132812 187.359375 241.550781 187.359375 241.550781 C 187.359375 241.550781 239 314.132812 349.679688 241.550781 C 270.664062 189.738281 221.75 211.902344 200.222656 228.828125 "/></g><path style=" stroke:none;fill-rule:nonzero;fill:#f4b626;fill-opacity:1;" d="M 266.207031 207.492188 C 281.011719 190.304688 294.355469 164.65625 302.335938 126.261719 C 266.953125 133.613281 242.390625 145.523438 225.300781 158.933594 C 225.96875 185.953125 217.765625 206.371094 208.925781 220.355469 C 222.234375 212.566406 241.296875 205.867188 266.207031 207.492188 "/><path style=" stroke:none;fill-rule:nonzero;fill:#f4b626;fill-opacity:1;" d="M 187.359375 284.460938 C 246.019531 284.460938 300.277344 289.023438 344.652344 296.757812 C 341.613281 295.167969 338.414062 293.832031 335.253906 292.632812 C 328.53125 290.105469 321.632812 288.136719 314.703125 286.375 C 300.804688 282.996094 286.726562 280.523438 272.589844 278.679688 C 244.308594 274.953125 215.8125 273.597656 187.359375 273.414062 C 158.894531 273.585938 130.410156 274.933594 102.125 278.660156 C 87.988281 280.503906 73.910156 282.980469 60.007812 286.355469 C 53.082031 288.128906 46.183594 290.097656 39.460938 292.617188 C 36.296875 293.828125 33.09375 295.167969 30.039062 296.761719 C 74.417969 289.023438 128.691406 284.460938 187.359375 284.460938 "/></g></svg>