<svg xmlns="http://www.w3.org/2000/svg" xmlns:xlink="http://www.w3.org/1999/xlink" width="500" zoomAndPan="magnify" viewBox="0 0 375 374.999991" height="500" preserveAspectRatio="xMidYMid meet" version="1.2"><defs><clipPath id="dcecf79d82"><path d="M 28.09375 120.851562 L 54 120.851562 L 54 165 L 28.09375 165 Z M 28.09375 120.851562 "/></clipPath><clipPath id="29fda8c3f7"><path d="M 53 138 L 78 138 L 78 165.308594 L 53 165.308594 Z M 53 138 "/></clipPath><clipPath id="4f01201c3b"><path d="M 18 165.375 L 90.203125 165.375 L 90.203125 209.832031 L 18 209.832031 Z M 18 165.375 "/></clipPath></defs><g id="1e2f9250a3"><g clip-rule="nonzero" clip-path="url(#dcecf79d82)"><path style=" stroke:none;fill-rule:nonzero;fill:#36a03d;fill-opacity:1;" d="M 48.902344 164.691406 C 49.394531 144.007812 40.417969 137.273438 40.417969 137.273438 C 47.328125 142.015625 50.644531 152.339844 51.355469 161.335938 C 63.453125 124.90625 28.105469 120.855469 28.089844 120.855469 C 30.230469 123.792969 29.804688 132.871094 30.253906 137.085938 C 30.804688 142.328125 33.574219 147.199219 37.601562 150.453125 C 40.101562 152.476562 46.972656 156.945312 48.902344 164.691406 "/></g><g clip-rule="nonzero" clip-path="url(#29fda8c3f7)"><path style=" stroke:none;fill-rule:nonzero;fill:#7ecb2a;fill-opacity:1;" d="M 54.285156 164.191406 C 68.027344 156.78125 70.371094 146.925781 70.371094 146.925781 C 69.707031 155.53125 64.007812 161.476562 58.378906 165.300781 C 87.683594 158.15625 75.179688 138.300781 75.179688 138.300781 C 73.585938 140.859375 63.308594 144.863281 60.519531 146.738281 C 51.804688 152.613281 53.121094 160.625 54.285156 164.191406 "/></g><g clip-rule="nonzero" clip-path="url(#4f01201c3b)"><path style=" stroke:none;fill-rule:nonzero;fill:#ff000d;fill-opacity:1;" d="M 80.191406 174.769531 C 80.914062 174.386719 81.71875 174.195312 82.484375 174.195312 C 83.320312 174.195312 84.070312 174.417969 84.636719 174.816406 C 85.207031 175.21875 85.652344 175.78125 85.917969 176.707031 C 86.097656 177.339844 86.167969 177.921875 86.167969 178.472656 C 86.167969 180.402344 85.222656 182.15625 83.589844 183.785156 C 81.976562 185.402344 79.726562 186.757812 77.640625 187.710938 C 77.1875 187.914062 76.757812 188.136719 76.324219 188.355469 C 78.410156 183.492188 79.5625 178.644531 80.191406 174.769531 Z M 84.882812 199.875 L 68.992188 199.875 C 69.964844 198.828125 70.859375 197.730469 71.683594 196.601562 C 74.042969 194.417969 76.367188 192.734375 79.320312 191.382812 C 81.707031 190.289062 84.3125 188.746094 86.429688 186.660156 C 88.53125 184.574219 90.203125 181.804688 90.203125 178.472656 C 90.203125 177.546875 90.074219 176.589844 89.816406 175.636719 C 89.328125 173.859375 88.269531 172.417969 86.941406 171.496094 C 85.605469 170.578125 84.039062 170.160156 82.484375 170.160156 C 81.914062 170.160156 81.332031 170.214844 80.765625 170.332031 C 80.957031 168.125 80.957031 166.785156 80.957031 166.785156 C 80.957031 166.074219 80.421875 165.5 79.75 165.5 L 25.691406 165.5 C 25.027344 165.5 24.488281 166.074219 24.488281 166.785156 C 24.488281 166.785156 24.484375 187.042969 36.464844 199.875 L 20.574219 199.875 C 17.902344 199.875 17.359375 201.320312 19.632812 202.726562 C 24.109375 205.496094 35.621094 209.28125 47.480469 209.28125 L 57.980469 209.28125 C 69.832031 209.28125 81.34375 205.496094 85.820312 202.726562 C 88.09375 201.320312 87.554688 199.875 84.882812 199.875 "/></g><g style="fill:#ffffff;fill-opacity:1;"><g transform="translate(94.563221, 206.530247)"><path style="stroke:none" d="M 13.71875 0.96875 C 11.875 0.96875 10.128906 0.726562 8.484375 0.25 C 6.847656 -0.21875 5.34375 -0.921875 3.96875 -1.859375 C 3.71875 -2.066406 3.484375 -2.289062 3.265625 -2.53125 C 3.054688 -2.769531 2.882812 -3.035156 2.75 -3.328125 C 2.414062 -4.398438 2.179688 -5.710938 2.046875 -7.265625 C 1.921875 -8.828125 1.878906 -10.335938 1.921875 -11.796875 C 1.921875 -12.085938 2.035156 -12.296875 2.265625 -12.421875 C 2.503906 -12.554688 2.796875 -12.625 3.140625 -12.625 C 3.484375 -12.625 3.75 -12.570312 3.9375 -12.46875 C 4.132812 -12.363281 4.273438 -12.160156 4.359375 -11.859375 C 5.296875 -8.648438 6.660156 -6.148438 8.453125 -4.359375 C 10.253906 -2.566406 12.285156 -1.671875 14.546875 -1.671875 C 15.960938 -1.671875 17.160156 -1.988281 18.140625 -2.625 C 19.117188 -3.269531 19.863281 -4.101562 20.375 -5.125 C 20.894531 -6.15625 21.15625 -7.265625 21.15625 -8.453125 C 21.15625 -9.953125 20.882812 -11.191406 20.34375 -12.171875 C 19.8125 -13.160156 19.007812 -14.050781 17.9375 -14.84375 C 16.875 -15.632812 15.53125 -16.476562 13.90625 -17.375 C 12.15625 -18.394531 10.445312 -19.46875 8.78125 -20.59375 C 7.113281 -21.726562 5.742188 -23.078125 4.671875 -24.640625 C 3.609375 -26.203125 3.078125 -28.132812 3.078125 -30.4375 C 3.078125 -32.832031 3.6875 -34.9375 4.90625 -36.75 C 6.125 -38.570312 7.820312 -39.992188 10 -41.015625 C 12.175781 -42.046875 14.695312 -42.5625 17.5625 -42.5625 C 19.144531 -42.5625 20.617188 -42.390625 21.984375 -42.046875 C 23.347656 -41.703125 24.4375 -41.359375 25.25 -41.015625 C 25.71875 -40.847656 26.066406 -40.632812 26.296875 -40.375 C 26.535156 -40.125 26.722656 -39.71875 26.859375 -39.15625 C 27.109375 -38.257812 27.328125 -37.191406 27.515625 -35.953125 C 27.710938 -34.710938 27.8125 -33.410156 27.8125 -32.046875 C 27.8125 -31.535156 27.425781 -31.28125 26.65625 -31.28125 C 26.320312 -31.28125 25.984375 -31.363281 25.640625 -31.53125 C 25.296875 -31.707031 25.082031 -31.941406 25 -32.234375 C 24.226562 -34.710938 23.171875 -36.59375 21.828125 -37.875 C 20.484375 -39.15625 18.828125 -39.796875 16.859375 -39.796875 C 15.535156 -39.796875 14.398438 -39.570312 13.453125 -39.125 C 12.515625 -38.675781 11.769531 -37.992188 11.21875 -37.078125 C 10.664062 -36.160156 10.390625 -34.972656 10.390625 -33.515625 C 10.390625 -32.410156 10.757812 -31.382812 11.5 -30.4375 C 12.25 -29.5 13.296875 -28.582031 14.640625 -27.6875 C 15.992188 -26.789062 17.5 -25.804688 19.15625 -24.734375 C 21.207031 -23.546875 22.925781 -22.34375 24.3125 -21.125 C 25.707031 -19.90625 26.765625 -18.554688 27.484375 -17.078125 C 28.210938 -15.609375 28.578125 -13.867188 28.578125 -11.859375 C 28.578125 -9.035156 27.957031 -6.671875 26.71875 -4.765625 C 25.488281 -2.867188 23.757812 -1.4375 21.53125 -0.46875 C 19.3125 0.488281 16.707031 0.96875 13.71875 0.96875 Z M 13.71875 0.96875 "/></g></g><g style="fill:#ffffff;fill-opacity:1;"><g transform="translate(122.055537, 206.530247)"><path style="stroke:none" d="M 13.59375 0.890625 C 11.238281 0.890625 9.160156 0.296875 7.359375 -0.890625 C 5.566406 -2.085938 4.160156 -3.742188 3.140625 -5.859375 C 2.117188 -7.972656 1.609375 -10.378906 1.609375 -13.078125 C 1.609375 -15.679688 2.210938 -18.0625 3.421875 -20.21875 C 4.640625 -22.375 6.273438 -24.09375 8.328125 -25.375 C 10.378906 -26.65625 12.625 -27.296875 15.0625 -27.296875 C 16.851562 -27.296875 18.453125 -26.921875 19.859375 -26.171875 C 21.273438 -25.429688 22.398438 -24.410156 23.234375 -23.109375 C 24.066406 -21.804688 24.484375 -20.34375 24.484375 -18.71875 C 24.484375 -17.175781 23.820312 -16.40625 22.5 -16.40625 L 9.484375 -16.40625 C 8.890625 -16.40625 8.453125 -16.242188 8.171875 -15.921875 C 7.890625 -15.609375 7.75 -15.023438 7.75 -14.171875 C 7.75 -12.367188 8.144531 -10.738281 8.9375 -9.28125 C 9.726562 -7.832031 10.785156 -6.679688 12.109375 -5.828125 C 13.429688 -4.972656 14.953125 -4.546875 16.671875 -4.546875 C 17.898438 -4.546875 19.035156 -4.789062 20.078125 -5.28125 C 21.128906 -5.78125 22.128906 -6.457031 23.078125 -7.3125 C 23.242188 -7.4375 23.390625 -7.550781 23.515625 -7.65625 C 23.648438 -7.757812 23.78125 -7.8125 23.90625 -7.8125 C 24.332031 -7.8125 24.546875 -7.554688 24.546875 -7.046875 C 24.546875 -6.453125 24.289062 -5.726562 23.78125 -4.875 C 23.269531 -3.882812 22.53125 -2.941406 21.5625 -2.046875 C 20.601562 -1.148438 19.441406 -0.4375 18.078125 0.09375 C 16.710938 0.625 15.21875 0.890625 13.59375 0.890625 Z M 9.484375 -18.90625 L 14.03125 -18.90625 C 15.144531 -18.90625 15.976562 -18.925781 16.53125 -18.96875 C 17.09375 -19.007812 17.628906 -19.097656 18.140625 -19.234375 C 18.347656 -19.273438 18.492188 -19.453125 18.578125 -19.765625 C 18.671875 -20.085938 18.71875 -20.460938 18.71875 -20.890625 C 18.71875 -22.046875 18.28125 -23.019531 17.40625 -23.8125 C 16.53125 -24.601562 15.453125 -25 14.171875 -25 C 13.265625 -25 12.382812 -24.726562 11.53125 -24.1875 C 10.675781 -23.65625 9.972656 -22.984375 9.421875 -22.171875 C 8.867188 -21.359375 8.613281 -20.523438 8.65625 -19.671875 C 8.65625 -19.160156 8.929688 -18.90625 9.484375 -18.90625 Z M 9.484375 -18.90625 "/></g></g><g style="fill:#ffffff;fill-opacity:1;"><g transform="translate(144.677255, 206.530247)"><path style="stroke:none" d="M 2.8125 0.1875 C 2.476562 0.1875 2.179688 0.113281 1.921875 -0.03125 C 1.660156 -0.175781 1.53125 -0.378906 1.53125 -0.640625 C 1.53125 -0.984375 1.671875 -1.238281 1.953125 -1.40625 C 2.234375 -1.582031 2.585938 -1.734375 3.015625 -1.859375 C 3.910156 -2.117188 4.539062 -2.425781 4.90625 -2.78125 C 5.269531 -3.144531 5.453125 -3.648438 5.453125 -4.296875 L 5.453125 -18.71875 C 5.453125 -19.695312 5.3125 -20.515625 5.03125 -21.171875 C 4.75 -21.835938 4.160156 -22.28125 3.265625 -22.5 C 3.097656 -22.582031 2.925781 -22.695312 2.75 -22.84375 C 2.582031 -23 2.5 -23.222656 2.5 -23.515625 C 2.5 -24.078125 2.734375 -24.421875 3.203125 -24.546875 C 4.484375 -24.890625 5.867188 -25.347656 7.359375 -25.921875 C 8.859375 -26.503906 10.125 -27.070312 11.15625 -27.625 C 11.363281 -27.75 11.59375 -27.875 11.84375 -28 C 12.101562 -28.132812 12.300781 -28.203125 12.4375 -28.203125 C 12.78125 -28.203125 12.953125 -27.988281 12.953125 -27.5625 C 12.953125 -27.382812 12.941406 -27 12.921875 -26.40625 C 12.898438 -25.8125 12.875 -25.160156 12.84375 -24.453125 C 12.820312 -23.742188 12.789062 -23.113281 12.75 -22.5625 C 12.75 -22.300781 12.816406 -22.171875 12.953125 -22.171875 C 13.628906 -23.066406 14.394531 -23.898438 15.25 -24.671875 C 16.101562 -25.441406 17.007812 -26.082031 17.96875 -26.59375 C 18.9375 -27.113281 19.910156 -27.375 20.890625 -27.375 C 22.128906 -27.375 23.054688 -27.113281 23.671875 -26.59375 C 24.296875 -26.082031 24.609375 -25.441406 24.609375 -24.671875 C 24.609375 -24.078125 24.445312 -23.4375 24.125 -22.75 C 23.8125 -22.070312 23.40625 -21.484375 22.90625 -20.984375 C 22.414062 -20.492188 21.875 -20.25 21.28125 -20.25 C 20.9375 -20.25 20.570312 -20.320312 20.1875 -20.46875 C 19.800781 -20.625 19.414062 -20.804688 19.03125 -21.015625 C 18.644531 -21.191406 18.25 -21.363281 17.84375 -21.53125 C 17.4375 -21.707031 17.066406 -21.796875 16.734375 -21.796875 C 15.660156 -21.796875 14.695312 -21.398438 13.84375 -20.609375 C 12.988281 -19.816406 12.5625 -18.265625 12.5625 -15.953125 L 12.5625 -4.671875 C 12.5625 -3.910156 12.835938 -3.328125 13.390625 -2.921875 C 13.953125 -2.515625 14.804688 -2.140625 15.953125 -1.796875 C 16.429688 -1.671875 16.785156 -1.53125 17.015625 -1.375 C 17.253906 -1.226562 17.375 -0.984375 17.375 -0.640625 C 17.375 -0.0859375 16.988281 0.1875 16.21875 0.1875 C 14.9375 0.1875 13.726562 0.132812 12.59375 0.03125 C 11.457031 -0.0703125 10.335938 -0.125 9.234375 -0.125 C 8.503906 -0.125 7.804688 -0.101562 7.140625 -0.0625 C 6.484375 -0.0195312 5.8125 0.03125 5.125 0.09375 C 4.445312 0.15625 3.675781 0.1875 2.8125 0.1875 Z M 2.8125 0.1875 "/></g></g><g style="fill:#ffffff;fill-opacity:1;"><g transform="translate(166.017222, 206.530247)"><path style="stroke:none" d="M 13.59375 0.890625 C 11.238281 0.890625 9.160156 0.296875 7.359375 -0.890625 C 5.566406 -2.085938 4.160156 -3.742188 3.140625 -5.859375 C 2.117188 -7.972656 1.609375 -10.378906 1.609375 -13.078125 C 1.609375 -15.679688 2.210938 -18.0625 3.421875 -20.21875 C 4.640625 -22.375 6.273438 -24.09375 8.328125 -25.375 C 10.378906 -26.65625 12.625 -27.296875 15.0625 -27.296875 C 16.851562 -27.296875 18.453125 -26.921875 19.859375 -26.171875 C 21.273438 -25.429688 22.398438 -24.410156 23.234375 -23.109375 C 24.066406 -21.804688 24.484375 -20.34375 24.484375 -18.71875 C 24.484375 -17.175781 23.820312 -16.40625 22.5 -16.40625 L 9.484375 -16.40625 C 8.890625 -16.40625 8.453125 -16.242188 8.171875 -15.921875 C 7.890625 -15.609375 7.75 -15.023438 7.75 -14.171875 C 7.75 -12.367188 8.144531 -10.738281 8.9375 -9.28125 C 9.726562 -7.832031 10.785156 -6.679688 12.109375 -5.828125 C 13.429688 -4.972656 14.953125 -4.546875 16.671875 -4.546875 C 17.898438 -4.546875 19.035156 -4.789062 20.078125 -5.28125 C 21.128906 -5.78125 22.128906 -6.457031 23.078125 -7.3125 C 23.242188 -7.4375 23.390625 -7.550781 23.515625 -7.65625 C 23.648438 -7.757812 23.78125 -7.8125 23.90625 -7.8125 C 24.332031 -7.8125 24.546875 -7.554688 24.546875 -7.046875 C 24.546875 -6.453125 24.289062 -5.726562 23.78125 -4.875 C 23.269531 -3.882812 22.53125 -2.941406 21.5625 -2.046875 C 20.601562 -1.148438 19.441406 -0.4375 18.078125 0.09375 C 16.710938 0.625 15.21875 0.890625 13.59375 0.890625 Z M 9.484375 -18.90625 L 14.03125 -18.90625 C 15.144531 -18.90625 15.976562 -18.925781 16.53125 -18.96875 C 17.09375 -19.007812 17.628906 -19.097656 18.140625 -19.234375 C 18.347656 -19.273438 18.492188 -19.453125 18.578125 -19.765625 C 18.671875 -20.085938 18.71875 -20.460938 18.71875 -20.890625 C 18.71875 -22.046875 18.28125 -23.019531 17.40625 -23.8125 C 16.53125 -24.601562 15.453125 -25 14.171875 -25 C 13.265625 -25 12.382812 -24.726562 11.53125 -24.1875 C 10.675781 -23.65625 9.972656 -22.984375 9.421875 -22.171875 C 8.867188 -21.359375 8.613281 -20.523438 8.65625 -19.671875 C 8.65625 -19.160156 8.929688 -18.90625 9.484375 -18.90625 Z M 9.484375 -18.90625 "/></g></g><g style="fill:#ffffff;fill-opacity:1;"><g transform="translate(188.638939, 206.530247)"><path style="stroke:none" d="M 2.6875 0.1875 C 2.34375 0.1875 2.039062 0.113281 1.78125 -0.03125 C 1.53125 -0.175781 1.40625 -0.378906 1.40625 -0.640625 C 1.40625 -0.984375 1.546875 -1.238281 1.828125 -1.40625 C 2.109375 -1.582031 2.460938 -1.734375 2.890625 -1.859375 C 3.523438 -2.023438 4.109375 -2.257812 4.640625 -2.5625 C 5.179688 -2.863281 5.453125 -3.441406 5.453125 -4.296875 L 5.453125 -18.65625 C 5.453125 -19.632812 5.3125 -20.472656 5.03125 -21.171875 C 4.75 -21.878906 4.160156 -22.34375 3.265625 -22.5625 C 3.097656 -22.644531 2.945312 -22.757812 2.8125 -22.90625 C 2.6875 -23.0625 2.625 -23.3125 2.625 -23.65625 C 2.625 -24.207031 2.816406 -24.523438 3.203125 -24.609375 C 4.703125 -24.953125 6.1875 -25.410156 7.65625 -25.984375 C 9.132812 -26.566406 10.425781 -27.175781 11.53125 -27.8125 C 11.707031 -27.894531 11.878906 -28 12.046875 -28.125 C 12.222656 -28.257812 12.394531 -28.328125 12.5625 -28.328125 C 12.78125 -28.328125 12.921875 -28.25 12.984375 -28.09375 C 13.046875 -27.945312 13.078125 -27.789062 13.078125 -27.625 C 13.078125 -27.320312 13.019531 -26.765625 12.90625 -25.953125 C 12.800781 -25.140625 12.75 -24.4375 12.75 -23.84375 C 12.75 -23.675781 12.757812 -23.492188 12.78125 -23.296875 C 12.800781 -23.109375 12.835938 -22.992188 12.890625 -22.953125 C 14.335938 -24.316406 15.835938 -25.378906 17.390625 -26.140625 C 18.953125 -26.910156 20.71875 -27.296875 22.6875 -27.296875 C 24.863281 -27.296875 26.6875 -26.460938 28.15625 -24.796875 C 29.632812 -23.128906 30.375 -20.929688 30.375 -18.203125 L 30.375 -4.234375 C 30.375 -3.378906 30.628906 -2.820312 31.140625 -2.5625 C 31.660156 -2.300781 32.238281 -2.066406 32.875 -1.859375 C 33.21875 -1.734375 33.539062 -1.570312 33.84375 -1.375 C 34.144531 -1.1875 34.296875 -0.921875 34.296875 -0.578125 C 34.296875 -0.316406 34.15625 -0.125 33.875 0 C 33.59375 0.125 33.328125 0.1875 33.078125 0.1875 C 32.222656 0.1875 31.472656 0.15625 30.828125 0.09375 C 30.191406 0.03125 29.5625 -0.0195312 28.9375 -0.0625 C 28.320312 -0.101562 27.628906 -0.125 26.859375 -0.125 C 26.128906 -0.125 25.441406 -0.101562 24.796875 -0.0625 C 24.160156 -0.0195312 23.507812 0.03125 22.84375 0.09375 C 22.1875 0.15625 21.429688 0.1875 20.578125 0.1875 C 20.359375 0.1875 20.117188 0.125 19.859375 0 C 19.609375 -0.125 19.484375 -0.316406 19.484375 -0.578125 C 19.484375 -0.921875 19.609375 -1.1875 19.859375 -1.375 C 20.117188 -1.570312 20.421875 -1.734375 20.765625 -1.859375 C 21.410156 -2.066406 21.976562 -2.300781 22.46875 -2.5625 C 22.957031 -2.820312 23.203125 -3.378906 23.203125 -4.234375 L 23.203125 -17.234375 C 23.203125 -18.953125 22.785156 -20.300781 21.953125 -21.28125 C 21.117188 -22.257812 20 -22.75 18.59375 -22.75 C 17.4375 -22.75 16.429688 -22.578125 15.578125 -22.234375 C 14.722656 -21.898438 13.890625 -21.410156 13.078125 -20.765625 C 12.898438 -20.640625 12.769531 -20.457031 12.6875 -20.21875 C 12.601562 -19.988281 12.5625 -19.742188 12.5625 -19.484375 L 12.5625 -4.234375 C 12.5625 -3.378906 12.804688 -2.8125 13.296875 -2.53125 C 13.785156 -2.25 14.351562 -2.023438 15 -1.859375 C 15.894531 -1.554688 16.34375 -1.148438 16.34375 -0.640625 C 16.34375 -0.378906 16.234375 -0.175781 16.015625 -0.03125 C 15.804688 0.113281 15.53125 0.1875 15.1875 0.1875 C 14.332031 0.1875 13.582031 0.15625 12.9375 0.09375 C 12.300781 0.03125 11.679688 -0.0195312 11.078125 -0.0625 C 10.484375 -0.101562 9.800781 -0.125 9.03125 -0.125 C 8.3125 -0.125 7.628906 -0.101562 6.984375 -0.0625 C 6.347656 -0.0195312 5.6875 0.03125 5 0.09375 C 4.3125 0.15625 3.539062 0.1875 2.6875 0.1875 Z M 2.6875 0.1875 "/></g></g><g style="fill:#ffffff;fill-opacity:1;"><g transform="translate(220.553266, 206.530247)"><path style="stroke:none" d="M 22.953125 1.21875 C 22.816406 1.21875 22.628906 1.097656 22.390625 0.859375 C 22.160156 0.628906 22.046875 0.453125 22.046875 0.328125 C 22.128906 -0.273438 22.203125 -0.90625 22.265625 -1.5625 C 22.335938 -2.226562 22.394531 -2.796875 22.4375 -3.265625 L 22.4375 -3.65625 C 21.625 -2.457031 20.476562 -1.398438 19 -0.484375 C 17.53125 0.429688 15.851562 0.890625 13.96875 0.890625 C 11.582031 0.890625 9.46875 0.285156 7.625 -0.921875 C 5.789062 -2.140625 4.347656 -3.765625 3.296875 -5.796875 C 2.253906 -7.828125 1.734375 -10.019531 1.734375 -12.375 C 1.734375 -15.144531 2.363281 -17.648438 3.625 -19.890625 C 4.882812 -22.140625 6.644531 -23.914062 8.90625 -25.21875 C 11.175781 -26.519531 13.804688 -27.171875 16.796875 -27.171875 C 17.515625 -27.171875 18.25 -27.117188 19 -27.015625 C 19.75 -26.910156 20.398438 -26.769531 20.953125 -26.59375 C 21.472656 -26.46875 21.753906 -26.40625 21.796875 -26.40625 C 22.003906 -26.40625 22.109375 -26.769531 22.109375 -27.5 L 22.109375 -35.578125 C 22.109375 -37.191406 21.894531 -38.320312 21.46875 -38.96875 C 21.039062 -39.613281 20.359375 -40.019531 19.421875 -40.1875 C 18.953125 -40.3125 18.71875 -40.628906 18.71875 -41.140625 C 18.71875 -41.617188 18.929688 -41.921875 19.359375 -42.046875 C 21.023438 -42.429688 22.59375 -42.867188 24.0625 -43.359375 C 25.539062 -43.847656 26.75 -44.304688 27.6875 -44.734375 C 28.113281 -44.910156 28.421875 -45.03125 28.609375 -45.09375 C 28.804688 -45.15625 28.925781 -45.1875 28.96875 -45.1875 C 29.394531 -45.1875 29.609375 -44.972656 29.609375 -44.546875 C 29.609375 -44.546875 29.585938 -44.285156 29.546875 -43.765625 C 29.503906 -43.253906 29.453125 -42.5625 29.390625 -41.6875 C 29.328125 -40.8125 29.273438 -39.820312 29.234375 -38.71875 L 29.03125 -7.5 C 29.03125 -6.039062 29.132812 -4.988281 29.34375 -4.34375 C 29.5625 -3.707031 29.925781 -3.390625 30.4375 -3.390625 C 30.65625 -3.390625 30.9375 -3.398438 31.28125 -3.421875 C 31.625 -3.453125 32.222656 -3.507812 33.078125 -3.59375 C 33.710938 -3.632812 34.03125 -3.421875 34.03125 -2.953125 C 34.03125 -2.609375 33.910156 -2.273438 33.671875 -1.953125 C 33.441406 -1.628906 33.222656 -1.46875 33.015625 -1.46875 C 31.554688 -1.300781 30.078125 -1.023438 28.578125 -0.640625 C 27.085938 -0.253906 25.570312 0.234375 24.03125 0.828125 C 23.738281 0.960938 23.515625 1.0625 23.359375 1.125 C 23.210938 1.1875 23.078125 1.21875 22.953125 1.21875 Z M 16.921875 -3.140625 C 17.734375 -3.140625 18.628906 -3.34375 19.609375 -3.75 C 20.597656 -4.15625 21.429688 -4.722656 22.109375 -5.453125 L 22.109375 -18.78125 C 22.109375 -19.675781 21.804688 -20.5625 21.203125 -21.4375 C 20.609375 -22.3125 19.820312 -23.035156 18.84375 -23.609375 C 17.863281 -24.191406 16.816406 -24.484375 15.703125 -24.484375 C 14.679688 -24.484375 13.675781 -24.109375 12.6875 -23.359375 C 11.707031 -22.609375 10.882812 -21.460938 10.21875 -19.921875 C 9.5625 -18.390625 9.234375 -16.425781 9.234375 -14.03125 C 9.234375 -12.070312 9.476562 -10.394531 9.96875 -9 C 10.457031 -7.613281 11.085938 -6.492188 11.859375 -5.640625 C 12.628906 -4.785156 13.460938 -4.15625 14.359375 -3.75 C 15.253906 -3.34375 16.109375 -3.140625 16.921875 -3.140625 Z M 16.921875 -3.140625 "/></g></g><g style="fill:#ffffff;fill-opacity:1;"><g transform="translate(251.442202, 206.530247)"><path style="stroke:none" d="M 2.5625 0.1875 C 2.21875 0.1875 1.9375 0.113281 1.71875 -0.03125 C 1.507812 -0.175781 1.40625 -0.378906 1.40625 -0.640625 C 1.40625 -0.984375 1.53125 -1.238281 1.78125 -1.40625 C 2.039062 -1.582031 2.34375 -1.710938 2.6875 -1.796875 C 3.71875 -2.046875 4.457031 -2.320312 4.90625 -2.625 C 5.351562 -2.925781 5.578125 -3.441406 5.578125 -4.171875 L 5.578125 -18.078125 C 5.578125 -19.441406 5.363281 -20.460938 4.9375 -21.140625 C 4.507812 -21.828125 3.78125 -22.257812 2.75 -22.4375 C 2.539062 -22.476562 2.367188 -22.59375 2.234375 -22.78125 C 2.109375 -22.976562 2.046875 -23.203125 2.046875 -23.453125 C 2.046875 -24.054688 2.28125 -24.378906 2.75 -24.421875 C 4.800781 -24.847656 6.585938 -25.429688 8.109375 -26.171875 C 9.628906 -26.921875 10.789062 -27.507812 11.59375 -27.9375 C 12.195312 -28.238281 12.582031 -28.390625 12.75 -28.390625 C 13.21875 -28.390625 13.453125 -28.175781 13.453125 -27.75 C 13.410156 -27.15625 13.328125 -26.332031 13.203125 -25.28125 C 13.078125 -24.238281 12.957031 -23.128906 12.84375 -21.953125 C 12.738281 -20.773438 12.6875 -19.675781 12.6875 -18.65625 L 12.6875 -4.234375 C 12.6875 -3.585938 12.921875 -3.09375 13.390625 -2.75 C 13.859375 -2.414062 14.609375 -2.097656 15.640625 -1.796875 C 15.984375 -1.671875 16.28125 -1.53125 16.53125 -1.375 C 16.789062 -1.226562 16.921875 -0.984375 16.921875 -0.640625 C 16.921875 -0.128906 16.554688 0.125 15.828125 0.125 C 15.015625 0.125 14.234375 0.101562 13.484375 0.0625 C 12.742188 0.0195312 12.019531 -0.0195312 11.3125 -0.0625 C 10.601562 -0.101562 9.863281 -0.125 9.09375 -0.125 C 8.375 -0.125 7.671875 -0.101562 6.984375 -0.0625 C 6.296875 -0.0195312 5.597656 0.03125 4.890625 0.09375 C 4.191406 0.15625 3.414062 0.1875 2.5625 0.1875 Z M 8.96875 -32.109375 C 7.726562 -32.109375 6.679688 -32.535156 5.828125 -33.390625 C 4.972656 -34.242188 4.546875 -35.269531 4.546875 -36.46875 C 4.546875 -37.789062 4.972656 -38.878906 5.828125 -39.734375 C 6.679688 -40.585938 7.726562 -41.015625 8.96875 -41.015625 C 10.25 -41.015625 11.316406 -40.585938 12.171875 -39.734375 C 13.035156 -38.878906 13.46875 -37.789062 13.46875 -36.46875 C 13.46875 -35.269531 13.035156 -34.242188 12.171875 -33.390625 C 11.316406 -32.535156 10.25 -32.109375 8.96875 -32.109375 Z M 8.96875 -32.109375 "/></g></g><g style="fill:#ffffff;fill-opacity:1;"><g transform="translate(265.796687, 206.530247)"><path style="stroke:none" d="M 2.375 17.3125 C 2.113281 17.3125 1.832031 17.242188 1.53125 17.109375 C 1.238281 16.984375 1.09375 16.769531 1.09375 16.46875 C 1.09375 16.125 1.238281 15.867188 1.53125 15.703125 C 1.832031 15.535156 2.175781 15.382812 2.5625 15.25 C 3.375 15 4.003906 14.710938 4.453125 14.390625 C 4.898438 14.066406 5.125 13.539062 5.125 12.8125 L 5.125 -18.515625 C 5.125 -18.941406 5.015625 -19.441406 4.796875 -20.015625 C 4.585938 -20.597656 4.28125 -21.132812 3.875 -21.625 C 3.46875 -22.125 2.945312 -22.414062 2.3125 -22.5 C 2.09375 -22.582031 1.929688 -22.695312 1.828125 -22.84375 C 1.722656 -23 1.671875 -23.25 1.671875 -23.59375 C 1.671875 -23.882812 1.722656 -24.101562 1.828125 -24.25 C 1.929688 -24.40625 2.070312 -24.503906 2.25 -24.546875 C 3.78125 -24.890625 5.316406 -25.328125 6.859375 -25.859375 C 8.398438 -26.390625 9.742188 -26.914062 10.890625 -27.4375 C 11.023438 -27.476562 11.15625 -27.550781 11.28125 -27.65625 C 11.40625 -27.757812 11.535156 -27.8125 11.671875 -27.8125 C 11.878906 -27.8125 12.015625 -27.738281 12.078125 -27.59375 C 12.140625 -27.445312 12.171875 -27.265625 12.171875 -27.046875 C 12.171875 -26.703125 12.117188 -26.132812 12.015625 -25.34375 C 11.910156 -24.550781 11.859375 -23.878906 11.859375 -23.328125 C 11.859375 -22.898438 11.898438 -22.664062 11.984375 -22.625 C 12.410156 -23.050781 13.164062 -23.613281 14.25 -24.3125 C 15.34375 -25.019531 16.601562 -25.648438 18.03125 -26.203125 C 19.46875 -26.765625 20.847656 -27.046875 22.171875 -27.046875 C 24.441406 -27.046875 26.375 -26.4375 27.96875 -25.21875 C 29.570312 -24 30.800781 -22.4375 31.65625 -20.53125 C 32.507812 -18.632812 32.9375 -16.660156 32.9375 -14.609375 C 32.9375 -12.648438 32.5625 -10.738281 31.8125 -8.875 C 31.070312 -7.019531 30.015625 -5.34375 28.640625 -3.84375 C 27.273438 -2.351562 25.707031 -1.15625 23.9375 -0.25 C 22.164062 0.644531 20.253906 1.09375 18.203125 1.09375 C 17.691406 1.09375 17.082031 1.015625 16.375 0.859375 C 15.664062 0.710938 14.957031 0.519531 14.25 0.28125 C 13.550781 0.0507812 12.945312 -0.210938 12.4375 -0.515625 C 12.394531 -0.515625 12.347656 -0.394531 12.296875 -0.15625 C 12.253906 0.0703125 12.222656 0.335938 12.203125 0.640625 C 12.179688 0.941406 12.171875 1.175781 12.171875 1.34375 L 12.171875 12.4375 C 12.171875 12.988281 12.34375 13.445312 12.6875 13.8125 C 13.03125 14.175781 13.457031 14.460938 13.96875 14.671875 C 14.476562 14.890625 15.054688 15.082031 15.703125 15.25 C 16.128906 15.382812 16.46875 15.535156 16.71875 15.703125 C 16.976562 15.867188 17.109375 16.125 17.109375 16.46875 C 17.109375 16.726562 16.976562 16.929688 16.71875 17.078125 C 16.46875 17.234375 16.210938 17.3125 15.953125 17.3125 C 14.671875 17.3125 13.421875 17.253906 12.203125 17.140625 C 10.992188 17.035156 9.832031 16.984375 8.71875 16.984375 C 7.988281 16.984375 7.300781 17.003906 6.65625 17.046875 C 6.019531 17.085938 5.359375 17.140625 4.671875 17.203125 C 3.992188 17.273438 3.226562 17.3125 2.375 17.3125 Z M 18.390625 -1.609375 C 18.898438 -1.609375 19.539062 -1.785156 20.3125 -2.140625 C 21.082031 -2.503906 21.84375 -3.09375 22.59375 -3.90625 C 23.34375 -4.71875 23.960938 -5.828125 24.453125 -7.234375 C 24.941406 -8.648438 25.1875 -10.382812 25.1875 -12.4375 C 25.1875 -14.78125 24.929688 -16.664062 24.421875 -18.09375 C 23.910156 -19.53125 23.269531 -20.613281 22.5 -21.34375 C 21.726562 -22.070312 20.945312 -22.550781 20.15625 -22.78125 C 19.363281 -23.019531 18.671875 -23.140625 18.078125 -23.140625 C 17.222656 -23.140625 16.34375 -22.957031 15.4375 -22.59375 C 14.539062 -22.226562 13.796875 -21.800781 13.203125 -21.3125 C 12.609375 -20.820312 12.3125 -20.40625 12.3125 -20.0625 C 12.3125 -19.457031 12.3125 -18.675781 12.3125 -17.71875 C 12.3125 -16.757812 12.296875 -15.734375 12.265625 -14.640625 C 12.242188 -13.554688 12.222656 -12.5625 12.203125 -11.65625 C 12.179688 -10.757812 12.171875 -10.125 12.171875 -9.75 C 12.171875 -8.507812 12.445312 -7.257812 13 -6 C 13.5625 -4.738281 14.3125 -3.691406 15.25 -2.859375 C 16.195312 -2.023438 17.242188 -1.609375 18.390625 -1.609375 Z M 18.390625 -1.609375 "/></g></g><g style="fill:#ffffff;fill-opacity:1;"><g transform="translate(296.877881, 206.530247)"><path style="stroke:none" d="M 2.5625 0.1875 C 2.21875 0.1875 1.9375 0.113281 1.71875 -0.03125 C 1.507812 -0.175781 1.40625 -0.378906 1.40625 -0.640625 C 1.40625 -0.984375 1.53125 -1.238281 1.78125 -1.40625 C 2.039062 -1.582031 2.34375 -1.710938 2.6875 -1.796875 C 3.71875 -2.046875 4.457031 -2.320312 4.90625 -2.625 C 5.351562 -2.925781 5.578125 -3.441406 5.578125 -4.171875 L 5.578125 -18.078125 C 5.578125 -19.441406 5.363281 -20.460938 4.9375 -21.140625 C 4.507812 -21.828125 3.78125 -22.257812 2.75 -22.4375 C 2.539062 -22.476562 2.367188 -22.59375 2.234375 -22.78125 C 2.109375 -22.976562 2.046875 -23.203125 2.046875 -23.453125 C 2.046875 -24.054688 2.28125 -24.378906 2.75 -24.421875 C 4.800781 -24.847656 6.585938 -25.429688 8.109375 -26.171875 C 9.628906 -26.921875 10.789062 -27.507812 11.59375 -27.9375 C 12.195312 -28.238281 12.582031 -28.390625 12.75 -28.390625 C 13.21875 -28.390625 13.453125 -28.175781 13.453125 -27.75 C 13.410156 -27.15625 13.328125 -26.332031 13.203125 -25.28125 C 13.078125 -24.238281 12.957031 -23.128906 12.84375 -21.953125 C 12.738281 -20.773438 12.6875 -19.675781 12.6875 -18.65625 L 12.6875 -4.234375 C 12.6875 -3.585938 12.921875 -3.09375 13.390625 -2.75 C 13.859375 -2.414062 14.609375 -2.097656 15.640625 -1.796875 C 15.984375 -1.671875 16.28125 -1.53125 16.53125 -1.375 C 16.789062 -1.226562 16.921875 -0.984375 16.921875 -0.640625 C 16.921875 -0.128906 16.554688 0.125 15.828125 0.125 C 15.015625 0.125 14.234375 0.101562 13.484375 0.0625 C 12.742188 0.0195312 12.019531 -0.0195312 11.3125 -0.0625 C 10.601562 -0.101562 9.863281 -0.125 9.09375 -0.125 C 8.375 -0.125 7.671875 -0.101562 6.984375 -0.0625 C 6.296875 -0.0195312 5.597656 0.03125 4.890625 0.09375 C 4.191406 0.15625 3.414062 0.1875 2.5625 0.1875 Z M 8.96875 -32.109375 C 7.726562 -32.109375 6.679688 -32.535156 5.828125 -33.390625 C 4.972656 -34.242188 4.546875 -35.269531 4.546875 -36.46875 C 4.546875 -37.789062 4.972656 -38.878906 5.828125 -39.734375 C 6.679688 -40.585938 7.726562 -41.015625 8.96875 -41.015625 C 10.25 -41.015625 11.316406 -40.585938 12.171875 -39.734375 C 13.035156 -38.878906 13.46875 -37.789062 13.46875 -36.46875 C 13.46875 -35.269531 13.035156 -34.242188 12.171875 -33.390625 C 11.316406 -32.535156 10.25 -32.109375 8.96875 -32.109375 Z M 8.96875 -32.109375 "/></g></g><g style="fill:#ffffff;fill-opacity:1;"><g transform="translate(311.232366, 206.530247)"><path style="stroke:none" d="M 13.390625 0.890625 C 10.828125 0.890625 8.882812 0.207031 7.5625 -1.15625 C 6.238281 -2.519531 5.578125 -4.503906 5.578125 -7.109375 L 5.578125 -21.921875 C 5.578125 -22.265625 5.4375 -22.519531 5.15625 -22.6875 C 4.882812 -22.863281 4.34375 -22.972656 3.53125 -23.015625 L 2.8125 -23.015625 C 2.5625 -23.015625 2.347656 -23.21875 2.171875 -23.625 C 2.003906 -24.03125 1.921875 -24.421875 1.921875 -24.796875 C 1.921875 -24.890625 1.953125 -25.007812 2.015625 -25.15625 C 2.078125 -25.300781 2.175781 -25.394531 2.3125 -25.4375 C 3.289062 -25.875 4.289062 -26.460938 5.3125 -27.203125 C 6.34375 -27.953125 7.304688 -28.722656 8.203125 -29.515625 C 9.097656 -30.304688 9.847656 -30.976562 10.453125 -31.53125 C 10.742188 -31.75 10.984375 -31.941406 11.171875 -32.109375 C 11.367188 -32.285156 11.597656 -32.375 11.859375 -32.375 C 12.203125 -32.375 12.46875 -32.296875 12.65625 -32.140625 C 12.851562 -31.992188 12.90625 -31.707031 12.8125 -31.28125 L 12.4375 -27.75 C 12.394531 -27.238281 12.507812 -26.894531 12.78125 -26.71875 C 13.0625 -26.550781 13.457031 -26.46875 13.96875 -26.46875 L 21.53125 -26.46875 C 21.664062 -26.46875 21.796875 -26.316406 21.921875 -26.015625 C 22.046875 -25.722656 22.109375 -25.425781 22.109375 -25.125 C 22.109375 -24.570312 22.03125 -24.054688 21.875 -23.578125 C 21.726562 -23.109375 21.550781 -22.875 21.34375 -22.875 L 15.25 -22.875 C 14.269531 -22.875 13.597656 -22.765625 13.234375 -22.546875 C 12.867188 -22.335938 12.6875 -21.894531 12.6875 -21.21875 L 12.6875 -8.90625 C 12.6875 -7.03125 13.050781 -5.609375 13.78125 -4.640625 C 14.507812 -3.679688 15.535156 -3.203125 16.859375 -3.203125 C 18.054688 -3.203125 18.960938 -3.304688 19.578125 -3.515625 C 20.203125 -3.734375 20.769531 -3.992188 21.28125 -4.296875 C 21.40625 -4.378906 21.507812 -4.421875 21.59375 -4.421875 C 21.8125 -4.421875 21.972656 -4.289062 22.078125 -4.03125 C 22.179688 -3.78125 22.234375 -3.503906 22.234375 -3.203125 C 22.234375 -2.992188 21.816406 -2.546875 20.984375 -1.859375 C 20.148438 -1.171875 19.0625 -0.539062 17.71875 0.03125 C 16.375 0.601562 14.929688 0.890625 13.390625 0.890625 Z M 13.390625 0.890625 "/></g></g><g style="fill:#ffffff;fill-opacity:1;"><g transform="translate(330.457465, 206.530247)"><path style="stroke:none" d="M 5 18.203125 C 3.976562 18.203125 3.015625 17.867188 2.109375 17.203125 C 1.210938 16.546875 0.765625 15.679688 0.765625 14.609375 C 0.765625 13.796875 0.96875 13.023438 1.375 12.296875 C 1.78125 11.578125 2.390625 11.21875 3.203125 11.21875 C 3.804688 11.21875 4.414062 11.320312 5.03125 11.53125 C 5.644531 11.75 6.234375 11.835938 6.796875 11.796875 C 7.304688 11.753906 7.675781 11.632812 7.90625 11.4375 C 8.144531 11.25 8.414062 10.898438 8.71875 10.390625 C 9.0625 9.785156 9.4375 9.128906 9.84375 8.421875 C 10.25 7.722656 10.675781 6.878906 11.125 5.890625 C 11.570312 4.910156 12.070312 3.738281 12.625 2.375 C 13.007812 1.476562 13.203125 0.625 13.203125 -0.1875 C 13.203125 -0.707031 13.132812 -1.203125 13 -1.671875 C 12.875 -2.140625 12.726562 -2.566406 12.5625 -2.953125 L 4.8125 -21.21875 C 4.46875 -22.070312 4.046875 -22.816406 3.546875 -23.453125 C 3.054688 -24.097656 2.453125 -24.523438 1.734375 -24.734375 C 1.347656 -24.910156 1.035156 -25.082031 0.796875 -25.25 C 0.566406 -25.425781 0.453125 -25.679688 0.453125 -26.015625 C 0.453125 -26.359375 0.617188 -26.5625 0.953125 -26.625 C 1.296875 -26.695312 1.597656 -26.734375 1.859375 -26.734375 C 2.835938 -26.734375 3.625 -26.707031 4.21875 -26.65625 C 4.820312 -26.613281 5.378906 -26.570312 5.890625 -26.53125 C 6.410156 -26.488281 6.96875 -26.46875 7.5625 -26.46875 C 8.457031 -26.46875 9.179688 -26.488281 9.734375 -26.53125 C 10.296875 -26.570312 10.882812 -26.613281 11.5 -26.65625 C 12.125 -26.707031 12.90625 -26.734375 13.84375 -26.734375 C 14.144531 -26.734375 14.460938 -26.675781 14.796875 -26.5625 C 15.140625 -26.457031 15.3125 -26.234375 15.3125 -25.890625 C 15.3125 -25.546875 15.117188 -25.273438 14.734375 -25.078125 C 14.359375 -24.890625 14 -24.734375 13.65625 -24.609375 C 13.226562 -24.484375 12.882812 -24.238281 12.625 -23.875 C 12.363281 -23.507812 12.234375 -22.984375 12.234375 -22.296875 C 12.234375 -22.003906 12.296875 -21.632812 12.421875 -21.1875 C 12.554688 -20.738281 12.710938 -20.253906 12.890625 -19.734375 L 17.3125 -9.03125 C 17.351562 -8.863281 17.4375 -8.78125 17.5625 -8.78125 C 17.601562 -8.78125 17.664062 -8.863281 17.75 -9.03125 L 21.40625 -19.484375 C 21.53125 -19.785156 21.644531 -20.179688 21.75 -20.671875 C 21.863281 -21.160156 21.921875 -21.578125 21.921875 -21.921875 C 21.921875 -22.691406 21.738281 -23.28125 21.375 -23.6875 C 21.007812 -24.09375 20.613281 -24.378906 20.1875 -24.546875 C 19.84375 -24.710938 19.476562 -24.890625 19.09375 -25.078125 C 18.707031 -25.273438 18.515625 -25.546875 18.515625 -25.890625 C 18.515625 -26.234375 18.695312 -26.457031 19.0625 -26.5625 C 19.425781 -26.675781 19.738281 -26.734375 20 -26.734375 C 20.9375 -26.734375 21.722656 -26.6875 22.359375 -26.59375 C 23.003906 -26.507812 23.753906 -26.46875 24.609375 -26.46875 C 25.160156 -26.46875 25.617188 -26.488281 25.984375 -26.53125 C 26.347656 -26.570312 26.742188 -26.613281 27.171875 -26.65625 C 27.597656 -26.707031 28.132812 -26.734375 28.78125 -26.734375 C 29.03125 -26.734375 29.335938 -26.695312 29.703125 -26.625 C 30.066406 -26.5625 30.25 -26.359375 30.25 -26.015625 C 30.25 -25.679688 30.128906 -25.425781 29.890625 -25.25 C 29.660156 -25.082031 29.351562 -24.910156 28.96875 -24.734375 C 28.238281 -24.523438 27.53125 -24.046875 26.84375 -23.296875 C 26.164062 -22.546875 25.613281 -21.679688 25.1875 -20.703125 L 15.953125 1.609375 C 15.703125 2.203125 15.363281 3 14.9375 4 C 14.507812 5.007812 14.046875 6.109375 13.546875 7.296875 C 13.054688 8.492188 12.535156 9.734375 11.984375 11.015625 C 11.429688 12.304688 10.898438 13.570312 10.390625 14.8125 C 9.910156 15.914062 9.191406 16.753906 8.234375 17.328125 C 7.273438 17.910156 6.195312 18.203125 5 18.203125 Z M 5 18.203125 "/></g></g><g style="fill:#ffffff;fill-opacity:1;"><g transform="translate(15.832035, 240.880297)"><path style="stroke:none" d="M 0.28125 0 L 3.09375 -13.25 L 8.0625 -13.25 C 8.96875 -13.25 9.707031 -13.109375 10.28125 -12.828125 C 10.851562 -12.546875 11.273438 -12.175781 11.546875 -11.71875 C 11.828125 -11.269531 11.96875 -10.785156 11.96875 -10.265625 C 11.96875 -9.628906 11.773438 -9.007812 11.390625 -8.40625 C 11.015625 -7.800781 10.457031 -7.328125 9.71875 -6.984375 C 10.257812 -6.765625 10.664062 -6.421875 10.9375 -5.953125 C 11.207031 -5.484375 11.34375 -4.957031 11.34375 -4.375 C 11.34375 -3.875 11.234375 -3.363281 11.015625 -2.84375 C 10.796875 -2.332031 10.460938 -1.863281 10.015625 -1.4375 C 9.578125 -1.007812 9.015625 -0.660156 8.328125 -0.390625 C 7.648438 -0.128906 6.859375 0 5.953125 0 Z M 3.8125 -7.578125 L 7.21875 -7.578125 C 7.820312 -7.578125 8.328125 -7.691406 8.734375 -7.921875 C 9.148438 -8.148438 9.460938 -8.441406 9.671875 -8.796875 C 9.890625 -9.160156 10 -9.523438 10 -9.890625 C 10 -10.359375 9.828125 -10.769531 9.484375 -11.125 C 9.148438 -11.476562 8.632812 -11.65625 7.9375 -11.65625 L 4.65625 -11.65625 Z M 2.515625 -1.5625 L 6.109375 -1.5625 C 6.785156 -1.5625 7.359375 -1.695312 7.828125 -1.96875 C 8.296875 -2.238281 8.65625 -2.578125 8.90625 -2.984375 C 9.15625 -3.398438 9.28125 -3.8125 9.28125 -4.21875 C 9.28125 -4.726562 9.085938 -5.171875 8.703125 -5.546875 C 8.316406 -5.921875 7.71875 -6.109375 6.90625 -6.109375 L 3.484375 -6.109375 Z M 2.515625 -1.5625 "/></g></g><g style="fill:#ffffff;fill-opacity:1;"><g transform="translate(28.217242, 240.880297)"><path style="stroke:none" d="M 4.71875 0.234375 C 3.425781 0.234375 2.40625 -0.140625 1.65625 -0.890625 C 0.90625 -1.640625 0.53125 -2.660156 0.53125 -3.953125 C 0.53125 -5.097656 0.757812 -6.125 1.21875 -7.03125 C 1.675781 -7.945312 2.320312 -8.671875 3.15625 -9.203125 C 4 -9.734375 4.988281 -10 6.125 -10 C 7.007812 -10 7.742188 -9.816406 8.328125 -9.453125 C 8.910156 -9.097656 9.347656 -8.613281 9.640625 -8 C 9.941406 -7.382812 10.09375 -6.703125 10.09375 -5.953125 C 10.09375 -5.472656 10.03125 -4.976562 9.90625 -4.46875 L 2.296875 -4.46875 C 2.285156 -4.375 2.28125 -4.28125 2.28125 -4.1875 C 2.28125 -4.09375 2.28125 -4 2.28125 -3.90625 C 2.28125 -3.226562 2.40625 -2.691406 2.65625 -2.296875 C 2.914062 -1.910156 3.25 -1.632812 3.65625 -1.46875 C 4.070312 -1.3125 4.492188 -1.234375 4.921875 -1.234375 C 5.472656 -1.234375 5.945312 -1.320312 6.34375 -1.5 C 6.738281 -1.675781 7.078125 -1.910156 7.359375 -2.203125 L 8.90625 -1.71875 C 8.457031 -1.144531 7.882812 -0.675781 7.1875 -0.3125 C 6.488281 0.0507812 5.664062 0.234375 4.71875 0.234375 Z M 2.53125 -5.8125 L 8.34375 -5.8125 C 8.363281 -5.875 8.375 -5.929688 8.375 -5.984375 C 8.375 -6.035156 8.375 -6.085938 8.375 -6.140625 C 8.375 -6.535156 8.289062 -6.921875 8.125 -7.296875 C 7.957031 -7.671875 7.691406 -7.972656 7.328125 -8.203125 C 6.960938 -8.441406 6.484375 -8.5625 5.890625 -8.5625 C 5.398438 -8.5625 4.921875 -8.457031 4.453125 -8.25 C 3.992188 -8.039062 3.59375 -7.726562 3.25 -7.3125 C 2.90625 -6.90625 2.664062 -6.40625 2.53125 -5.8125 Z M 2.53125 -5.8125 "/></g></g><g style="fill:#ffffff;fill-opacity:1;"><g transform="translate(38.957693, 240.880297)"><path style="stroke:none" d="M 3.046875 0.234375 C 2.203125 0.234375 1.5 0.00390625 0.9375 -0.453125 C 0.375 -0.921875 0.09375 -1.539062 0.09375 -2.3125 C 0.09375 -2.976562 0.269531 -3.53125 0.625 -3.96875 C 0.976562 -4.40625 1.429688 -4.753906 1.984375 -5.015625 C 2.546875 -5.273438 3.15625 -5.472656 3.8125 -5.609375 C 4.46875 -5.753906 5.101562 -5.859375 5.71875 -5.921875 C 6.34375 -5.992188 6.882812 -6.054688 7.34375 -6.109375 C 7.375 -6.296875 7.398438 -6.46875 7.421875 -6.625 C 7.453125 -6.78125 7.46875 -6.929688 7.46875 -7.078125 C 7.46875 -8.117188 6.863281 -8.640625 5.65625 -8.640625 C 5.039062 -8.640625 4.519531 -8.503906 4.09375 -8.234375 C 3.675781 -7.960938 3.359375 -7.59375 3.140625 -7.125 L 1.640625 -7.578125 C 1.984375 -8.316406 2.484375 -8.90625 3.140625 -9.34375 C 3.804688 -9.78125 4.617188 -10 5.578125 -10 C 6.722656 -10 7.601562 -9.765625 8.21875 -9.296875 C 8.84375 -8.835938 9.15625 -8.125 9.15625 -7.15625 C 9.15625 -6.9375 9.140625 -6.710938 9.109375 -6.484375 C 9.078125 -6.253906 9.015625 -5.9375 8.921875 -5.53125 C 8.835938 -5.125 8.710938 -4.523438 8.546875 -3.734375 C 8.367188 -2.910156 8.25 -2.195312 8.1875 -1.59375 C 8.132812 -0.988281 8.101562 -0.457031 8.09375 0 L 6.53125 0 L 6.4375 -1.25 C 6.007812 -0.757812 5.53125 -0.390625 5 -0.140625 C 4.476562 0.109375 3.828125 0.234375 3.046875 0.234375 Z M 3.59375 -1.125 C 4.488281 -1.125 5.253906 -1.425781 5.890625 -2.03125 C 6.535156 -2.632812 6.945312 -3.4375 7.125 -4.4375 L 7.171875 -4.78125 C 6.078125 -4.675781 5.140625 -4.550781 4.359375 -4.40625 C 3.578125 -4.269531 2.984375 -4.054688 2.578125 -3.765625 C 2.171875 -3.472656 1.96875 -3.046875 1.96875 -2.484375 C 1.96875 -2.023438 2.125 -1.679688 2.4375 -1.453125 C 2.757812 -1.234375 3.144531 -1.125 3.59375 -1.125 Z M 3.59375 -1.125 "/></g></g><g style="fill:#ffffff;fill-opacity:1;"><g transform="translate(49.282003, 240.880297)"><path style="stroke:none" d="M 3.4375 0.21875 C 2.46875 0.21875 1.785156 -0.046875 1.390625 -0.578125 C 0.992188 -1.109375 0.796875 -1.757812 0.796875 -2.53125 C 0.796875 -3.007812 0.851562 -3.507812 0.96875 -4.03125 L 2.203125 -9.828125 L 3.90625 -9.828125 L 2.671875 -4.0625 C 2.617188 -3.820312 2.578125 -3.585938 2.546875 -3.359375 C 2.515625 -3.128906 2.5 -2.914062 2.5 -2.71875 C 2.5 -2.28125 2.609375 -1.921875 2.828125 -1.640625 C 3.046875 -1.367188 3.445312 -1.234375 4.03125 -1.234375 C 4.800781 -1.234375 5.484375 -1.5 6.078125 -2.03125 C 6.679688 -2.5625 7.113281 -3.441406 7.375 -4.671875 L 8.484375 -9.828125 L 10.171875 -9.828125 L 8.09375 0 L 6.796875 0 L 6.6875 -1.390625 C 6.257812 -0.835938 5.796875 -0.429688 5.296875 -0.171875 C 4.804688 0.0859375 4.1875 0.21875 3.4375 0.21875 Z M 3.4375 0.21875 "/></g></g><g style="fill:#ffffff;fill-opacity:1;"><g transform="translate(59.982823, 240.880297)"><path style="stroke:none" d="M 3.171875 0 C 2.398438 0 1.875 -0.109375 1.59375 -0.328125 C 1.3125 -0.546875 1.171875 -0.878906 1.171875 -1.328125 C 1.171875 -1.617188 1.238281 -2.066406 1.375 -2.671875 L 2.625 -8.484375 L 0.96875 -8.484375 L 1.25 -9.828125 L 2.890625 -9.828125 L 3.4375 -12.296875 L 5.140625 -12.296875 L 4.59375 -9.828125 L 6.484375 -9.828125 L 6.203125 -8.484375 L 4.328125 -8.484375 L 3.171875 -3.15625 C 3.117188 -2.914062 3.078125 -2.695312 3.046875 -2.5 C 3.015625 -2.3125 3 -2.164062 3 -2.0625 C 3 -1.851562 3.054688 -1.703125 3.171875 -1.609375 C 3.285156 -1.523438 3.507812 -1.484375 3.84375 -1.484375 L 4.71875 -1.484375 L 4.40625 0 Z M 3.171875 0 "/></g></g><g style="fill:#ffffff;fill-opacity:1;"><g transform="translate(66.403313, 240.880297)"><path style="stroke:none" d="M 4.546875 -11.71875 C 4.210938 -11.71875 3.921875 -11.835938 3.671875 -12.078125 C 3.429688 -12.328125 3.3125 -12.617188 3.3125 -12.953125 C 3.3125 -13.296875 3.429688 -13.585938 3.671875 -13.828125 C 3.921875 -14.078125 4.210938 -14.203125 4.546875 -14.203125 C 4.890625 -14.203125 5.179688 -14.078125 5.421875 -13.828125 C 5.671875 -13.585938 5.796875 -13.296875 5.796875 -12.953125 C 5.796875 -12.617188 5.671875 -12.328125 5.421875 -12.078125 C 5.179688 -11.835938 4.890625 -11.71875 4.546875 -11.71875 Z M 0.90625 0 L 2.71875 -8.484375 L 1.125 -8.484375 L 1.40625 -9.828125 L 4.703125 -9.828125 L 2.625 0 Z M 0.90625 0 "/></g></g><g style="fill:#ffffff;fill-opacity:1;"><g transform="translate(71.753723, 240.880297)"><path style="stroke:none" d="M 0.734375 0 L 2.53125 -8.484375 L 0.875 -8.484375 L 1.171875 -9.828125 L 2.8125 -9.828125 L 3.046875 -10.890625 C 3.210938 -11.554688 3.378906 -12.09375 3.546875 -12.5 C 3.722656 -12.914062 3.925781 -13.226562 4.15625 -13.4375 C 4.394531 -13.65625 4.691406 -13.800781 5.046875 -13.875 C 5.410156 -13.945312 5.863281 -13.988281 6.40625 -14 L 7.421875 -14 L 7.125 -12.59375 L 6.640625 -12.59375 C 6.328125 -12.59375 6.050781 -12.566406 5.8125 -12.515625 C 5.570312 -12.460938 5.375 -12.335938 5.21875 -12.140625 C 5.0625 -11.941406 4.925781 -11.613281 4.8125 -11.15625 L 4.515625 -9.828125 L 6.546875 -9.828125 L 6.25 -8.484375 L 4.25 -8.484375 L 2.4375 0 Z M 0.734375 0 "/></g></g><g style="fill:#ffffff;fill-opacity:1;"><g transform="translate(78.094951, 240.880297)"><path style="stroke:none" d="M 3.4375 0.21875 C 2.46875 0.21875 1.785156 -0.046875 1.390625 -0.578125 C 0.992188 -1.109375 0.796875 -1.757812 0.796875 -2.53125 C 0.796875 -3.007812 0.851562 -3.507812 0.96875 -4.03125 L 2.203125 -9.828125 L 3.90625 -9.828125 L 2.671875 -4.0625 C 2.617188 -3.820312 2.578125 -3.585938 2.546875 -3.359375 C 2.515625 -3.128906 2.5 -2.914062 2.5 -2.71875 C 2.5 -2.28125 2.609375 -1.921875 2.828125 -1.640625 C 3.046875 -1.367188 3.445312 -1.234375 4.03125 -1.234375 C 4.800781 -1.234375 5.484375 -1.5 6.078125 -2.03125 C 6.679688 -2.5625 7.113281 -3.441406 7.375 -4.671875 L 8.484375 -9.828125 L 10.171875 -9.828125 L 8.09375 0 L 6.796875 0 L 6.6875 -1.390625 C 6.257812 -0.835938 5.796875 -0.429688 5.296875 -0.171875 C 4.804688 0.0859375 4.1875 0.21875 3.4375 0.21875 Z M 3.4375 0.21875 "/></g></g><g style="fill:#ffffff;fill-opacity:1;"><g transform="translate(88.795771, 240.880297)"><path style="stroke:none" d="M 2.5 0 C 1.726562 0 1.207031 -0.109375 0.9375 -0.328125 C 0.664062 -0.546875 0.53125 -0.878906 0.53125 -1.328125 C 0.53125 -1.679688 0.578125 -2.066406 0.671875 -2.484375 L 2.953125 -13.25 L 4.65625 -13.25 L 2.4375 -2.78125 C 2.414062 -2.632812 2.394531 -2.5 2.375 -2.375 C 2.351562 -2.257812 2.34375 -2.15625 2.34375 -2.0625 C 2.34375 -1.863281 2.398438 -1.71875 2.515625 -1.625 C 2.640625 -1.53125 2.863281 -1.484375 3.1875 -1.484375 L 3.921875 -1.484375 L 3.609375 0 Z M 2.5 0 "/></g></g><g style="fill:#ffffff;fill-opacity:1;"><g transform="translate(93.928206, 240.880297)"><path style="stroke:none" d=""/></g></g><g style="fill:#ffffff;fill-opacity:1;"><g transform="translate(99.476782, 240.880297)"><path style="stroke:none" d="M -0.515625 3.21875 L 2.265625 -9.828125 L 3.515625 -9.828125 L 3.609375 -8.53125 C 3.867188 -8.90625 4.238281 -9.242188 4.71875 -9.546875 C 5.207031 -9.847656 5.820312 -10 6.5625 -10 C 7.363281 -10 8.023438 -9.804688 8.546875 -9.421875 C 9.078125 -9.046875 9.46875 -8.539062 9.71875 -7.90625 C 9.976562 -7.269531 10.109375 -6.570312 10.109375 -5.8125 C 10.109375 -5.113281 10.007812 -4.410156 9.8125 -3.703125 C 9.613281 -2.992188 9.316406 -2.34375 8.921875 -1.75 C 8.535156 -1.15625 8.039062 -0.675781 7.4375 -0.3125 C 6.84375 0.0507812 6.140625 0.234375 5.328125 0.234375 C 4.546875 0.234375 3.894531 0.0507812 3.375 -0.3125 C 2.851562 -0.6875 2.484375 -1.195312 2.265625 -1.84375 L 1.1875 3.21875 Z M 5.15625 -1.171875 C 5.664062 -1.171875 6.113281 -1.304688 6.5 -1.578125 C 6.894531 -1.859375 7.226562 -2.226562 7.5 -2.6875 C 7.769531 -3.144531 7.972656 -3.65625 8.109375 -4.21875 C 8.253906 -4.78125 8.328125 -5.335938 8.328125 -5.890625 C 8.328125 -6.722656 8.128906 -7.375 7.734375 -7.84375 C 7.335938 -8.320312 6.789062 -8.5625 6.09375 -8.5625 C 5.40625 -8.5625 4.8125 -8.335938 4.3125 -7.890625 C 3.8125 -7.453125 3.425781 -6.894531 3.15625 -6.21875 C 2.882812 -5.550781 2.75 -4.859375 2.75 -4.140625 C 2.75 -3.328125 2.960938 -2.628906 3.390625 -2.046875 C 3.816406 -1.460938 4.40625 -1.171875 5.15625 -1.171875 Z M 5.15625 -1.171875 "/></g></g><g style="fill:#ffffff;fill-opacity:1;"><g transform="translate(110.49466, 240.880297)"><path style="stroke:none" d="M 2.5 0 C 1.726562 0 1.207031 -0.109375 0.9375 -0.328125 C 0.664062 -0.546875 0.53125 -0.878906 0.53125 -1.328125 C 0.53125 -1.679688 0.578125 -2.066406 0.671875 -2.484375 L 2.953125 -13.25 L 4.65625 -13.25 L 2.4375 -2.78125 C 2.414062 -2.632812 2.394531 -2.5 2.375 -2.375 C 2.351562 -2.257812 2.34375 -2.15625 2.34375 -2.0625 C 2.34375 -1.863281 2.398438 -1.71875 2.515625 -1.625 C 2.640625 -1.53125 2.863281 -1.484375 3.1875 -1.484375 L 3.921875 -1.484375 L 3.609375 0 Z M 2.5 0 "/></g></g><g style="fill:#ffffff;fill-opacity:1;"><g transform="translate(115.627095, 240.880297)"><path style="stroke:none" d="M 3.046875 0.234375 C 2.203125 0.234375 1.5 0.00390625 0.9375 -0.453125 C 0.375 -0.921875 0.09375 -1.539062 0.09375 -2.3125 C 0.09375 -2.976562 0.269531 -3.53125 0.625 -3.96875 C 0.976562 -4.40625 1.429688 -4.753906 1.984375 -5.015625 C 2.546875 -5.273438 3.15625 -5.472656 3.8125 -5.609375 C 4.46875 -5.753906 5.101562 -5.859375 5.71875 -5.921875 C 6.34375 -5.992188 6.882812 -6.054688 7.34375 -6.109375 C 7.375 -6.296875 7.398438 -6.46875 7.421875 -6.625 C 7.453125 -6.78125 7.46875 -6.929688 7.46875 -7.078125 C 7.46875 -8.117188 6.863281 -8.640625 5.65625 -8.640625 C 5.039062 -8.640625 4.519531 -8.503906 4.09375 -8.234375 C 3.675781 -7.960938 3.359375 -7.59375 3.140625 -7.125 L 1.640625 -7.578125 C 1.984375 -8.316406 2.484375 -8.90625 3.140625 -9.34375 C 3.804688 -9.78125 4.617188 -10 5.578125 -10 C 6.722656 -10 7.601562 -9.765625 8.21875 -9.296875 C 8.84375 -8.835938 9.15625 -8.125 9.15625 -7.15625 C 9.15625 -6.9375 9.140625 -6.710938 9.109375 -6.484375 C 9.078125 -6.253906 9.015625 -5.9375 8.921875 -5.53125 C 8.835938 -5.125 8.710938 -4.523438 8.546875 -3.734375 C 8.367188 -2.910156 8.25 -2.195312 8.1875 -1.59375 C 8.132812 -0.988281 8.101562 -0.457031 8.09375 0 L 6.53125 0 L 6.4375 -1.25 C 6.007812 -0.757812 5.53125 -0.390625 5 -0.140625 C 4.476562 0.109375 3.828125 0.234375 3.046875 0.234375 Z M 3.59375 -1.125 C 4.488281 -1.125 5.253906 -1.425781 5.890625 -2.03125 C 6.535156 -2.632812 6.945312 -3.4375 7.125 -4.4375 L 7.171875 -4.78125 C 6.078125 -4.675781 5.140625 -4.550781 4.359375 -4.40625 C 3.578125 -4.269531 2.984375 -4.054688 2.578125 -3.765625 C 2.171875 -3.472656 1.96875 -3.046875 1.96875 -2.484375 C 1.96875 -2.023438 2.125 -1.679688 2.4375 -1.453125 C 2.757812 -1.234375 3.144531 -1.125 3.59375 -1.125 Z M 3.59375 -1.125 "/></g></g><g style="fill:#ffffff;fill-opacity:1;"><g transform="translate(125.951405, 240.880297)"><path style="stroke:none" d="M 4.40625 0.234375 C 3.175781 0.234375 2.21875 -0.125 1.53125 -0.84375 C 0.851562 -1.570312 0.515625 -2.5625 0.515625 -3.8125 C 0.515625 -4.9375 0.734375 -5.960938 1.171875 -6.890625 C 1.617188 -7.816406 2.25 -8.566406 3.0625 -9.140625 C 3.875 -9.710938 4.820312 -10 5.90625 -10 C 6.800781 -10 7.550781 -9.804688 8.15625 -9.421875 C 8.769531 -9.046875 9.242188 -8.503906 9.578125 -7.796875 L 7.9375 -7.21875 C 7.800781 -7.613281 7.539062 -7.929688 7.15625 -8.171875 C 6.769531 -8.410156 6.328125 -8.53125 5.828125 -8.53125 C 5.078125 -8.53125 4.441406 -8.3125 3.921875 -7.875 C 3.410156 -7.4375 3.019531 -6.863281 2.75 -6.15625 C 2.476562 -5.457031 2.34375 -4.707031 2.34375 -3.90625 C 2.34375 -3.15625 2.523438 -2.519531 2.890625 -2 C 3.253906 -1.488281 3.882812 -1.234375 4.78125 -1.234375 C 5.320312 -1.234375 5.789062 -1.347656 6.1875 -1.578125 C 6.59375 -1.804688 6.941406 -2.117188 7.234375 -2.515625 L 8.640625 -1.96875 C 8.191406 -1.238281 7.59375 -0.6875 6.84375 -0.3125 C 6.101562 0.0507812 5.289062 0.234375 4.40625 0.234375 Z M 4.40625 0.234375 "/></g></g><g style="fill:#ffffff;fill-opacity:1;"><g transform="translate(135.76049, 240.880297)"><path style="stroke:none" d="M 4.71875 0.234375 C 3.425781 0.234375 2.40625 -0.140625 1.65625 -0.890625 C 0.90625 -1.640625 0.53125 -2.660156 0.53125 -3.953125 C 0.53125 -5.097656 0.757812 -6.125 1.21875 -7.03125 C 1.675781 -7.945312 2.320312 -8.671875 3.15625 -9.203125 C 4 -9.734375 4.988281 -10 6.125 -10 C 7.007812 -10 7.742188 -9.816406 8.328125 -9.453125 C 8.910156 -9.097656 9.347656 -8.613281 9.640625 -8 C 9.941406 -7.382812 10.09375 -6.703125 10.09375 -5.953125 C 10.09375 -5.472656 10.03125 -4.976562 9.90625 -4.46875 L 2.296875 -4.46875 C 2.285156 -4.375 2.28125 -4.28125 2.28125 -4.1875 C 2.28125 -4.09375 2.28125 -4 2.28125 -3.90625 C 2.28125 -3.226562 2.40625 -2.691406 2.65625 -2.296875 C 2.914062 -1.910156 3.25 -1.632812 3.65625 -1.46875 C 4.070312 -1.3125 4.492188 -1.234375 4.921875 -1.234375 C 5.472656 -1.234375 5.945312 -1.320312 6.34375 -1.5 C 6.738281 -1.675781 7.078125 -1.910156 7.359375 -2.203125 L 8.90625 -1.71875 C 8.457031 -1.144531 7.882812 -0.675781 7.1875 -0.3125 C 6.488281 0.0507812 5.664062 0.234375 4.71875 0.234375 Z M 2.53125 -5.8125 L 8.34375 -5.8125 C 8.363281 -5.875 8.375 -5.929688 8.375 -5.984375 C 8.375 -6.035156 8.375 -6.085938 8.375 -6.140625 C 8.375 -6.535156 8.289062 -6.921875 8.125 -7.296875 C 7.957031 -7.671875 7.691406 -7.972656 7.328125 -8.203125 C 6.960938 -8.441406 6.484375 -8.5625 5.890625 -8.5625 C 5.398438 -8.5625 4.921875 -8.457031 4.453125 -8.25 C 3.992188 -8.039062 3.59375 -7.726562 3.25 -7.3125 C 2.90625 -6.90625 2.664062 -6.40625 2.53125 -5.8125 Z M 2.53125 -5.8125 "/></g></g><g style="fill:#ffffff;fill-opacity:1;"><g transform="translate(146.500941, 240.880297)"><path style="stroke:none" d="M 1.25 0.234375 C 0.90625 0.234375 0.609375 0.109375 0.359375 -0.140625 C 0.109375 -0.390625 -0.015625 -0.6875 -0.015625 -1.03125 C -0.015625 -1.382812 0.109375 -1.6875 0.359375 -1.9375 C 0.609375 -2.1875 0.90625 -2.3125 1.25 -2.3125 C 1.601562 -2.3125 1.90625 -2.1875 2.15625 -1.9375 C 2.40625 -1.6875 2.53125 -1.382812 2.53125 -1.03125 C 2.53125 -0.6875 2.40625 -0.390625 2.15625 -0.140625 C 1.90625 0.109375 1.601562 0.234375 1.25 0.234375 Z M 1.25 0.234375 "/></g></g><g style="fill:#ffffff;fill-opacity:1;"><g transform="translate(150.622736, 240.880297)"><path style="stroke:none" d=""/></g></g><g style="fill:#ffffff;fill-opacity:1;"><g transform="translate(156.171312, 240.880297)"><path style="stroke:none" d="M 0.28125 0 L 3.09375 -13.25 L 5.8125 -13.25 L 9.5 -1.859375 L 11.921875 -13.25 L 13.8125 -13.25 L 11 0 L 8.28125 0 L 4.625 -11.421875 L 2.1875 0 Z M 0.28125 0 "/></g></g><g style="fill:#ffffff;fill-opacity:1;"><g transform="translate(169.904039, 240.880297)"><path style="stroke:none" d="M 4.546875 -11.71875 C 4.210938 -11.71875 3.921875 -11.835938 3.671875 -12.078125 C 3.429688 -12.328125 3.3125 -12.617188 3.3125 -12.953125 C 3.3125 -13.296875 3.429688 -13.585938 3.671875 -13.828125 C 3.921875 -14.078125 4.210938 -14.203125 4.546875 -14.203125 C 4.890625 -14.203125 5.179688 -14.078125 5.421875 -13.828125 C 5.671875 -13.585938 5.796875 -13.296875 5.796875 -12.953125 C 5.796875 -12.617188 5.671875 -12.328125 5.421875 -12.078125 C 5.179688 -11.835938 4.890625 -11.71875 4.546875 -11.71875 Z M 0.90625 0 L 2.71875 -8.484375 L 1.125 -8.484375 L 1.40625 -9.828125 L 4.703125 -9.828125 L 2.625 0 Z M 0.90625 0 "/></g></g><g style="fill:#ffffff;fill-opacity:1;"><g transform="translate(175.254449, 240.880297)"><path style="stroke:none" d="M 4.40625 0.234375 C 3.175781 0.234375 2.21875 -0.125 1.53125 -0.84375 C 0.851562 -1.570312 0.515625 -2.5625 0.515625 -3.8125 C 0.515625 -4.9375 0.734375 -5.960938 1.171875 -6.890625 C 1.617188 -7.816406 2.25 -8.566406 3.0625 -9.140625 C 3.875 -9.710938 4.820312 -10 5.90625 -10 C 6.800781 -10 7.550781 -9.804688 8.15625 -9.421875 C 8.769531 -9.046875 9.242188 -8.503906 9.578125 -7.796875 L 7.9375 -7.21875 C 7.800781 -7.613281 7.539062 -7.929688 7.15625 -8.171875 C 6.769531 -8.410156 6.328125 -8.53125 5.828125 -8.53125 C 5.078125 -8.53125 4.441406 -8.3125 3.921875 -7.875 C 3.410156 -7.4375 3.019531 -6.863281 2.75 -6.15625 C 2.476562 -5.457031 2.34375 -4.707031 2.34375 -3.90625 C 2.34375 -3.15625 2.523438 -2.519531 2.890625 -2 C 3.253906 -1.488281 3.882812 -1.234375 4.78125 -1.234375 C 5.320312 -1.234375 5.789062 -1.347656 6.1875 -1.578125 C 6.59375 -1.804688 6.941406 -2.117188 7.234375 -2.515625 L 8.640625 -1.96875 C 8.191406 -1.238281 7.59375 -0.6875 6.84375 -0.3125 C 6.101562 0.0507812 5.289062 0.234375 4.40625 0.234375 Z M 4.40625 0.234375 "/></g></g><g style="fill:#ffffff;fill-opacity:1;"><g transform="translate(185.063534, 240.880297)"><path style="stroke:none" d="M 4.71875 0.234375 C 3.425781 0.234375 2.40625 -0.140625 1.65625 -0.890625 C 0.90625 -1.640625 0.53125 -2.660156 0.53125 -3.953125 C 0.53125 -5.097656 0.757812 -6.125 1.21875 -7.03125 C 1.675781 -7.945312 2.320312 -8.671875 3.15625 -9.203125 C 4 -9.734375 4.988281 -10 6.125 -10 C 7.007812 -10 7.742188 -9.816406 8.328125 -9.453125 C 8.910156 -9.097656 9.347656 -8.613281 9.640625 -8 C 9.941406 -7.382812 10.09375 -6.703125 10.09375 -5.953125 C 10.09375 -5.472656 10.03125 -4.976562 9.90625 -4.46875 L 2.296875 -4.46875 C 2.285156 -4.375 2.28125 -4.28125 2.28125 -4.1875 C 2.28125 -4.09375 2.28125 -4 2.28125 -3.90625 C 2.28125 -3.226562 2.40625 -2.691406 2.65625 -2.296875 C 2.914062 -1.910156 3.25 -1.632812 3.65625 -1.46875 C 4.070312 -1.3125 4.492188 -1.234375 4.921875 -1.234375 C 5.472656 -1.234375 5.945312 -1.320312 6.34375 -1.5 C 6.738281 -1.675781 7.078125 -1.910156 7.359375 -2.203125 L 8.90625 -1.71875 C 8.457031 -1.144531 7.882812 -0.675781 7.1875 -0.3125 C 6.488281 0.0507812 5.664062 0.234375 4.71875 0.234375 Z M 2.53125 -5.8125 L 8.34375 -5.8125 C 8.363281 -5.875 8.375 -5.929688 8.375 -5.984375 C 8.375 -6.035156 8.375 -6.085938 8.375 -6.140625 C 8.375 -6.535156 8.289062 -6.921875 8.125 -7.296875 C 7.957031 -7.671875 7.691406 -7.972656 7.328125 -8.203125 C 6.960938 -8.441406 6.484375 -8.5625 5.890625 -8.5625 C 5.398438 -8.5625 4.921875 -8.457031 4.453125 -8.25 C 3.992188 -8.039062 3.59375 -7.726562 3.25 -7.3125 C 2.90625 -6.90625 2.664062 -6.40625 2.53125 -5.8125 Z M 2.53125 -5.8125 "/></g></g><g style="fill:#ffffff;fill-opacity:1;"><g transform="translate(195.803985, 240.880297)"><path style="stroke:none" d=""/></g></g><g style="fill:#ffffff;fill-opacity:1;"><g transform="translate(201.352561, 240.880297)"><path style="stroke:none" d="M 0.734375 0 L 2.53125 -8.484375 L 0.875 -8.484375 L 1.171875 -9.828125 L 2.8125 -9.828125 L 3.046875 -10.890625 C 3.210938 -11.554688 3.378906 -12.09375 3.546875 -12.5 C 3.722656 -12.914062 3.925781 -13.226562 4.15625 -13.4375 C 4.394531 -13.65625 4.691406 -13.800781 5.046875 -13.875 C 5.410156 -13.945312 5.863281 -13.988281 6.40625 -14 L 7.421875 -14 L 7.125 -12.59375 L 6.640625 -12.59375 C 6.328125 -12.59375 6.050781 -12.566406 5.8125 -12.515625 C 5.570312 -12.460938 5.375 -12.335938 5.21875 -12.140625 C 5.0625 -11.941406 4.925781 -11.613281 4.8125 -11.15625 L 4.515625 -9.828125 L 6.546875 -9.828125 L 6.25 -8.484375 L 4.25 -8.484375 L 2.4375 0 Z M 0.734375 0 "/></g></g><g style="fill:#ffffff;fill-opacity:1;"><g transform="translate(207.277522, 240.880297)"><path style="stroke:none" d="M 4.5625 0.234375 C 3.238281 0.234375 2.234375 -0.15625 1.546875 -0.9375 C 0.867188 -1.71875 0.53125 -2.722656 0.53125 -3.953125 C 0.53125 -5.097656 0.757812 -6.125 1.21875 -7.03125 C 1.6875 -7.945312 2.332031 -8.671875 3.15625 -9.203125 C 3.988281 -9.734375 4.941406 -10 6.015625 -10 C 6.679688 -10 7.316406 -9.851562 7.921875 -9.5625 C 8.523438 -9.269531 9.015625 -8.820312 9.390625 -8.21875 C 9.765625 -7.613281 9.953125 -6.84375 9.953125 -5.90625 C 9.953125 -5.070312 9.816406 -4.285156 9.546875 -3.546875 C 9.285156 -2.804688 8.914062 -2.148438 8.4375 -1.578125 C 7.96875 -1.015625 7.398438 -0.570312 6.734375 -0.25 C 6.078125 0.0703125 5.351562 0.234375 4.5625 0.234375 Z M 4.703125 -1.234375 C 5.460938 -1.234375 6.097656 -1.460938 6.609375 -1.921875 C 7.128906 -2.390625 7.519531 -2.984375 7.78125 -3.703125 C 8.050781 -4.421875 8.1875 -5.175781 8.1875 -5.96875 C 8.1875 -6.9375 7.953125 -7.601562 7.484375 -7.96875 C 7.015625 -8.34375 6.4375 -8.53125 5.75 -8.53125 C 4.96875 -8.53125 4.316406 -8.300781 3.796875 -7.84375 C 3.285156 -7.394531 2.90625 -6.820312 2.65625 -6.125 C 2.40625 -5.425781 2.28125 -4.691406 2.28125 -3.921875 C 2.28125 -3.117188 2.484375 -2.46875 2.890625 -1.96875 C 3.304688 -1.476562 3.910156 -1.234375 4.703125 -1.234375 Z M 4.703125 -1.234375 "/></g></g><g style="fill:#ffffff;fill-opacity:1;"><g transform="translate(218.117056, 240.880297)"><path style="stroke:none" d="M 4.5625 0.234375 C 3.238281 0.234375 2.234375 -0.15625 1.546875 -0.9375 C 0.867188 -1.71875 0.53125 -2.722656 0.53125 -3.953125 C 0.53125 -5.097656 0.757812 -6.125 1.21875 -7.03125 C 1.6875 -7.945312 2.332031 -8.671875 3.15625 -9.203125 C 3.988281 -9.734375 4.941406 -10 6.015625 -10 C 6.679688 -10 7.316406 -9.851562 7.921875 -9.5625 C 8.523438 -9.269531 9.015625 -8.820312 9.390625 -8.21875 C 9.765625 -7.613281 9.953125 -6.84375 9.953125 -5.90625 C 9.953125 -5.070312 9.816406 -4.285156 9.546875 -3.546875 C 9.285156 -2.804688 8.914062 -2.148438 8.4375 -1.578125 C 7.96875 -1.015625 7.398438 -0.570312 6.734375 -0.25 C 6.078125 0.0703125 5.351562 0.234375 4.5625 0.234375 Z M 4.703125 -1.234375 C 5.460938 -1.234375 6.097656 -1.460938 6.609375 -1.921875 C 7.128906 -2.390625 7.519531 -2.984375 7.78125 -3.703125 C 8.050781 -4.421875 8.1875 -5.175781 8.1875 -5.96875 C 8.1875 -6.9375 7.953125 -7.601562 7.484375 -7.96875 C 7.015625 -8.34375 6.4375 -8.53125 5.75 -8.53125 C 4.96875 -8.53125 4.316406 -8.300781 3.796875 -7.84375 C 3.285156 -7.394531 2.90625 -6.820312 2.65625 -6.125 C 2.40625 -5.425781 2.28125 -4.691406 2.28125 -3.921875 C 2.28125 -3.117188 2.484375 -2.46875 2.890625 -1.96875 C 3.304688 -1.476562 3.910156 -1.234375 4.703125 -1.234375 Z M 4.703125 -1.234375 "/></g></g><g style="fill:#ffffff;fill-opacity:1;"><g transform="translate(228.956578, 240.880297)"><path style="stroke:none" d="M 4.0625 0.234375 C 3.320312 0.234375 2.6875 0.0546875 2.15625 -0.296875 C 1.632812 -0.648438 1.234375 -1.140625 0.953125 -1.765625 C 0.671875 -2.398438 0.53125 -3.117188 0.53125 -3.921875 C 0.53125 -4.710938 0.640625 -5.46875 0.859375 -6.1875 C 1.085938 -6.914062 1.410156 -7.566406 1.828125 -8.140625 C 2.242188 -8.710938 2.75 -9.164062 3.34375 -9.5 C 3.945312 -9.832031 4.625 -10 5.375 -10 C 6.15625 -10 6.804688 -9.796875 7.328125 -9.390625 C 7.859375 -8.984375 8.21875 -8.484375 8.40625 -7.890625 L 9.53125 -13.25 L 11.25 -13.25 C 11.25 -13.25 11.210938 -13.070312 11.140625 -12.71875 C 11.066406 -12.363281 10.960938 -11.890625 10.828125 -11.296875 C 10.703125 -10.710938 10.5625 -10.070312 10.40625 -9.375 C 10.257812 -8.675781 10.109375 -7.96875 9.953125 -7.25 C 9.804688 -6.53125 9.664062 -5.863281 9.53125 -5.25 C 9.40625 -4.632812 9.300781 -4.128906 9.21875 -3.734375 C 9.15625 -3.398438 9.066406 -2.90625 8.953125 -2.25 C 8.835938 -1.601562 8.773438 -0.851562 8.765625 0 L 7.15625 0 L 7.0625 -1.203125 C 6.726562 -0.785156 6.328125 -0.441406 5.859375 -0.171875 C 5.390625 0.0976562 4.789062 0.234375 4.0625 0.234375 Z M 4.484375 -1.1875 C 5.171875 -1.1875 5.765625 -1.390625 6.265625 -1.796875 C 6.773438 -2.203125 7.171875 -2.738281 7.453125 -3.40625 C 7.742188 -4.070312 7.890625 -4.796875 7.890625 -5.578125 C 7.890625 -6.484375 7.691406 -7.207031 7.296875 -7.75 C 6.898438 -8.289062 6.316406 -8.5625 5.546875 -8.5625 C 4.859375 -8.5625 4.273438 -8.332031 3.796875 -7.875 C 3.316406 -7.425781 2.945312 -6.847656 2.6875 -6.140625 C 2.4375 -5.429688 2.3125 -4.703125 2.3125 -3.953125 C 2.3125 -3.023438 2.523438 -2.332031 2.953125 -1.875 C 3.390625 -1.414062 3.898438 -1.1875 4.484375 -1.1875 Z M 4.484375 -1.1875 "/></g></g><g style="fill:#ffffff;fill-opacity:1;"><g transform="translate(239.95467, 240.880297)"><path style="stroke:none" d="M 1.25 0.234375 C 0.90625 0.234375 0.609375 0.109375 0.359375 -0.140625 C 0.109375 -0.390625 -0.015625 -0.6875 -0.015625 -1.03125 C -0.015625 -1.382812 0.109375 -1.6875 0.359375 -1.9375 C 0.609375 -2.1875 0.90625 -2.3125 1.25 -2.3125 C 1.601562 -2.3125 1.90625 -2.1875 2.15625 -1.9375 C 2.40625 -1.6875 2.53125 -1.382812 2.53125 -1.03125 C 2.53125 -0.6875 2.40625 -0.390625 2.15625 -0.140625 C 1.90625 0.109375 1.601562 0.234375 1.25 0.234375 Z M 1.25 0.234375 "/></g></g><g style="fill:#ffffff;fill-opacity:1;"><g transform="translate(244.076466, 240.880297)"><path style="stroke:none" d=""/></g></g><g style="fill:#ffffff;fill-opacity:1;"><g transform="translate(249.625019, 240.880297)"><path style="stroke:none" d="M 5.953125 0.234375 C 4.921875 0.234375 4.039062 0.00390625 3.3125 -0.453125 C 2.582031 -0.921875 2.023438 -1.566406 1.640625 -2.390625 C 1.265625 -3.210938 1.078125 -4.164062 1.078125 -5.25 C 1.078125 -6.363281 1.25 -7.414062 1.59375 -8.40625 C 1.945312 -9.394531 2.441406 -10.269531 3.078125 -11.03125 C 3.722656 -11.789062 4.488281 -12.390625 5.375 -12.828125 C 6.257812 -13.265625 7.226562 -13.484375 8.28125 -13.484375 C 9.507812 -13.484375 10.523438 -13.226562 11.328125 -12.71875 C 12.140625 -12.21875 12.691406 -11.46875 12.984375 -10.46875 L 11.21875 -9.875 C 11.09375 -10.375 10.773438 -10.832031 10.265625 -11.25 C 9.765625 -11.675781 9.0625 -11.890625 8.15625 -11.890625 C 7.34375 -11.890625 6.617188 -11.707031 5.984375 -11.34375 C 5.347656 -10.988281 4.804688 -10.5 4.359375 -9.875 C 3.910156 -9.25 3.566406 -8.550781 3.328125 -7.78125 C 3.085938 -7.019531 2.96875 -6.226562 2.96875 -5.40625 C 2.96875 -4.144531 3.28125 -3.15625 3.90625 -2.4375 C 4.539062 -1.726562 5.332031 -1.359375 6.28125 -1.328125 C 6.945312 -1.296875 7.578125 -1.382812 8.171875 -1.59375 C 8.765625 -1.800781 9.285156 -2.164062 9.734375 -2.6875 C 10.191406 -3.207031 10.53125 -3.914062 10.75 -4.8125 L 10.84375 -5.234375 L 6.953125 -5.234375 L 7.296875 -6.828125 L 12.984375 -6.828125 L 11.515625 0 L 10.40625 0 L 10.296875 -1.625 C 9.179688 -0.382812 7.734375 0.234375 5.953125 0.234375 Z M 5.953125 0.234375 "/></g></g><g style="fill:#ffffff;fill-opacity:1;"><g transform="translate(263.734256, 240.880297)"><path style="stroke:none" d="M 0.15625 0 L 2.234375 -9.828125 L 3.484375 -9.828125 L 3.640625 -7.984375 C 4.054688 -8.566406 4.535156 -9.046875 5.078125 -9.421875 C 5.628906 -9.804688 6.394531 -10 7.375 -10 L 7.59375 -10 L 7.21875 -8.234375 C 6.84375 -8.242188 6.5 -8.222656 6.1875 -8.171875 C 5.175781 -8.015625 4.40625 -7.566406 3.875 -6.828125 C 3.34375 -6.097656 2.957031 -5.175781 2.71875 -4.0625 L 1.859375 0 Z M 0.15625 0 "/></g></g><g style="fill:#ffffff;fill-opacity:1;"><g transform="translate(270.729433, 240.880297)"><path style="stroke:none" d="M 4.71875 0.234375 C 3.425781 0.234375 2.40625 -0.140625 1.65625 -0.890625 C 0.90625 -1.640625 0.53125 -2.660156 0.53125 -3.953125 C 0.53125 -5.097656 0.757812 -6.125 1.21875 -7.03125 C 1.675781 -7.945312 2.320312 -8.671875 3.15625 -9.203125 C 4 -9.734375 4.988281 -10 6.125 -10 C 7.007812 -10 7.742188 -9.816406 8.328125 -9.453125 C 8.910156 -9.097656 9.347656 -8.613281 9.640625 -8 C 9.941406 -7.382812 10.09375 -6.703125 10.09375 -5.953125 C 10.09375 -5.472656 10.03125 -4.976562 9.90625 -4.46875 L 2.296875 -4.46875 C 2.285156 -4.375 2.28125 -4.28125 2.28125 -4.1875 C 2.28125 -4.09375 2.28125 -4 2.28125 -3.90625 C 2.28125 -3.226562 2.40625 -2.691406 2.65625 -2.296875 C 2.914062 -1.910156 3.25 -1.632812 3.65625 -1.46875 C 4.070312 -1.3125 4.492188 -1.234375 4.921875 -1.234375 C 5.472656 -1.234375 5.945312 -1.320312 6.34375 -1.5 C 6.738281 -1.675781 7.078125 -1.910156 7.359375 -2.203125 L 8.90625 -1.71875 C 8.457031 -1.144531 7.882812 -0.675781 7.1875 -0.3125 C 6.488281 0.0507812 5.664062 0.234375 4.71875 0.234375 Z M 2.53125 -5.8125 L 8.34375 -5.8125 C 8.363281 -5.875 8.375 -5.929688 8.375 -5.984375 C 8.375 -6.035156 8.375 -6.085938 8.375 -6.140625 C 8.375 -6.535156 8.289062 -6.921875 8.125 -7.296875 C 7.957031 -7.671875 7.691406 -7.972656 7.328125 -8.203125 C 6.960938 -8.441406 6.484375 -8.5625 5.890625 -8.5625 C 5.398438 -8.5625 4.921875 -8.457031 4.453125 -8.25 C 3.992188 -8.039062 3.59375 -7.726562 3.25 -7.3125 C 2.90625 -6.90625 2.664062 -6.40625 2.53125 -5.8125 Z M 2.53125 -5.8125 "/></g></g><g style="fill:#ffffff;fill-opacity:1;"><g transform="translate(281.469896, 240.880297)"><path style="stroke:none" d="M 3.046875 0.234375 C 2.203125 0.234375 1.5 0.00390625 0.9375 -0.453125 C 0.375 -0.921875 0.09375 -1.539062 0.09375 -2.3125 C 0.09375 -2.976562 0.269531 -3.53125 0.625 -3.96875 C 0.976562 -4.40625 1.429688 -4.753906 1.984375 -5.015625 C 2.546875 -5.273438 3.15625 -5.472656 3.8125 -5.609375 C 4.46875 -5.753906 5.101562 -5.859375 5.71875 -5.921875 C 6.34375 -5.992188 6.882812 -6.054688 7.34375 -6.109375 C 7.375 -6.296875 7.398438 -6.46875 7.421875 -6.625 C 7.453125 -6.78125 7.46875 -6.929688 7.46875 -7.078125 C 7.46875 -8.117188 6.863281 -8.640625 5.65625 -8.640625 C 5.039062 -8.640625 4.519531 -8.503906 4.09375 -8.234375 C 3.675781 -7.960938 3.359375 -7.59375 3.140625 -7.125 L 1.640625 -7.578125 C 1.984375 -8.316406 2.484375 -8.90625 3.140625 -9.34375 C 3.804688 -9.78125 4.617188 -10 5.578125 -10 C 6.722656 -10 7.601562 -9.765625 8.21875 -9.296875 C 8.84375 -8.835938 9.15625 -8.125 9.15625 -7.15625 C 9.15625 -6.9375 9.140625 -6.710938 9.109375 -6.484375 C 9.078125 -6.253906 9.015625 -5.9375 8.921875 -5.53125 C 8.835938 -5.125 8.710938 -4.523438 8.546875 -3.734375 C 8.367188 -2.910156 8.25 -2.195312 8.1875 -1.59375 C 8.132812 -0.988281 8.101562 -0.457031 8.09375 0 L 6.53125 0 L 6.4375 -1.25 C 6.007812 -0.757812 5.53125 -0.390625 5 -0.140625 C 4.476562 0.109375 3.828125 0.234375 3.046875 0.234375 Z M 3.59375 -1.125 C 4.488281 -1.125 5.253906 -1.425781 5.890625 -2.03125 C 6.535156 -2.632812 6.945312 -3.4375 7.125 -4.4375 L 7.171875 -4.78125 C 6.078125 -4.675781 5.140625 -4.550781 4.359375 -4.40625 C 3.578125 -4.269531 2.984375 -4.054688 2.578125 -3.765625 C 2.171875 -3.472656 1.96875 -3.046875 1.96875 -2.484375 C 1.96875 -2.023438 2.125 -1.679688 2.4375 -1.453125 C 2.757812 -1.234375 3.144531 -1.125 3.59375 -1.125 Z M 3.59375 -1.125 "/></g></g><g style="fill:#ffffff;fill-opacity:1;"><g transform="translate(291.794205, 240.880297)"><path style="stroke:none" d="M 3.171875 0 C 2.398438 0 1.875 -0.109375 1.59375 -0.328125 C 1.3125 -0.546875 1.171875 -0.878906 1.171875 -1.328125 C 1.171875 -1.617188 1.238281 -2.066406 1.375 -2.671875 L 2.625 -8.484375 L 0.96875 -8.484375 L 1.25 -9.828125 L 2.890625 -9.828125 L 3.4375 -12.296875 L 5.140625 -12.296875 L 4.59375 -9.828125 L 6.484375 -9.828125 L 6.203125 -8.484375 L 4.328125 -8.484375 L 3.171875 -3.15625 C 3.117188 -2.914062 3.078125 -2.695312 3.046875 -2.5 C 3.015625 -2.3125 3 -2.164062 3 -2.0625 C 3 -1.851562 3.054688 -1.703125 3.171875 -1.609375 C 3.285156 -1.523438 3.507812 -1.484375 3.84375 -1.484375 L 4.71875 -1.484375 L 4.40625 0 Z M 3.171875 0 "/></g></g><g style="fill:#ffffff;fill-opacity:1;"><g transform="translate(298.214684, 240.880297)"><path style="stroke:none" d=""/></g></g><g style="fill:#ffffff;fill-opacity:1;"><g transform="translate(303.76326, 240.880297)"><path style="stroke:none" d="M 4.40625 0.234375 C 3.175781 0.234375 2.21875 -0.125 1.53125 -0.84375 C 0.851562 -1.570312 0.515625 -2.5625 0.515625 -3.8125 C 0.515625 -4.9375 0.734375 -5.960938 1.171875 -6.890625 C 1.617188 -7.816406 2.25 -8.566406 3.0625 -9.140625 C 3.875 -9.710938 4.820312 -10 5.90625 -10 C 6.800781 -10 7.550781 -9.804688 8.15625 -9.421875 C 8.769531 -9.046875 9.242188 -8.503906 9.578125 -7.796875 L 7.9375 -7.21875 C 7.800781 -7.613281 7.539062 -7.929688 7.15625 -8.171875 C 6.769531 -8.410156 6.328125 -8.53125 5.828125 -8.53125 C 5.078125 -8.53125 4.441406 -8.3125 3.921875 -7.875 C 3.410156 -7.4375 3.019531 -6.863281 2.75 -6.15625 C 2.476562 -5.457031 2.34375 -4.707031 2.34375 -3.90625 C 2.34375 -3.15625 2.523438 -2.519531 2.890625 -2 C 3.253906 -1.488281 3.882812 -1.234375 4.78125 -1.234375 C 5.320312 -1.234375 5.789062 -1.347656 6.1875 -1.578125 C 6.59375 -1.804688 6.941406 -2.117188 7.234375 -2.515625 L 8.640625 -1.96875 C 8.191406 -1.238281 7.59375 -0.6875 6.84375 -0.3125 C 6.101562 0.0507812 5.289062 0.234375 4.40625 0.234375 Z M 4.40625 0.234375 "/></g></g><g style="fill:#ffffff;fill-opacity:1;"><g transform="translate(313.572357, 240.880297)"><path style="stroke:none" d="M 4.5625 0.234375 C 3.238281 0.234375 2.234375 -0.15625 1.546875 -0.9375 C 0.867188 -1.71875 0.53125 -2.722656 0.53125 -3.953125 C 0.53125 -5.097656 0.757812 -6.125 1.21875 -7.03125 C 1.6875 -7.945312 2.332031 -8.671875 3.15625 -9.203125 C 3.988281 -9.734375 4.941406 -10 6.015625 -10 C 6.679688 -10 7.316406 -9.851562 7.921875 -9.5625 C 8.523438 -9.269531 9.015625 -8.820312 9.390625 -8.21875 C 9.765625 -7.613281 9.953125 -6.84375 9.953125 -5.90625 C 9.953125 -5.070312 9.816406 -4.285156 9.546875 -3.546875 C 9.285156 -2.804688 8.914062 -2.148438 8.4375 -1.578125 C 7.96875 -1.015625 7.398438 -0.570312 6.734375 -0.25 C 6.078125 0.0703125 5.351562 0.234375 4.5625 0.234375 Z M 4.703125 -1.234375 C 5.460938 -1.234375 6.097656 -1.460938 6.609375 -1.921875 C 7.128906 -2.390625 7.519531 -2.984375 7.78125 -3.703125 C 8.050781 -4.421875 8.1875 -5.175781 8.1875 -5.96875 C 8.1875 -6.9375 7.953125 -7.601562 7.484375 -7.96875 C 7.015625 -8.34375 6.4375 -8.53125 5.75 -8.53125 C 4.96875 -8.53125 4.316406 -8.300781 3.796875 -7.84375 C 3.285156 -7.394531 2.90625 -6.820312 2.65625 -6.125 C 2.40625 -5.425781 2.28125 -4.691406 2.28125 -3.921875 C 2.28125 -3.117188 2.484375 -2.46875 2.890625 -1.96875 C 3.304688 -1.476562 3.910156 -1.234375 4.703125 -1.234375 Z M 4.703125 -1.234375 "/></g></g><g style="fill:#ffffff;fill-opacity:1;"><g transform="translate(324.411879, 240.880297)"><path style="stroke:none" d="M 0.734375 0 L 2.53125 -8.484375 L 0.875 -8.484375 L 1.171875 -9.828125 L 2.8125 -9.828125 L 3.046875 -10.890625 C 3.210938 -11.554688 3.378906 -12.09375 3.546875 -12.5 C 3.722656 -12.914062 3.925781 -13.226562 4.15625 -13.4375 C 4.394531 -13.65625 4.691406 -13.800781 5.046875 -13.875 C 5.410156 -13.945312 5.863281 -13.988281 6.40625 -14 L 7.421875 -14 L 7.125 -12.59375 L 6.640625 -12.59375 C 6.328125 -12.59375 6.050781 -12.566406 5.8125 -12.515625 C 5.570312 -12.460938 5.375 -12.335938 5.21875 -12.140625 C 5.0625 -11.941406 4.925781 -11.613281 4.8125 -11.15625 L 4.515625 -9.828125 L 6.546875 -9.828125 L 6.25 -8.484375 L 4.25 -8.484375 L 2.4375 0 Z M 0.734375 0 "/></g></g><g style="fill:#ffffff;fill-opacity:1;"><g transform="translate(330.753096, 240.880297)"><path style="stroke:none" d="M 0.734375 0 L 2.53125 -8.484375 L 0.875 -8.484375 L 1.171875 -9.828125 L 2.8125 -9.828125 L 3.046875 -10.890625 C 3.210938 -11.554688 3.378906 -12.09375 3.546875 -12.5 C 3.722656 -12.914062 3.925781 -13.226562 4.15625 -13.4375 C 4.394531 -13.65625 4.691406 -13.800781 5.046875 -13.875 C 5.410156 -13.945312 5.863281 -13.988281 6.40625 -14 L 7.421875 -14 L 7.125 -12.59375 L 6.640625 -12.59375 C 6.328125 -12.59375 6.050781 -12.566406 5.8125 -12.515625 C 5.570312 -12.460938 5.375 -12.335938 5.21875 -12.140625 C 5.0625 -11.941406 4.925781 -11.613281 4.8125 -11.15625 L 4.515625 -9.828125 L 6.546875 -9.828125 L 6.25 -8.484375 L 4.25 -8.484375 L 2.4375 0 Z M 0.734375 0 "/></g></g><g style="fill:#ffffff;fill-opacity:1;"><g transform="translate(336.678068, 240.880297)"><path style="stroke:none" d="M 4.71875 0.234375 C 3.425781 0.234375 2.40625 -0.140625 1.65625 -0.890625 C 0.90625 -1.640625 0.53125 -2.660156 0.53125 -3.953125 C 0.53125 -5.097656 0.757812 -6.125 1.21875 -7.03125 C 1.675781 -7.945312 2.320312 -8.671875 3.15625 -9.203125 C 4 -9.734375 4.988281 -10 6.125 -10 C 7.007812 -10 7.742188 -9.816406 8.328125 -9.453125 C 8.910156 -9.097656 9.347656 -8.613281 9.640625 -8 C 9.941406 -7.382812 10.09375 -6.703125 10.09375 -5.953125 C 10.09375 -5.472656 10.03125 -4.976562 9.90625 -4.46875 L 2.296875 -4.46875 C 2.285156 -4.375 2.28125 -4.28125 2.28125 -4.1875 C 2.28125 -4.09375 2.28125 -4 2.28125 -3.90625 C 2.28125 -3.226562 2.40625 -2.691406 2.65625 -2.296875 C 2.914062 -1.910156 3.25 -1.632812 3.65625 -1.46875 C 4.070312 -1.3125 4.492188 -1.234375 4.921875 -1.234375 C 5.472656 -1.234375 5.945312 -1.320312 6.34375 -1.5 C 6.738281 -1.675781 7.078125 -1.910156 7.359375 -2.203125 L 8.90625 -1.71875 C 8.457031 -1.144531 7.882812 -0.675781 7.1875 -0.3125 C 6.488281 0.0507812 5.664062 0.234375 4.71875 0.234375 Z M 2.53125 -5.8125 L 8.34375 -5.8125 C 8.363281 -5.875 8.375 -5.929688 8.375 -5.984375 C 8.375 -6.035156 8.375 -6.085938 8.375 -6.140625 C 8.375 -6.535156 8.289062 -6.921875 8.125 -7.296875 C 7.957031 -7.671875 7.691406 -7.972656 7.328125 -8.203125 C 6.960938 -8.441406 6.484375 -8.5625 5.890625 -8.5625 C 5.398438 -8.5625 4.921875 -8.457031 4.453125 -8.25 C 3.992188 -8.039062 3.59375 -7.726562 3.25 -7.3125 C 2.90625 -6.90625 2.664062 -6.40625 2.53125 -5.8125 Z M 2.53125 -5.8125 "/></g></g><g style="fill:#ffffff;fill-opacity:1;"><g transform="translate(347.418531, 240.880297)"><path style="stroke:none" d="M 4.71875 0.234375 C 3.425781 0.234375 2.40625 -0.140625 1.65625 -0.890625 C 0.90625 -1.640625 0.53125 -2.660156 0.53125 -3.953125 C 0.53125 -5.097656 0.757812 -6.125 1.21875 -7.03125 C 1.675781 -7.945312 2.320312 -8.671875 3.15625 -9.203125 C 4 -9.734375 4.988281 -10 6.125 -10 C 7.007812 -10 7.742188 -9.816406 8.328125 -9.453125 C 8.910156 -9.097656 9.347656 -8.613281 9.640625 -8 C 9.941406 -7.382812 10.09375 -6.703125 10.09375 -5.953125 C 10.09375 -5.472656 10.03125 -4.976562 9.90625 -4.46875 L 2.296875 -4.46875 C 2.285156 -4.375 2.28125 -4.28125 2.28125 -4.1875 C 2.28125 -4.09375 2.28125 -4 2.28125 -3.90625 C 2.28125 -3.226562 2.40625 -2.691406 2.65625 -2.296875 C 2.914062 -1.910156 3.25 -1.632812 3.65625 -1.46875 C 4.070312 -1.3125 4.492188 -1.234375 4.921875 -1.234375 C 5.472656 -1.234375 5.945312 -1.320312 6.34375 -1.5 C 6.738281 -1.675781 7.078125 -1.910156 7.359375 -2.203125 L 8.90625 -1.71875 C 8.457031 -1.144531 7.882812 -0.675781 7.1875 -0.3125 C 6.488281 0.0507812 5.664062 0.234375 4.71875 0.234375 Z M 2.53125 -5.8125 L 8.34375 -5.8125 C 8.363281 -5.875 8.375 -5.929688 8.375 -5.984375 C 8.375 -6.035156 8.375 -6.085938 8.375 -6.140625 C 8.375 -6.535156 8.289062 -6.921875 8.125 -7.296875 C 7.957031 -7.671875 7.691406 -7.972656 7.328125 -8.203125 C 6.960938 -8.441406 6.484375 -8.5625 5.890625 -8.5625 C 5.398438 -8.5625 4.921875 -8.457031 4.453125 -8.25 C 3.992188 -8.039062 3.59375 -7.726562 3.25 -7.3125 C 2.90625 -6.90625 2.664062 -6.40625 2.53125 -5.8125 Z M 2.53125 -5.8125 "/></g></g><g style="fill:#ffffff;fill-opacity:1;"><g transform="translate(358.15897, 240.880297)"><path style="stroke:none" d="M 1.25 0.234375 C 0.90625 0.234375 0.609375 0.109375 0.359375 -0.140625 C 0.109375 -0.390625 -0.015625 -0.6875 -0.015625 -1.03125 C -0.015625 -1.382812 0.109375 -1.6875 0.359375 -1.9375 C 0.609375 -2.1875 0.90625 -2.3125 1.25 -2.3125 C 1.601562 -2.3125 1.90625 -2.1875 2.15625 -1.9375 C 2.40625 -1.6875 2.53125 -1.382812 2.53125 -1.03125 C 2.53125 -0.6875 2.40625 -0.390625 2.15625 -0.140625 C 1.90625 0.109375 1.601562 0.234375 1.25 0.234375 Z M 1.25 0.234375 "/></g></g></g></svg>