<svg xmlns="http://www.w3.org/2000/svg" xmlns:xlink="http://www.w3.org/1999/xlink" width="500" zoomAndPan="magnify" viewBox="0 0 375 374.999991" height="500" preserveAspectRatio="xMidYMid meet" version="1.2"><defs><clipPath id="139c41b9f1"><path d="M 111.15625 51.800781 L 195 51.800781 L 195 193 L 111.15625 193 Z M 111.15625 51.800781 "/></clipPath><clipPath id="0f85996b16"><path d="M 192 107 L 272 107 L 272 194.941406 L 192 194.941406 Z M 192 107 "/></clipPath><clipPath id="a9025e6bfb"><path d="M 79 195.152344 L 311.128906 195.152344 L 311.128906 337 L 79 337 Z M 79 195.152344 "/></clipPath></defs><g id="56953a5c04"><g clip-rule="nonzero" clip-path="url(#139c41b9f1)"><path style=" stroke:none;fill-rule:nonzero;fill:#36a03d;fill-opacity:1;" d="M 178.15625 192.949219 C 179.738281 126.359375 150.832031 104.679688 150.832031 104.679688 C 173.078125 119.945312 183.757812 153.191406 186.054688 182.152344 C 225.003906 64.859375 111.191406 51.820312 111.148438 51.824219 C 118.03125 61.277344 116.671875 90.5 118.105469 104.078125 C 119.890625 120.957031 128.800781 136.636719 141.761719 147.113281 C 149.8125 153.625 171.9375 168.015625 178.15625 192.949219 "/></g><g clip-rule="nonzero" clip-path="url(#0f85996b16)"><path style=" stroke:none;fill-rule:nonzero;fill:#7ecb2a;fill-opacity:1;" d="M 195.476562 191.339844 C 239.730469 167.480469 247.269531 135.757812 247.269531 135.757812 C 245.136719 163.460938 226.789062 182.605469 208.660156 194.917969 C 303.019531 171.914062 262.75 107.980469 262.75 107.980469 C 257.625 116.222656 224.53125 129.109375 215.558594 135.15625 C 187.5 154.0625 191.734375 179.867188 195.476562 191.339844 "/></g><g clip-rule="nonzero" clip-path="url(#a9025e6bfb)"><path style=" stroke:none;fill-rule:nonzero;fill:#ff000d;fill-opacity:1;" d="M 278.894531 225.394531 C 281.21875 224.171875 283.8125 223.554688 286.273438 223.554688 C 288.960938 223.554688 291.375 224.265625 293.199219 225.546875 C 295.039062 226.84375 296.476562 228.65625 297.335938 231.644531 C 297.910156 233.679688 298.132812 235.550781 298.132812 237.316406 C 298.132812 243.535156 295.085938 249.179688 289.835938 254.433594 C 284.644531 259.636719 277.398438 264 270.683594 267.0625 C 269.21875 267.726562 267.832031 268.4375 266.441406 269.144531 C 273.160156 253.480469 276.871094 237.875 278.894531 225.394531 Z M 294 306.226562 L 242.839844 306.226562 C 245.964844 302.859375 248.847656 299.328125 251.503906 295.691406 C 259.09375 288.660156 266.578125 283.242188 276.085938 278.894531 C 283.769531 275.363281 292.160156 270.398438 298.980469 263.683594 C 305.742188 256.96875 311.128906 248.046875 311.128906 237.316406 C 311.128906 234.34375 310.707031 231.265625 309.875 228.1875 C 308.304688 222.46875 304.894531 217.835938 300.625 214.863281 C 296.324219 211.90625 291.285156 210.5625 286.273438 210.5625 C 284.433594 210.5625 282.558594 210.742188 280.734375 211.121094 C 281.351562 204.011719 281.351562 199.695312 281.351562 199.695312 C 281.351562 197.402344 279.632812 195.558594 277.476562 195.558594 L 103.425781 195.558594 C 101.285156 195.558594 99.546875 197.402344 99.546875 199.695312 C 99.546875 199.695312 99.53125 264.921875 138.105469 306.226562 L 86.945312 306.226562 C 78.34375 306.226562 76.59375 310.886719 83.914062 315.414062 C 98.324219 324.335938 135.390625 336.511719 173.570312 336.511719 L 207.375 336.511719 C 245.542969 336.511719 282.605469 324.335938 297.019531 315.414062 C 304.335938 310.886719 302.601562 306.226562 294 306.226562 "/></g></g></svg>