<svg xmlns="http://www.w3.org/2000/svg" xmlns:xlink="http://www.w3.org/1999/xlink" width="500" zoomAndPan="magnify" viewBox="0 0 375 374.999991" height="500" preserveAspectRatio="xMidYMid meet" version="1.2"><defs><clipPath id="02edcfd00b"><path d="M 161.953125 73.523438 L 194 73.523438 L 194 127 L 161.953125 127 Z M 161.953125 73.523438 "/></clipPath><clipPath id="0945152f9a"><path d="M 192 94 L 223 94 L 223 127.707031 L 192 127.707031 Z M 192 94 "/></clipPath><clipPath id="63c3f4b9be"><path d="M 149 127.785156 L 237.648438 127.785156 L 237.648438 181.964844 L 149 181.964844 Z M 149 127.785156 "/></clipPath></defs><g id="ad0a2882f2"><g clip-rule="nonzero" clip-path="url(#02edcfd00b)"><path style=" stroke:none;fill-rule:nonzero;fill:#36a03d;fill-opacity:1;" d="M 187.316406 126.949219 C 187.914062 101.746094 176.972656 93.539062 176.972656 93.539062 C 185.390625 99.316406 189.433594 111.902344 190.304688 122.863281 C 205.046875 78.464844 161.96875 73.53125 161.949219 73.53125 C 164.554688 77.109375 164.042969 88.171875 164.585938 93.3125 C 165.261719 99.699219 168.632812 105.636719 173.539062 109.601562 C 176.585938 112.066406 184.960938 117.511719 187.316406 126.949219 "/></g><g clip-rule="nonzero" clip-path="url(#0945152f9a)"><path style=" stroke:none;fill-rule:nonzero;fill:#7ecb2a;fill-opacity:1;" d="M 193.871094 126.339844 C 210.621094 117.3125 213.476562 105.300781 213.476562 105.300781 C 212.667969 115.789062 205.722656 123.035156 198.859375 127.695312 C 234.578125 118.988281 219.335938 94.789062 219.335938 94.789062 C 217.394531 97.910156 204.867188 102.785156 201.472656 105.074219 C 190.851562 112.230469 192.453125 122 193.871094 126.339844 "/></g><g clip-rule="nonzero" clip-path="url(#63c3f4b9be)"><path style=" stroke:none;fill-rule:nonzero;fill:#ff000d;fill-opacity:1;" d="M 225.445312 139.234375 C 226.324219 138.769531 227.308594 138.535156 228.238281 138.535156 C 229.253906 138.535156 230.167969 138.804688 230.859375 139.289062 C 231.558594 139.78125 232.101562 140.464844 232.425781 141.597656 C 232.644531 142.367188 232.726562 143.078125 232.726562 143.746094 C 232.726562 146.097656 231.574219 148.234375 229.585938 150.222656 C 227.621094 152.195312 224.878906 153.84375 222.335938 155.003906 C 221.785156 155.253906 221.257812 155.523438 220.734375 155.792969 C 223.273438 149.863281 224.679688 143.957031 225.445312 139.234375 Z M 231.164062 169.828125 L 211.796875 169.828125 C 212.980469 168.554688 214.070312 167.21875 215.078125 165.839844 C 217.949219 163.179688 220.785156 161.128906 224.382812 159.484375 C 227.289062 158.144531 230.464844 156.265625 233.046875 153.726562 C 235.609375 151.183594 237.648438 147.808594 237.648438 143.746094 C 237.648438 142.621094 237.488281 141.453125 237.171875 140.289062 C 236.578125 138.125 235.289062 136.371094 233.671875 135.246094 C 232.042969 134.125 230.136719 133.617188 228.238281 133.617188 C 227.542969 133.617188 226.832031 133.6875 226.140625 133.828125 C 226.375 131.136719 226.375 129.503906 226.375 129.503906 C 226.375 128.636719 225.726562 127.9375 224.910156 127.9375 L 159.027344 127.9375 C 158.214844 127.9375 157.558594 128.636719 157.558594 129.503906 C 157.558594 129.503906 157.554688 154.191406 172.15625 169.828125 L 152.789062 169.828125 C 149.535156 169.828125 148.871094 171.59375 151.640625 173.308594 C 157.097656 176.683594 171.125 181.292969 185.578125 181.292969 L 198.375 181.292969 C 212.820312 181.292969 226.851562 176.683594 232.304688 173.308594 C 235.078125 171.59375 234.417969 169.828125 231.164062 169.828125 "/></g><g style="fill:#ffffff;fill-opacity:1;"><g transform="translate(25.513422, 254.901696)"><path style="stroke:none" d="M 16.71875 1.171875 C 14.476562 1.171875 12.351562 0.882812 10.34375 0.3125 C 8.34375 -0.257812 6.507812 -1.117188 4.84375 -2.265625 C 4.53125 -2.523438 4.242188 -2.796875 3.984375 -3.078125 C 3.722656 -3.367188 3.515625 -3.695312 3.359375 -4.0625 C 2.941406 -5.363281 2.65625 -6.960938 2.5 -8.859375 C 2.34375 -10.765625 2.289062 -12.601562 2.34375 -14.375 C 2.34375 -14.738281 2.484375 -15 2.765625 -15.15625 C 3.054688 -15.3125 3.410156 -15.390625 3.828125 -15.390625 C 4.242188 -15.390625 4.566406 -15.320312 4.796875 -15.1875 C 5.035156 -15.0625 5.207031 -14.816406 5.3125 -14.453125 C 6.457031 -10.546875 8.125 -7.5 10.3125 -5.3125 C 12.5 -3.125 14.972656 -2.03125 17.734375 -2.03125 C 19.453125 -2.03125 20.910156 -2.421875 22.109375 -3.203125 C 23.304688 -3.984375 24.21875 -5 24.84375 -6.25 C 25.46875 -7.5 25.78125 -8.851562 25.78125 -10.3125 C 25.78125 -12.132812 25.453125 -13.644531 24.796875 -14.84375 C 24.148438 -16.039062 23.175781 -17.117188 21.875 -18.078125 C 20.570312 -19.046875 18.929688 -20.078125 16.953125 -21.171875 C 14.816406 -22.421875 12.734375 -23.734375 10.703125 -25.109375 C 8.671875 -26.492188 7.003906 -28.132812 5.703125 -30.03125 C 4.398438 -31.9375 3.75 -34.296875 3.75 -37.109375 C 3.75 -40.015625 4.488281 -42.570312 5.96875 -44.78125 C 7.457031 -47 9.53125 -48.734375 12.1875 -49.984375 C 14.84375 -51.234375 17.914062 -51.859375 21.40625 -51.859375 C 23.332031 -51.859375 25.128906 -51.648438 26.796875 -51.234375 C 28.460938 -50.816406 29.789062 -50.398438 30.78125 -49.984375 C 31.351562 -49.773438 31.78125 -49.515625 32.0625 -49.203125 C 32.351562 -48.890625 32.578125 -48.394531 32.734375 -47.71875 C 33.046875 -46.625 33.316406 -45.320312 33.546875 -43.8125 C 33.785156 -42.300781 33.90625 -40.710938 33.90625 -39.046875 C 33.90625 -38.429688 33.4375 -38.125 32.5 -38.125 C 32.082031 -38.125 31.664062 -38.226562 31.25 -38.4375 C 30.832031 -38.644531 30.570312 -38.925781 30.46875 -39.28125 C 29.53125 -42.300781 28.238281 -44.59375 26.59375 -46.15625 C 24.957031 -47.71875 22.941406 -48.5 20.546875 -48.5 C 18.929688 -48.5 17.550781 -48.222656 16.40625 -47.671875 C 15.257812 -47.128906 14.347656 -46.296875 13.671875 -45.171875 C 12.992188 -44.054688 12.65625 -42.613281 12.65625 -40.84375 C 12.65625 -39.488281 13.109375 -38.238281 14.015625 -37.09375 C 14.929688 -35.957031 16.207031 -34.84375 17.84375 -33.75 C 19.488281 -32.65625 21.328125 -31.457031 23.359375 -30.15625 C 25.859375 -28.695312 27.953125 -27.222656 29.640625 -25.734375 C 31.335938 -24.253906 32.628906 -22.613281 33.515625 -20.8125 C 34.398438 -19.019531 34.84375 -16.898438 34.84375 -14.453125 C 34.84375 -11.015625 34.085938 -8.132812 32.578125 -5.8125 C 31.066406 -3.5 28.957031 -1.753906 26.25 -0.578125 C 23.539062 0.585938 20.363281 1.171875 16.71875 1.171875 Z M 16.71875 1.171875 "/></g></g><g style="fill:#ffffff;fill-opacity:1;"><g transform="translate(59.017898, 254.901696)"><path style="stroke:none" d="M 16.5625 1.09375 C 13.695312 1.09375 11.171875 0.363281 8.984375 -1.09375 C 6.796875 -2.550781 5.078125 -4.566406 3.828125 -7.140625 C 2.578125 -9.722656 1.953125 -12.65625 1.953125 -15.9375 C 1.953125 -19.113281 2.691406 -22.015625 4.171875 -24.640625 C 5.660156 -27.273438 7.65625 -29.375 10.15625 -30.9375 C 12.65625 -32.5 15.390625 -33.28125 18.359375 -33.28125 C 20.546875 -33.28125 22.5 -32.820312 24.21875 -31.90625 C 25.9375 -31 27.300781 -29.75 28.3125 -28.15625 C 29.332031 -26.570312 29.84375 -24.789062 29.84375 -22.8125 C 29.84375 -20.9375 29.035156 -20 27.421875 -20 L 11.5625 -20 C 10.832031 -20 10.296875 -19.800781 9.953125 -19.40625 C 9.617188 -19.019531 9.453125 -18.304688 9.453125 -17.265625 C 9.453125 -15.078125 9.929688 -13.097656 10.890625 -11.328125 C 11.859375 -9.554688 13.148438 -8.148438 14.765625 -7.109375 C 16.378906 -6.066406 18.226562 -5.546875 20.3125 -5.546875 C 21.820312 -5.546875 23.210938 -5.84375 24.484375 -6.4375 C 25.765625 -7.039062 26.976562 -7.863281 28.125 -8.90625 C 28.332031 -9.0625 28.515625 -9.203125 28.671875 -9.328125 C 28.828125 -9.460938 28.984375 -9.53125 29.140625 -9.53125 C 29.660156 -9.53125 29.921875 -9.21875 29.921875 -8.59375 C 29.921875 -7.863281 29.609375 -6.976562 28.984375 -5.9375 C 28.359375 -4.738281 27.457031 -3.59375 26.28125 -2.5 C 25.113281 -1.40625 23.695312 -0.535156 22.03125 0.109375 C 20.363281 0.765625 18.539062 1.09375 16.5625 1.09375 Z M 11.5625 -23.046875 L 17.109375 -23.046875 C 18.460938 -23.046875 19.476562 -23.070312 20.15625 -23.125 C 20.832031 -23.175781 21.484375 -23.28125 22.109375 -23.4375 C 22.367188 -23.488281 22.550781 -23.707031 22.65625 -24.09375 C 22.757812 -24.488281 22.8125 -24.945312 22.8125 -25.46875 C 22.8125 -26.875 22.273438 -28.054688 21.203125 -29.015625 C 20.140625 -29.984375 18.828125 -30.46875 17.265625 -30.46875 C 16.171875 -30.46875 15.101562 -30.140625 14.0625 -29.484375 C 13.019531 -28.835938 12.160156 -28.019531 11.484375 -27.03125 C 10.804688 -26.039062 10.492188 -25.023438 10.546875 -23.984375 C 10.546875 -23.359375 10.882812 -23.046875 11.5625 -23.046875 Z M 11.5625 -23.046875 "/></g></g><g style="fill:#ffffff;fill-opacity:1;"><g transform="translate(86.586648, 254.901696)"><path style="stroke:none" d="M 3.4375 0.234375 C 3.019531 0.234375 2.65625 0.144531 2.34375 -0.03125 C 2.03125 -0.21875 1.875 -0.46875 1.875 -0.78125 C 1.875 -1.195312 2.039062 -1.507812 2.375 -1.71875 C 2.71875 -1.925781 3.148438 -2.109375 3.671875 -2.265625 C 4.765625 -2.578125 5.53125 -2.953125 5.96875 -3.390625 C 6.414062 -3.835938 6.640625 -4.453125 6.640625 -5.234375 L 6.640625 -22.8125 C 6.640625 -24.007812 6.46875 -25.007812 6.125 -25.8125 C 5.789062 -26.625 5.078125 -27.160156 3.984375 -27.421875 C 3.773438 -27.523438 3.566406 -27.664062 3.359375 -27.84375 C 3.148438 -28.03125 3.046875 -28.304688 3.046875 -28.671875 C 3.046875 -29.347656 3.332031 -29.765625 3.90625 -29.921875 C 5.46875 -30.335938 7.160156 -30.894531 8.984375 -31.59375 C 10.804688 -32.300781 12.34375 -32.992188 13.59375 -33.671875 C 13.851562 -33.828125 14.140625 -33.984375 14.453125 -34.140625 C 14.765625 -34.296875 15 -34.375 15.15625 -34.375 C 15.570312 -34.375 15.78125 -34.113281 15.78125 -33.59375 C 15.78125 -33.382812 15.765625 -32.914062 15.734375 -32.1875 C 15.710938 -31.457031 15.6875 -30.660156 15.65625 -29.796875 C 15.632812 -28.941406 15.597656 -28.175781 15.546875 -27.5 C 15.546875 -27.1875 15.625 -27.03125 15.78125 -27.03125 C 16.613281 -28.125 17.550781 -29.140625 18.59375 -30.078125 C 19.632812 -31.015625 20.738281 -31.796875 21.90625 -32.421875 C 23.082031 -33.046875 24.269531 -33.359375 25.46875 -33.359375 C 26.976562 -33.359375 28.109375 -33.046875 28.859375 -32.421875 C 29.617188 -31.796875 30 -31.015625 30 -30.078125 C 30 -29.347656 29.800781 -28.566406 29.40625 -27.734375 C 29.019531 -26.898438 28.523438 -26.179688 27.921875 -25.578125 C 27.328125 -24.984375 26.664062 -24.6875 25.9375 -24.6875 C 25.519531 -24.6875 25.078125 -24.773438 24.609375 -24.953125 C 24.140625 -25.140625 23.671875 -25.363281 23.203125 -25.625 C 22.734375 -25.832031 22.25 -26.039062 21.75 -26.25 C 21.257812 -26.457031 20.804688 -26.5625 20.390625 -26.5625 C 19.085938 -26.5625 17.914062 -26.078125 16.875 -25.109375 C 15.832031 -24.148438 15.3125 -22.265625 15.3125 -19.453125 L 15.3125 -5.703125 C 15.3125 -4.765625 15.648438 -4.046875 16.328125 -3.546875 C 17.003906 -3.054688 18.046875 -2.601562 19.453125 -2.1875 C 20.023438 -2.03125 20.453125 -1.859375 20.734375 -1.671875 C 21.023438 -1.492188 21.171875 -1.195312 21.171875 -0.78125 C 21.171875 -0.101562 20.703125 0.234375 19.765625 0.234375 C 18.203125 0.234375 16.726562 0.164062 15.34375 0.03125 C 13.96875 -0.09375 12.601562 -0.15625 11.25 -0.15625 C 10.363281 -0.15625 9.515625 -0.128906 8.703125 -0.078125 C 7.898438 -0.0234375 7.082031 0.0351562 6.25 0.109375 C 5.414062 0.191406 4.476562 0.234375 3.4375 0.234375 Z M 3.4375 0.234375 "/></g></g><g style="fill:#ffffff;fill-opacity:1;"><g transform="translate(112.593348, 254.901696)"><path style="stroke:none" d="M 16.5625 1.09375 C 13.695312 1.09375 11.171875 0.363281 8.984375 -1.09375 C 6.796875 -2.550781 5.078125 -4.566406 3.828125 -7.140625 C 2.578125 -9.722656 1.953125 -12.65625 1.953125 -15.9375 C 1.953125 -19.113281 2.691406 -22.015625 4.171875 -24.640625 C 5.660156 -27.273438 7.65625 -29.375 10.15625 -30.9375 C 12.65625 -32.5 15.390625 -33.28125 18.359375 -33.28125 C 20.546875 -33.28125 22.5 -32.820312 24.21875 -31.90625 C 25.9375 -31 27.300781 -29.75 28.3125 -28.15625 C 29.332031 -26.570312 29.84375 -24.789062 29.84375 -22.8125 C 29.84375 -20.9375 29.035156 -20 27.421875 -20 L 11.5625 -20 C 10.832031 -20 10.296875 -19.800781 9.953125 -19.40625 C 9.617188 -19.019531 9.453125 -18.304688 9.453125 -17.265625 C 9.453125 -15.078125 9.929688 -13.097656 10.890625 -11.328125 C 11.859375 -9.554688 13.148438 -8.148438 14.765625 -7.109375 C 16.378906 -6.066406 18.226562 -5.546875 20.3125 -5.546875 C 21.820312 -5.546875 23.210938 -5.84375 24.484375 -6.4375 C 25.765625 -7.039062 26.976562 -7.863281 28.125 -8.90625 C 28.332031 -9.0625 28.515625 -9.203125 28.671875 -9.328125 C 28.828125 -9.460938 28.984375 -9.53125 29.140625 -9.53125 C 29.660156 -9.53125 29.921875 -9.21875 29.921875 -8.59375 C 29.921875 -7.863281 29.609375 -6.976562 28.984375 -5.9375 C 28.359375 -4.738281 27.457031 -3.59375 26.28125 -2.5 C 25.113281 -1.40625 23.695312 -0.535156 22.03125 0.109375 C 20.363281 0.765625 18.539062 1.09375 16.5625 1.09375 Z M 11.5625 -23.046875 L 17.109375 -23.046875 C 18.460938 -23.046875 19.476562 -23.070312 20.15625 -23.125 C 20.832031 -23.175781 21.484375 -23.28125 22.109375 -23.4375 C 22.367188 -23.488281 22.550781 -23.707031 22.65625 -24.09375 C 22.757812 -24.488281 22.8125 -24.945312 22.8125 -25.46875 C 22.8125 -26.875 22.273438 -28.054688 21.203125 -29.015625 C 20.140625 -29.984375 18.828125 -30.46875 17.265625 -30.46875 C 16.171875 -30.46875 15.101562 -30.140625 14.0625 -29.484375 C 13.019531 -28.835938 12.160156 -28.019531 11.484375 -27.03125 C 10.804688 -26.039062 10.492188 -25.023438 10.546875 -23.984375 C 10.546875 -23.359375 10.882812 -23.046875 11.5625 -23.046875 Z M 11.5625 -23.046875 "/></g></g><g style="fill:#ffffff;fill-opacity:1;"><g transform="translate(140.162098, 254.901696)"><path style="stroke:none" d="M 3.28125 0.234375 C 2.863281 0.234375 2.5 0.144531 2.1875 -0.03125 C 1.875 -0.21875 1.71875 -0.46875 1.71875 -0.78125 C 1.71875 -1.195312 1.882812 -1.507812 2.21875 -1.71875 C 2.5625 -1.925781 2.992188 -2.109375 3.515625 -2.265625 C 4.296875 -2.472656 5.007812 -2.757812 5.65625 -3.125 C 6.3125 -3.488281 6.640625 -4.191406 6.640625 -5.234375 L 6.640625 -22.734375 C 6.640625 -23.929688 6.46875 -24.957031 6.125 -25.8125 C 5.789062 -26.675781 5.078125 -27.238281 3.984375 -27.5 C 3.773438 -27.601562 3.59375 -27.742188 3.4375 -27.921875 C 3.28125 -28.109375 3.203125 -28.410156 3.203125 -28.828125 C 3.203125 -29.503906 3.4375 -29.894531 3.90625 -30 C 5.726562 -30.414062 7.535156 -30.972656 9.328125 -31.671875 C 11.128906 -32.378906 12.707031 -33.125 14.0625 -33.90625 C 14.269531 -34.007812 14.476562 -34.140625 14.6875 -34.296875 C 14.894531 -34.453125 15.101562 -34.53125 15.3125 -34.53125 C 15.570312 -34.53125 15.738281 -34.4375 15.8125 -34.25 C 15.894531 -34.070312 15.9375 -33.878906 15.9375 -33.671875 C 15.9375 -33.304688 15.867188 -32.628906 15.734375 -31.640625 C 15.609375 -30.648438 15.546875 -29.789062 15.546875 -29.0625 C 15.546875 -28.851562 15.554688 -28.628906 15.578125 -28.390625 C 15.609375 -28.160156 15.648438 -28.019531 15.703125 -27.96875 C 17.472656 -29.632812 19.304688 -30.9375 21.203125 -31.875 C 23.109375 -32.8125 25.257812 -33.28125 27.65625 -33.28125 C 30.3125 -33.28125 32.535156 -32.265625 34.328125 -30.234375 C 36.128906 -28.203125 37.03125 -25.519531 37.03125 -22.1875 L 37.03125 -5.15625 C 37.03125 -4.113281 37.335938 -3.4375 37.953125 -3.125 C 38.578125 -2.8125 39.28125 -2.523438 40.0625 -2.265625 C 40.476562 -2.109375 40.867188 -1.910156 41.234375 -1.671875 C 41.597656 -1.441406 41.78125 -1.117188 41.78125 -0.703125 C 41.78125 -0.390625 41.609375 -0.15625 41.265625 0 C 40.929688 0.15625 40.609375 0.234375 40.296875 0.234375 C 39.265625 0.234375 38.359375 0.191406 37.578125 0.109375 C 36.796875 0.0351562 36.023438 -0.0234375 35.265625 -0.078125 C 34.515625 -0.128906 33.671875 -0.15625 32.734375 -0.15625 C 31.847656 -0.15625 31.015625 -0.128906 30.234375 -0.078125 C 29.453125 -0.0234375 28.65625 0.0351562 27.84375 0.109375 C 27.039062 0.191406 26.117188 0.234375 25.078125 0.234375 C 24.816406 0.234375 24.53125 0.15625 24.21875 0 C 23.90625 -0.15625 23.75 -0.390625 23.75 -0.703125 C 23.75 -1.117188 23.90625 -1.441406 24.21875 -1.671875 C 24.53125 -1.910156 24.894531 -2.109375 25.3125 -2.265625 C 26.09375 -2.523438 26.78125 -2.8125 27.375 -3.125 C 27.976562 -3.4375 28.28125 -4.113281 28.28125 -5.15625 L 28.28125 -21.015625 C 28.28125 -23.097656 27.769531 -24.738281 26.75 -25.9375 C 25.738281 -27.132812 24.375 -27.734375 22.65625 -27.734375 C 21.25 -27.734375 20.023438 -27.523438 18.984375 -27.109375 C 17.941406 -26.691406 16.925781 -26.09375 15.9375 -25.3125 C 15.726562 -25.15625 15.570312 -24.929688 15.46875 -24.640625 C 15.363281 -24.359375 15.3125 -24.0625 15.3125 -23.75 L 15.3125 -5.15625 C 15.3125 -4.113281 15.609375 -3.421875 16.203125 -3.078125 C 16.804688 -2.742188 17.5 -2.472656 18.28125 -2.265625 C 19.375 -1.898438 19.921875 -1.40625 19.921875 -0.78125 C 19.921875 -0.46875 19.789062 -0.21875 19.53125 -0.03125 C 19.269531 0.144531 18.929688 0.234375 18.515625 0.234375 C 17.472656 0.234375 16.5625 0.191406 15.78125 0.109375 C 15 0.0351562 14.242188 -0.0234375 13.515625 -0.078125 C 12.785156 -0.128906 11.953125 -0.15625 11.015625 -0.15625 C 10.128906 -0.15625 9.296875 -0.128906 8.515625 -0.078125 C 7.734375 -0.0234375 6.925781 0.0351562 6.09375 0.109375 C 5.257812 0.191406 4.320312 0.234375 3.28125 0.234375 Z M 3.28125 0.234375 "/></g></g><g style="fill:#ffffff;fill-opacity:1;"><g transform="translate(179.055613, 254.901696)"><path style="stroke:none" d="M 27.96875 1.484375 C 27.8125 1.484375 27.585938 1.335938 27.296875 1.046875 C 27.015625 0.765625 26.875 0.546875 26.875 0.390625 C 26.976562 -0.335938 27.066406 -1.101562 27.140625 -1.90625 C 27.222656 -2.71875 27.289062 -3.410156 27.34375 -3.984375 L 27.34375 -4.453125 C 26.351562 -2.992188 24.957031 -1.703125 23.15625 -0.578125 C 21.363281 0.535156 19.320312 1.09375 17.03125 1.09375 C 14.113281 1.09375 11.535156 0.351562 9.296875 -1.125 C 7.054688 -2.613281 5.296875 -4.59375 4.015625 -7.0625 C 2.742188 -9.539062 2.109375 -12.210938 2.109375 -15.078125 C 2.109375 -18.460938 2.875 -21.519531 4.40625 -24.25 C 5.945312 -26.988281 8.097656 -29.148438 10.859375 -30.734375 C 13.617188 -32.328125 16.820312 -33.125 20.46875 -33.125 C 21.351562 -33.125 22.25 -33.054688 23.15625 -32.921875 C 24.070312 -32.796875 24.867188 -32.628906 25.546875 -32.421875 C 26.171875 -32.265625 26.507812 -32.1875 26.5625 -32.1875 C 26.820312 -32.1875 26.953125 -32.628906 26.953125 -33.515625 L 26.953125 -43.34375 C 26.953125 -45.320312 26.691406 -46.703125 26.171875 -47.484375 C 25.648438 -48.265625 24.816406 -48.757812 23.671875 -48.96875 C 23.097656 -49.125 22.8125 -49.515625 22.8125 -50.140625 C 22.8125 -50.710938 23.070312 -51.078125 23.59375 -51.234375 C 25.625 -51.703125 27.535156 -52.234375 29.328125 -52.828125 C 31.128906 -53.429688 32.601562 -53.992188 33.75 -54.515625 C 34.269531 -54.722656 34.644531 -54.863281 34.875 -54.9375 C 35.113281 -55.019531 35.257812 -55.0625 35.3125 -55.0625 C 35.832031 -55.0625 36.09375 -54.800781 36.09375 -54.28125 C 36.09375 -54.28125 36.066406 -53.96875 36.015625 -53.34375 C 35.960938 -52.71875 35.894531 -51.867188 35.8125 -50.796875 C 35.738281 -49.734375 35.675781 -48.523438 35.625 -47.171875 L 35.390625 -9.140625 C 35.390625 -7.367188 35.519531 -6.09375 35.78125 -5.3125 C 36.039062 -4.53125 36.484375 -4.140625 37.109375 -4.140625 C 37.367188 -4.140625 37.707031 -4.148438 38.125 -4.171875 C 38.539062 -4.203125 39.265625 -4.269531 40.296875 -4.375 C 41.078125 -4.425781 41.46875 -4.164062 41.46875 -3.59375 C 41.46875 -3.175781 41.320312 -2.769531 41.03125 -2.375 C 40.75 -1.988281 40.476562 -1.796875 40.21875 -1.796875 C 38.457031 -1.585938 36.664062 -1.25 34.84375 -0.78125 C 33.019531 -0.3125 31.171875 0.285156 29.296875 1.015625 C 28.929688 1.171875 28.65625 1.285156 28.46875 1.359375 C 28.289062 1.441406 28.125 1.484375 27.96875 1.484375 Z M 20.625 -3.828125 C 21.613281 -3.828125 22.707031 -4.070312 23.90625 -4.5625 C 25.101562 -5.0625 26.117188 -5.753906 26.953125 -6.640625 L 26.953125 -22.890625 C 26.953125 -23.984375 26.585938 -25.0625 25.859375 -26.125 C 25.128906 -27.195312 24.164062 -28.082031 22.96875 -28.78125 C 21.769531 -29.488281 20.492188 -29.84375 19.140625 -29.84375 C 17.890625 -29.84375 16.664062 -29.382812 15.46875 -28.46875 C 14.269531 -27.5625 13.265625 -26.171875 12.453125 -24.296875 C 11.648438 -22.421875 11.25 -20.023438 11.25 -17.109375 C 11.25 -14.710938 11.546875 -12.664062 12.140625 -10.96875 C 12.742188 -9.28125 13.515625 -7.914062 14.453125 -6.875 C 15.390625 -5.832031 16.40625 -5.0625 17.5 -4.5625 C 18.59375 -4.070312 19.632812 -3.828125 20.625 -3.828125 Z M 20.625 -3.828125 "/></g></g><g style="fill:#ffffff;fill-opacity:1;"><g transform="translate(216.699499, 254.901696)"><path style="stroke:none" d="M 3.125 0.234375 C 2.707031 0.234375 2.367188 0.144531 2.109375 -0.03125 C 1.847656 -0.21875 1.71875 -0.46875 1.71875 -0.78125 C 1.71875 -1.195312 1.875 -1.507812 2.1875 -1.71875 C 2.5 -1.925781 2.863281 -2.082031 3.28125 -2.1875 C 4.53125 -2.5 5.425781 -2.835938 5.96875 -3.203125 C 6.519531 -3.566406 6.796875 -4.191406 6.796875 -5.078125 L 6.796875 -22.03125 C 6.796875 -23.695312 6.535156 -24.945312 6.015625 -25.78125 C 5.492188 -26.613281 4.609375 -27.132812 3.359375 -27.34375 C 3.097656 -27.394531 2.890625 -27.535156 2.734375 -27.765625 C 2.578125 -28.003906 2.5 -28.28125 2.5 -28.59375 C 2.5 -29.320312 2.785156 -29.710938 3.359375 -29.765625 C 5.859375 -30.285156 8.03125 -31 9.875 -31.90625 C 11.726562 -32.820312 13.148438 -33.539062 14.140625 -34.0625 C 14.867188 -34.425781 15.335938 -34.609375 15.546875 -34.609375 C 16.117188 -34.609375 16.40625 -34.347656 16.40625 -33.828125 C 16.351562 -33.097656 16.25 -32.09375 16.09375 -30.8125 C 15.9375 -29.539062 15.789062 -28.1875 15.65625 -26.75 C 15.53125 -25.320312 15.46875 -23.984375 15.46875 -22.734375 L 15.46875 -5.15625 C 15.46875 -4.375 15.753906 -3.773438 16.328125 -3.359375 C 16.898438 -2.941406 17.8125 -2.550781 19.0625 -2.1875 C 19.476562 -2.03125 19.84375 -1.859375 20.15625 -1.671875 C 20.46875 -1.492188 20.625 -1.195312 20.625 -0.78125 C 20.625 -0.15625 20.179688 0.15625 19.296875 0.15625 C 18.304688 0.15625 17.351562 0.128906 16.4375 0.078125 C 15.53125 0.0234375 14.644531 -0.0234375 13.78125 -0.078125 C 12.925781 -0.128906 12.03125 -0.15625 11.09375 -0.15625 C 10.207031 -0.15625 9.347656 -0.128906 8.515625 -0.078125 C 7.679688 -0.0234375 6.832031 0.0351562 5.96875 0.109375 C 5.113281 0.191406 4.164062 0.234375 3.125 0.234375 Z M 10.9375 -39.125 C 9.425781 -39.125 8.148438 -39.644531 7.109375 -40.6875 C 6.066406 -41.726562 5.546875 -42.976562 5.546875 -44.4375 C 5.546875 -46.050781 6.066406 -47.378906 7.109375 -48.421875 C 8.148438 -49.460938 9.425781 -49.984375 10.9375 -49.984375 C 12.5 -49.984375 13.800781 -49.460938 14.84375 -48.421875 C 15.882812 -47.378906 16.40625 -46.050781 16.40625 -44.4375 C 16.40625 -42.976562 15.882812 -41.726562 14.84375 -40.6875 C 13.800781 -39.644531 12.5 -39.125 10.9375 -39.125 Z M 10.9375 -39.125 "/></g></g><g style="fill:#ffffff;fill-opacity:1;"><g transform="translate(234.193096, 254.901696)"><path style="stroke:none" d="M 2.890625 21.09375 C 2.578125 21.09375 2.238281 21.015625 1.875 20.859375 C 1.507812 20.703125 1.328125 20.441406 1.328125 20.078125 C 1.328125 19.660156 1.507812 19.347656 1.875 19.140625 C 2.238281 18.929688 2.65625 18.75 3.125 18.59375 C 4.113281 18.28125 4.878906 17.925781 5.421875 17.53125 C 5.972656 17.144531 6.25 16.507812 6.25 15.625 L 6.25 -22.578125 C 6.25 -23.097656 6.117188 -23.707031 5.859375 -24.40625 C 5.597656 -25.113281 5.21875 -25.765625 4.71875 -26.359375 C 4.226562 -26.960938 3.59375 -27.316406 2.8125 -27.421875 C 2.550781 -27.523438 2.351562 -27.664062 2.21875 -27.84375 C 2.09375 -28.03125 2.03125 -28.332031 2.03125 -28.75 C 2.03125 -29.113281 2.09375 -29.382812 2.21875 -29.5625 C 2.351562 -29.75 2.523438 -29.867188 2.734375 -29.921875 C 4.609375 -30.335938 6.484375 -30.867188 8.359375 -31.515625 C 10.234375 -32.171875 11.875 -32.8125 13.28125 -33.4375 C 13.4375 -33.488281 13.59375 -33.578125 13.75 -33.703125 C 13.90625 -33.835938 14.0625 -33.90625 14.21875 -33.90625 C 14.476562 -33.90625 14.644531 -33.8125 14.71875 -33.625 C 14.800781 -33.445312 14.84375 -33.226562 14.84375 -32.96875 C 14.84375 -32.550781 14.773438 -31.859375 14.640625 -30.890625 C 14.515625 -29.929688 14.453125 -29.113281 14.453125 -28.4375 C 14.453125 -27.914062 14.503906 -27.628906 14.609375 -27.578125 C 15.128906 -28.097656 16.050781 -28.785156 17.375 -29.640625 C 18.707031 -30.503906 20.242188 -31.273438 21.984375 -31.953125 C 23.734375 -32.628906 25.414062 -32.96875 27.03125 -32.96875 C 29.789062 -32.96875 32.144531 -32.222656 34.09375 -30.734375 C 36.050781 -29.253906 37.546875 -27.351562 38.578125 -25.03125 C 39.617188 -22.71875 40.140625 -20.3125 40.140625 -17.8125 C 40.140625 -15.414062 39.6875 -13.082031 38.78125 -10.8125 C 37.875 -8.550781 36.585938 -6.507812 34.921875 -4.6875 C 33.253906 -2.863281 31.335938 -1.40625 29.171875 -0.3125 C 27.015625 0.78125 24.6875 1.328125 22.1875 1.328125 C 21.5625 1.328125 20.816406 1.234375 19.953125 1.046875 C 19.097656 0.867188 18.238281 0.632812 17.375 0.34375 C 16.519531 0.0625 15.78125 -0.257812 15.15625 -0.625 C 15.101562 -0.625 15.050781 -0.476562 15 -0.1875 C 14.945312 0.09375 14.90625 0.414062 14.875 0.78125 C 14.851562 1.144531 14.84375 1.429688 14.84375 1.640625 L 14.84375 15.15625 C 14.84375 15.832031 15.050781 16.390625 15.46875 16.828125 C 15.882812 17.273438 16.40625 17.628906 17.03125 17.890625 C 17.65625 18.148438 18.359375 18.382812 19.140625 18.59375 C 19.660156 18.75 20.078125 18.929688 20.390625 19.140625 C 20.703125 19.347656 20.859375 19.660156 20.859375 20.078125 C 20.859375 20.390625 20.703125 20.632812 20.390625 20.8125 C 20.078125 21 19.765625 21.09375 19.453125 21.09375 C 17.890625 21.09375 16.363281 21.023438 14.875 20.890625 C 13.394531 20.765625 11.976562 20.703125 10.625 20.703125 C 9.738281 20.703125 8.90625 20.726562 8.125 20.78125 C 7.34375 20.832031 6.535156 20.894531 5.703125 20.96875 C 4.867188 21.050781 3.929688 21.09375 2.890625 21.09375 Z M 22.421875 -1.953125 C 23.046875 -1.953125 23.828125 -2.171875 24.765625 -2.609375 C 25.703125 -3.054688 26.625 -3.773438 27.53125 -4.765625 C 28.445312 -5.753906 29.203125 -7.109375 29.796875 -8.828125 C 30.398438 -10.546875 30.703125 -12.65625 30.703125 -15.15625 C 30.703125 -18.019531 30.390625 -20.320312 29.765625 -22.0625 C 29.140625 -23.8125 28.359375 -25.128906 27.421875 -26.015625 C 26.484375 -26.898438 25.53125 -27.484375 24.5625 -27.765625 C 23.601562 -28.054688 22.757812 -28.203125 22.03125 -28.203125 C 20.988281 -28.203125 19.921875 -27.976562 18.828125 -27.53125 C 17.734375 -27.09375 16.820312 -26.570312 16.09375 -25.96875 C 15.363281 -25.375 15 -24.867188 15 -24.453125 C 15 -23.722656 15 -22.769531 15 -21.59375 C 15 -20.425781 14.984375 -19.175781 14.953125 -17.84375 C 14.929688 -16.519531 14.90625 -15.3125 14.875 -14.21875 C 14.851562 -13.125 14.84375 -12.34375 14.84375 -11.875 C 14.84375 -10.363281 15.179688 -8.835938 15.859375 -7.296875 C 16.535156 -5.765625 17.445312 -4.488281 18.59375 -3.46875 C 19.738281 -2.457031 21.015625 -1.953125 22.421875 -1.953125 Z M 22.421875 -1.953125 "/></g></g><g style="fill:#ffffff;fill-opacity:1;"><g transform="translate(272.071285, 254.901696)"><path style="stroke:none" d="M 3.125 0.234375 C 2.707031 0.234375 2.367188 0.144531 2.109375 -0.03125 C 1.847656 -0.21875 1.71875 -0.46875 1.71875 -0.78125 C 1.71875 -1.195312 1.875 -1.507812 2.1875 -1.71875 C 2.5 -1.925781 2.863281 -2.082031 3.28125 -2.1875 C 4.53125 -2.5 5.425781 -2.835938 5.96875 -3.203125 C 6.519531 -3.566406 6.796875 -4.191406 6.796875 -5.078125 L 6.796875 -22.03125 C 6.796875 -23.695312 6.535156 -24.945312 6.015625 -25.78125 C 5.492188 -26.613281 4.609375 -27.132812 3.359375 -27.34375 C 3.097656 -27.394531 2.890625 -27.535156 2.734375 -27.765625 C 2.578125 -28.003906 2.5 -28.28125 2.5 -28.59375 C 2.5 -29.320312 2.785156 -29.710938 3.359375 -29.765625 C 5.859375 -30.285156 8.03125 -31 9.875 -31.90625 C 11.726562 -32.820312 13.148438 -33.539062 14.140625 -34.0625 C 14.867188 -34.425781 15.335938 -34.609375 15.546875 -34.609375 C 16.117188 -34.609375 16.40625 -34.347656 16.40625 -33.828125 C 16.351562 -33.097656 16.25 -32.09375 16.09375 -30.8125 C 15.9375 -29.539062 15.789062 -28.1875 15.65625 -26.75 C 15.53125 -25.320312 15.46875 -23.984375 15.46875 -22.734375 L 15.46875 -5.15625 C 15.46875 -4.375 15.753906 -3.773438 16.328125 -3.359375 C 16.898438 -2.941406 17.8125 -2.550781 19.0625 -2.1875 C 19.476562 -2.03125 19.84375 -1.859375 20.15625 -1.671875 C 20.46875 -1.492188 20.625 -1.195312 20.625 -0.78125 C 20.625 -0.15625 20.179688 0.15625 19.296875 0.15625 C 18.304688 0.15625 17.351562 0.128906 16.4375 0.078125 C 15.53125 0.0234375 14.644531 -0.0234375 13.78125 -0.078125 C 12.925781 -0.128906 12.03125 -0.15625 11.09375 -0.15625 C 10.207031 -0.15625 9.347656 -0.128906 8.515625 -0.078125 C 7.679688 -0.0234375 6.832031 0.0351562 5.96875 0.109375 C 5.113281 0.191406 4.164062 0.234375 3.125 0.234375 Z M 10.9375 -39.125 C 9.425781 -39.125 8.148438 -39.644531 7.109375 -40.6875 C 6.066406 -41.726562 5.546875 -42.976562 5.546875 -44.4375 C 5.546875 -46.050781 6.066406 -47.378906 7.109375 -48.421875 C 8.148438 -49.460938 9.425781 -49.984375 10.9375 -49.984375 C 12.5 -49.984375 13.800781 -49.460938 14.84375 -48.421875 C 15.882812 -47.378906 16.40625 -46.050781 16.40625 -44.4375 C 16.40625 -42.976562 15.882812 -41.726562 14.84375 -40.6875 C 13.800781 -39.644531 12.5 -39.125 10.9375 -39.125 Z M 10.9375 -39.125 "/></g></g><g style="fill:#ffffff;fill-opacity:1;"><g transform="translate(289.564882, 254.901696)"><path style="stroke:none" d="M 16.328125 1.09375 C 13.203125 1.09375 10.832031 0.257812 9.21875 -1.40625 C 7.601562 -3.070312 6.796875 -5.492188 6.796875 -8.671875 L 6.796875 -26.71875 C 6.796875 -27.132812 6.625 -27.445312 6.28125 -27.65625 C 5.945312 -27.863281 5.285156 -27.992188 4.296875 -28.046875 L 3.4375 -28.046875 C 3.125 -28.046875 2.863281 -28.289062 2.65625 -28.78125 C 2.445312 -29.28125 2.34375 -29.765625 2.34375 -30.234375 C 2.34375 -30.335938 2.378906 -30.476562 2.453125 -30.65625 C 2.535156 -30.84375 2.65625 -30.960938 2.8125 -31.015625 C 4.007812 -31.535156 5.234375 -32.25 6.484375 -33.15625 C 7.734375 -34.070312 8.90625 -35.007812 10 -35.96875 C 11.09375 -36.9375 12.003906 -37.757812 12.734375 -38.4375 C 13.097656 -38.6875 13.394531 -38.914062 13.625 -39.125 C 13.863281 -39.332031 14.140625 -39.4375 14.453125 -39.4375 C 14.867188 -39.4375 15.191406 -39.34375 15.421875 -39.15625 C 15.660156 -38.976562 15.726562 -38.632812 15.625 -38.125 L 15.15625 -33.828125 C 15.101562 -33.203125 15.242188 -32.785156 15.578125 -32.578125 C 15.921875 -32.367188 16.40625 -32.265625 17.03125 -32.265625 L 26.25 -32.265625 C 26.40625 -32.265625 26.5625 -32.082031 26.71875 -31.71875 C 26.875 -31.351562 26.953125 -30.988281 26.953125 -30.625 C 26.953125 -29.945312 26.859375 -29.320312 26.671875 -28.75 C 26.492188 -28.175781 26.273438 -27.890625 26.015625 -27.890625 L 18.59375 -27.890625 C 17.394531 -27.890625 16.570312 -27.757812 16.125 -27.5 C 15.6875 -27.238281 15.46875 -26.691406 15.46875 -25.859375 L 15.46875 -10.859375 C 15.46875 -8.566406 15.910156 -6.832031 16.796875 -5.65625 C 17.679688 -4.488281 18.929688 -3.90625 20.546875 -3.90625 C 22.003906 -3.90625 23.109375 -4.035156 23.859375 -4.296875 C 24.617188 -4.554688 25.3125 -4.867188 25.9375 -5.234375 C 26.09375 -5.335938 26.222656 -5.390625 26.328125 -5.390625 C 26.585938 -5.390625 26.78125 -5.234375 26.90625 -4.921875 C 27.039062 -4.609375 27.109375 -4.269531 27.109375 -3.90625 C 27.109375 -3.644531 26.597656 -3.097656 25.578125 -2.265625 C 24.566406 -1.429688 23.238281 -0.664062 21.59375 0.03125 C 19.957031 0.738281 18.203125 1.09375 16.328125 1.09375 Z M 16.328125 1.09375 "/></g></g><g style="fill:#ffffff;fill-opacity:1;"><g transform="translate(312.994223, 254.901696)"><path style="stroke:none" d="M 6.09375 22.1875 C 4.84375 22.1875 3.671875 21.78125 2.578125 20.96875 C 1.484375 20.164062 0.9375 19.113281 0.9375 17.8125 C 0.9375 16.820312 1.179688 15.882812 1.671875 15 C 2.171875 14.113281 2.914062 13.671875 3.90625 13.671875 C 4.632812 13.671875 5.375 13.800781 6.125 14.0625 C 6.882812 14.320312 7.601562 14.425781 8.28125 14.375 C 8.90625 14.320312 9.359375 14.175781 9.640625 13.9375 C 9.929688 13.707031 10.257812 13.28125 10.625 12.65625 C 11.039062 11.925781 11.492188 11.128906 11.984375 10.265625 C 12.484375 9.410156 13.003906 8.382812 13.546875 7.1875 C 14.097656 5.988281 14.710938 4.554688 15.390625 2.890625 C 15.859375 1.796875 16.09375 0.753906 16.09375 -0.234375 C 16.09375 -0.859375 16.015625 -1.457031 15.859375 -2.03125 C 15.703125 -2.601562 15.519531 -3.125 15.3125 -3.59375 L 5.859375 -25.859375 C 5.441406 -26.898438 4.929688 -27.8125 4.328125 -28.59375 C 3.734375 -29.375 2.992188 -29.894531 2.109375 -30.15625 C 1.640625 -30.363281 1.257812 -30.570312 0.96875 -30.78125 C 0.6875 -30.988281 0.546875 -31.300781 0.546875 -31.71875 C 0.546875 -32.132812 0.753906 -32.378906 1.171875 -32.453125 C 1.585938 -32.535156 1.953125 -32.578125 2.265625 -32.578125 C 3.460938 -32.578125 4.425781 -32.550781 5.15625 -32.5 C 5.882812 -32.445312 6.5625 -32.394531 7.1875 -32.34375 C 7.8125 -32.289062 8.488281 -32.265625 9.21875 -32.265625 C 10.3125 -32.265625 11.195312 -32.289062 11.875 -32.34375 C 12.550781 -32.394531 13.265625 -32.445312 14.015625 -32.5 C 14.773438 -32.550781 15.726562 -32.578125 16.875 -32.578125 C 17.238281 -32.578125 17.628906 -32.507812 18.046875 -32.375 C 18.460938 -32.25 18.671875 -31.976562 18.671875 -31.5625 C 18.671875 -31.144531 18.4375 -30.816406 17.96875 -30.578125 C 17.5 -30.347656 17.054688 -30.15625 16.640625 -30 C 16.117188 -29.84375 15.703125 -29.539062 15.390625 -29.09375 C 15.078125 -28.65625 14.921875 -28.019531 14.921875 -27.1875 C 14.921875 -26.820312 15 -26.363281 15.15625 -25.8125 C 15.3125 -25.269531 15.492188 -24.6875 15.703125 -24.0625 L 21.09375 -11.015625 C 21.144531 -10.804688 21.25 -10.703125 21.40625 -10.703125 C 21.457031 -10.703125 21.535156 -10.804688 21.640625 -11.015625 L 26.09375 -23.75 C 26.25 -24.113281 26.390625 -24.59375 26.515625 -25.1875 C 26.648438 -25.789062 26.71875 -26.300781 26.71875 -26.71875 C 26.71875 -27.65625 26.492188 -28.367188 26.046875 -28.859375 C 25.609375 -29.359375 25.128906 -29.710938 24.609375 -29.921875 C 24.191406 -30.128906 23.75 -30.347656 23.28125 -30.578125 C 22.8125 -30.816406 22.578125 -31.144531 22.578125 -31.5625 C 22.578125 -31.976562 22.796875 -32.25 23.234375 -32.375 C 23.679688 -32.507812 24.0625 -32.578125 24.375 -32.578125 C 25.519531 -32.578125 26.484375 -32.523438 27.265625 -32.421875 C 28.046875 -32.316406 28.957031 -32.265625 30 -32.265625 C 30.675781 -32.265625 31.234375 -32.289062 31.671875 -32.34375 C 32.117188 -32.394531 32.601562 -32.445312 33.125 -32.5 C 33.644531 -32.550781 34.296875 -32.578125 35.078125 -32.578125 C 35.390625 -32.578125 35.765625 -32.535156 36.203125 -32.453125 C 36.648438 -32.378906 36.875 -32.132812 36.875 -31.71875 C 36.875 -31.300781 36.726562 -30.988281 36.4375 -30.78125 C 36.15625 -30.570312 35.78125 -30.363281 35.3125 -30.15625 C 34.425781 -29.894531 33.566406 -29.304688 32.734375 -28.390625 C 31.898438 -27.484375 31.222656 -26.429688 30.703125 -25.234375 L 19.453125 1.953125 C 19.140625 2.679688 18.722656 3.65625 18.203125 4.875 C 17.679688 6.101562 17.117188 7.445312 16.515625 8.90625 C 15.921875 10.363281 15.285156 11.875 14.609375 13.4375 C 13.929688 15 13.28125 16.535156 12.65625 18.046875 C 12.082031 19.398438 11.207031 20.425781 10.03125 21.125 C 8.863281 21.832031 7.550781 22.1875 6.09375 22.1875 Z M 6.09375 22.1875 "/></g></g></g></svg>