<svg xmlns="http://www.w3.org/2000/svg" xmlns:xlink="http://www.w3.org/1999/xlink" width="500" zoomAndPan="magnify" viewBox="0 0 375 374.999991" height="500" preserveAspectRatio="xMidYMid meet" version="1.2"><defs><clipPath id="5565c37f57"><path d="M 119.570312 70.789062 L 255 70.789062 L 255 160 L 119.570312 160 Z M 119.570312 70.789062 "/></clipPath></defs><g id="8045230ff4"><g style="fill:#000000;fill-opacity:1;"><g transform="translate(10.443465, 242.482939)"><path style="stroke:none" d="M 18.265625 1.28125 C 15.816406 1.28125 13.5 0.96875 11.3125 0.34375 C 9.125 -0.28125 7.117188 -1.21875 5.296875 -2.46875 C 4.953125 -2.757812 4.632812 -3.0625 4.34375 -3.375 C 4.0625 -3.6875 3.835938 -4.039062 3.671875 -4.4375 C 3.210938 -5.863281 2.894531 -7.613281 2.71875 -9.6875 C 2.550781 -11.769531 2.5 -13.773438 2.5625 -15.703125 C 2.5625 -16.109375 2.71875 -16.394531 3.03125 -16.5625 C 3.34375 -16.726562 3.726562 -16.8125 4.1875 -16.8125 C 4.632812 -16.8125 4.988281 -16.738281 5.25 -16.59375 C 5.507812 -16.457031 5.695312 -16.191406 5.8125 -15.796875 C 7.0625 -11.523438 8.878906 -8.191406 11.265625 -5.796875 C 13.660156 -3.410156 16.363281 -2.21875 19.375 -2.21875 C 21.257812 -2.21875 22.851562 -2.644531 24.15625 -3.5 C 25.46875 -4.351562 26.460938 -5.460938 27.140625 -6.828125 C 27.828125 -8.191406 28.171875 -9.671875 28.171875 -11.265625 C 28.171875 -13.253906 27.816406 -14.90625 27.109375 -16.21875 C 26.398438 -17.53125 25.332031 -18.710938 23.90625 -19.765625 C 22.476562 -20.816406 20.6875 -21.941406 18.53125 -23.140625 C 16.195312 -24.503906 13.914062 -25.9375 11.6875 -27.4375 C 9.46875 -28.945312 7.644531 -30.738281 6.21875 -32.8125 C 4.800781 -34.894531 4.09375 -37.472656 4.09375 -40.546875 C 4.09375 -43.734375 4.90625 -46.535156 6.53125 -48.953125 C 8.15625 -51.378906 10.414062 -53.273438 13.3125 -54.640625 C 16.21875 -56.003906 19.578125 -56.6875 23.390625 -56.6875 C 25.492188 -56.6875 27.457031 -56.457031 29.28125 -56 C 31.101562 -55.550781 32.554688 -55.097656 33.640625 -54.640625 C 34.265625 -54.410156 34.734375 -54.125 35.046875 -53.78125 C 35.359375 -53.445312 35.597656 -52.910156 35.765625 -52.171875 C 36.109375 -50.972656 36.40625 -49.546875 36.65625 -47.890625 C 36.914062 -46.242188 37.046875 -44.507812 37.046875 -42.6875 C 37.046875 -42 36.535156 -41.65625 35.515625 -41.65625 C 35.054688 -41.65625 34.597656 -41.769531 34.140625 -42 C 33.691406 -42.226562 33.410156 -42.539062 33.296875 -42.9375 C 32.273438 -46.238281 30.863281 -48.742188 29.0625 -50.453125 C 27.269531 -52.160156 25.066406 -53.015625 22.453125 -53.015625 C 20.691406 -53.015625 19.179688 -52.710938 17.921875 -52.109375 C 16.671875 -51.515625 15.675781 -50.601562 14.9375 -49.375 C 14.195312 -48.15625 13.828125 -46.582031 13.828125 -44.65625 C 13.828125 -43.175781 14.320312 -41.804688 15.3125 -40.546875 C 16.3125 -39.296875 17.707031 -38.070312 19.5 -36.875 C 21.300781 -35.6875 23.3125 -34.378906 25.53125 -32.953125 C 28.257812 -31.359375 30.546875 -29.75 32.390625 -28.125 C 34.242188 -26.507812 35.65625 -24.71875 36.625 -22.75 C 37.59375 -20.789062 38.078125 -18.472656 38.078125 -15.796875 C 38.078125 -12.035156 37.25 -8.890625 35.59375 -6.359375 C 33.945312 -3.828125 31.644531 -1.921875 28.6875 -0.640625 C 25.726562 0.640625 22.253906 1.28125 18.265625 1.28125 Z M 18.265625 1.28125 "/></g></g><g style="fill:#000000;fill-opacity:1;"><g transform="translate(47.064936, 242.482939)"><path style="stroke:none" d="M 18.09375 1.1875 C 14.96875 1.1875 12.207031 0.394531 9.8125 -1.1875 C 7.425781 -2.78125 5.550781 -4.984375 4.1875 -7.796875 C 2.820312 -10.617188 2.140625 -13.828125 2.140625 -17.421875 C 2.140625 -20.890625 2.945312 -24.0625 4.5625 -26.9375 C 6.1875 -29.8125 8.363281 -32.101562 11.09375 -33.8125 C 13.832031 -35.519531 16.820312 -36.375 20.0625 -36.375 C 22.457031 -36.375 24.59375 -35.875 26.46875 -34.875 C 28.34375 -33.875 29.832031 -32.503906 30.9375 -30.765625 C 32.050781 -29.035156 32.609375 -27.085938 32.609375 -24.921875 C 32.609375 -22.878906 31.726562 -21.859375 29.96875 -21.859375 L 12.640625 -21.859375 C 11.835938 -21.859375 11.25 -21.644531 10.875 -21.21875 C 10.507812 -20.789062 10.328125 -20.007812 10.328125 -18.875 C 10.328125 -16.476562 10.851562 -14.3125 11.90625 -12.375 C 12.957031 -10.445312 14.363281 -8.910156 16.125 -7.765625 C 17.894531 -6.628906 19.921875 -6.0625 22.203125 -6.0625 C 23.847656 -6.0625 25.367188 -6.390625 26.765625 -7.046875 C 28.160156 -7.703125 29.484375 -8.597656 30.734375 -9.734375 C 30.960938 -9.898438 31.160156 -10.054688 31.328125 -10.203125 C 31.503906 -10.347656 31.675781 -10.421875 31.84375 -10.421875 C 32.414062 -10.421875 32.703125 -10.078125 32.703125 -9.390625 C 32.703125 -8.597656 32.359375 -7.628906 31.671875 -6.484375 C 30.992188 -5.179688 30.015625 -3.929688 28.734375 -2.734375 C 27.453125 -1.535156 25.898438 -0.582031 24.078125 0.125 C 22.253906 0.832031 20.257812 1.1875 18.09375 1.1875 Z M 12.640625 -25.1875 L 18.703125 -25.1875 C 20.179688 -25.1875 21.289062 -25.210938 22.03125 -25.265625 C 22.769531 -25.328125 23.476562 -25.441406 24.15625 -25.609375 C 24.445312 -25.671875 24.644531 -25.914062 24.75 -26.34375 C 24.863281 -26.769531 24.921875 -27.265625 24.921875 -27.828125 C 24.921875 -29.367188 24.335938 -30.664062 23.171875 -31.71875 C 22.003906 -32.769531 20.570312 -33.296875 18.875 -33.296875 C 17.675781 -33.296875 16.503906 -32.9375 15.359375 -32.21875 C 14.222656 -31.507812 13.285156 -30.613281 12.546875 -29.53125 C 11.804688 -28.457031 11.46875 -27.347656 11.53125 -26.203125 C 11.53125 -25.523438 11.898438 -25.1875 12.640625 -25.1875 Z M 12.640625 -25.1875 "/></g></g><g style="fill:#000000;fill-opacity:1;"><g transform="translate(77.198467, 242.482939)"><path style="stroke:none" d="M 3.75 0.25 C 3.300781 0.25 2.90625 0.148438 2.5625 -0.046875 C 2.21875 -0.242188 2.046875 -0.515625 2.046875 -0.859375 C 2.046875 -1.304688 2.226562 -1.644531 2.59375 -1.875 C 2.96875 -2.101562 3.441406 -2.300781 4.015625 -2.46875 C 5.210938 -2.8125 6.050781 -3.222656 6.53125 -3.703125 C 7.007812 -4.191406 7.25 -4.863281 7.25 -5.71875 L 7.25 -24.921875 C 7.25 -26.234375 7.0625 -27.332031 6.6875 -28.21875 C 6.320312 -29.101562 5.546875 -29.6875 4.359375 -29.96875 C 4.128906 -30.082031 3.898438 -30.238281 3.671875 -30.4375 C 3.441406 -30.632812 3.328125 -30.929688 3.328125 -31.328125 C 3.328125 -32.066406 3.640625 -32.523438 4.265625 -32.703125 C 5.972656 -33.148438 7.820312 -33.757812 9.8125 -34.53125 C 11.8125 -35.300781 13.492188 -36.054688 14.859375 -36.796875 C 15.140625 -36.960938 15.453125 -37.128906 15.796875 -37.296875 C 16.140625 -37.472656 16.394531 -37.5625 16.5625 -37.5625 C 17.019531 -37.5625 17.25 -37.28125 17.25 -36.71875 C 17.25 -36.488281 17.234375 -35.972656 17.203125 -35.171875 C 17.171875 -34.378906 17.140625 -33.507812 17.109375 -32.5625 C 17.085938 -31.625 17.046875 -30.785156 16.984375 -30.046875 C 16.984375 -29.710938 17.070312 -29.546875 17.25 -29.546875 C 18.15625 -30.734375 19.175781 -31.835938 20.3125 -32.859375 C 21.457031 -33.890625 22.671875 -34.742188 23.953125 -35.421875 C 25.234375 -36.109375 26.523438 -36.453125 27.828125 -36.453125 C 29.484375 -36.453125 30.722656 -36.109375 31.546875 -35.421875 C 32.367188 -34.742188 32.78125 -33.894531 32.78125 -32.875 C 32.78125 -32.070312 32.566406 -31.210938 32.140625 -30.296875 C 31.710938 -29.390625 31.171875 -28.609375 30.515625 -27.953125 C 29.867188 -27.304688 29.144531 -26.984375 28.34375 -26.984375 C 27.882812 -26.984375 27.398438 -27.082031 26.890625 -27.28125 C 26.378906 -27.476562 25.867188 -27.71875 25.359375 -28 C 24.847656 -28.226562 24.320312 -28.457031 23.78125 -28.6875 C 23.238281 -28.914062 22.738281 -29.03125 22.28125 -29.03125 C 20.863281 -29.03125 19.582031 -28.503906 18.4375 -27.453125 C 17.300781 -26.398438 16.734375 -24.335938 16.734375 -21.265625 L 16.734375 -6.234375 C 16.734375 -5.210938 17.101562 -4.429688 17.84375 -3.890625 C 18.582031 -3.347656 19.722656 -2.847656 21.265625 -2.390625 C 21.890625 -2.222656 22.359375 -2.035156 22.671875 -1.828125 C 22.984375 -1.628906 23.140625 -1.304688 23.140625 -0.859375 C 23.140625 -0.117188 22.625 0.25 21.59375 0.25 C 19.882812 0.25 18.273438 0.175781 16.765625 0.03125 C 15.265625 -0.101562 13.773438 -0.171875 12.296875 -0.171875 C 11.328125 -0.171875 10.398438 -0.140625 9.515625 -0.078125 C 8.640625 -0.0234375 7.742188 0.0390625 6.828125 0.125 C 5.921875 0.207031 4.894531 0.25 3.75 0.25 Z M 3.75 0.25 "/></g></g><g style="fill:#000000;fill-opacity:1;"><g transform="translate(105.624627, 242.482939)"><path style="stroke:none" d="M 18.09375 1.1875 C 14.96875 1.1875 12.207031 0.394531 9.8125 -1.1875 C 7.425781 -2.78125 5.550781 -4.984375 4.1875 -7.796875 C 2.820312 -10.617188 2.140625 -13.828125 2.140625 -17.421875 C 2.140625 -20.890625 2.945312 -24.0625 4.5625 -26.9375 C 6.1875 -29.8125 8.363281 -32.101562 11.09375 -33.8125 C 13.832031 -35.519531 16.820312 -36.375 20.0625 -36.375 C 22.457031 -36.375 24.59375 -35.875 26.46875 -34.875 C 28.34375 -33.875 29.832031 -32.503906 30.9375 -30.765625 C 32.050781 -29.035156 32.609375 -27.085938 32.609375 -24.921875 C 32.609375 -22.878906 31.726562 -21.859375 29.96875 -21.859375 L 12.640625 -21.859375 C 11.835938 -21.859375 11.25 -21.644531 10.875 -21.21875 C 10.507812 -20.789062 10.328125 -20.007812 10.328125 -18.875 C 10.328125 -16.476562 10.851562 -14.3125 11.90625 -12.375 C 12.957031 -10.445312 14.363281 -8.910156 16.125 -7.765625 C 17.894531 -6.628906 19.921875 -6.0625 22.203125 -6.0625 C 23.847656 -6.0625 25.367188 -6.390625 26.765625 -7.046875 C 28.160156 -7.703125 29.484375 -8.597656 30.734375 -9.734375 C 30.960938 -9.898438 31.160156 -10.054688 31.328125 -10.203125 C 31.503906 -10.347656 31.675781 -10.421875 31.84375 -10.421875 C 32.414062 -10.421875 32.703125 -10.078125 32.703125 -9.390625 C 32.703125 -8.597656 32.359375 -7.628906 31.671875 -6.484375 C 30.992188 -5.179688 30.015625 -3.929688 28.734375 -2.734375 C 27.453125 -1.535156 25.898438 -0.582031 24.078125 0.125 C 22.253906 0.832031 20.257812 1.1875 18.09375 1.1875 Z M 12.640625 -25.1875 L 18.703125 -25.1875 C 20.179688 -25.1875 21.289062 -25.210938 22.03125 -25.265625 C 22.769531 -25.328125 23.476562 -25.441406 24.15625 -25.609375 C 24.445312 -25.671875 24.644531 -25.914062 24.75 -26.34375 C 24.863281 -26.769531 24.921875 -27.265625 24.921875 -27.828125 C 24.921875 -29.367188 24.335938 -30.664062 23.171875 -31.71875 C 22.003906 -32.769531 20.570312 -33.296875 18.875 -33.296875 C 17.675781 -33.296875 16.503906 -32.9375 15.359375 -32.21875 C 14.222656 -31.507812 13.285156 -30.613281 12.546875 -29.53125 C 11.804688 -28.457031 11.46875 -27.347656 11.53125 -26.203125 C 11.53125 -25.523438 11.898438 -25.1875 12.640625 -25.1875 Z M 12.640625 -25.1875 "/></g></g><g style="fill:#000000;fill-opacity:1;"><g transform="translate(135.758158, 242.482939)"><path style="stroke:none" d="M 3.578125 0.25 C 3.128906 0.25 2.734375 0.148438 2.390625 -0.046875 C 2.046875 -0.242188 1.875 -0.515625 1.875 -0.859375 C 1.875 -1.304688 2.054688 -1.644531 2.421875 -1.875 C 2.796875 -2.101562 3.269531 -2.300781 3.84375 -2.46875 C 4.695312 -2.695312 5.476562 -3.007812 6.1875 -3.40625 C 6.894531 -3.8125 7.25 -4.582031 7.25 -5.71875 L 7.25 -24.84375 C 7.25 -26.15625 7.0625 -27.28125 6.6875 -28.21875 C 6.320312 -29.15625 5.546875 -29.765625 4.359375 -30.046875 C 4.128906 -30.160156 3.925781 -30.316406 3.75 -30.515625 C 3.582031 -30.722656 3.5 -31.050781 3.5 -31.5 C 3.5 -32.238281 3.753906 -32.664062 4.265625 -32.78125 C 6.253906 -33.238281 8.226562 -33.847656 10.1875 -34.609375 C 12.15625 -35.378906 13.882812 -36.191406 15.375 -37.046875 C 15.59375 -37.160156 15.816406 -37.300781 16.046875 -37.46875 C 16.273438 -37.644531 16.503906 -37.734375 16.734375 -37.734375 C 17.015625 -37.734375 17.195312 -37.632812 17.28125 -37.4375 C 17.375 -37.238281 17.421875 -37.023438 17.421875 -36.796875 C 17.421875 -36.398438 17.347656 -35.660156 17.203125 -34.578125 C 17.054688 -33.492188 16.984375 -32.554688 16.984375 -31.765625 C 16.984375 -31.535156 17 -31.289062 17.03125 -31.03125 C 17.0625 -30.78125 17.101562 -30.625 17.15625 -30.5625 C 19.09375 -32.382812 21.097656 -33.804688 23.171875 -34.828125 C 25.253906 -35.859375 27.601562 -36.375 30.21875 -36.375 C 33.125 -36.375 35.554688 -35.257812 37.515625 -33.03125 C 39.484375 -30.8125 40.46875 -27.882812 40.46875 -24.25 L 40.46875 -5.640625 C 40.46875 -4.492188 40.804688 -3.75 41.484375 -3.40625 C 42.171875 -3.070312 42.941406 -2.757812 43.796875 -2.46875 C 44.253906 -2.300781 44.679688 -2.085938 45.078125 -1.828125 C 45.472656 -1.578125 45.671875 -1.222656 45.671875 -0.765625 C 45.671875 -0.421875 45.484375 -0.164062 45.109375 0 C 44.742188 0.164062 44.390625 0.25 44.046875 0.25 C 42.910156 0.25 41.914062 0.207031 41.0625 0.125 C 40.207031 0.0390625 39.367188 -0.0234375 38.546875 -0.078125 C 37.722656 -0.140625 36.796875 -0.171875 35.765625 -0.171875 C 34.804688 -0.171875 33.898438 -0.140625 33.046875 -0.078125 C 32.191406 -0.0234375 31.320312 0.0390625 30.4375 0.125 C 29.550781 0.207031 28.539062 0.25 27.40625 0.25 C 27.125 0.25 26.8125 0.164062 26.46875 0 C 26.125 -0.164062 25.953125 -0.421875 25.953125 -0.765625 C 25.953125 -1.222656 26.125 -1.578125 26.46875 -1.828125 C 26.8125 -2.085938 27.207031 -2.300781 27.65625 -2.46875 C 28.507812 -2.757812 29.265625 -3.070312 29.921875 -3.40625 C 30.578125 -3.75 30.90625 -4.492188 30.90625 -5.640625 L 30.90625 -22.96875 C 30.90625 -25.238281 30.347656 -27.03125 29.234375 -28.34375 C 28.128906 -29.65625 26.640625 -30.3125 24.765625 -30.3125 C 23.222656 -30.3125 21.878906 -30.082031 20.734375 -29.625 C 19.597656 -29.164062 18.492188 -28.507812 17.421875 -27.65625 C 17.191406 -27.488281 17.019531 -27.25 16.90625 -26.9375 C 16.789062 -26.625 16.734375 -26.296875 16.734375 -25.953125 L 16.734375 -5.640625 C 16.734375 -4.492188 17.0625 -3.734375 17.71875 -3.359375 C 18.375 -2.992188 19.128906 -2.695312 19.984375 -2.46875 C 21.171875 -2.070312 21.765625 -1.535156 21.765625 -0.859375 C 21.765625 -0.515625 21.625 -0.242188 21.34375 -0.046875 C 21.0625 0.148438 20.691406 0.25 20.234375 0.25 C 19.097656 0.25 18.101562 0.207031 17.25 0.125 C 16.394531 0.0390625 15.566406 -0.0234375 14.765625 -0.078125 C 13.972656 -0.140625 13.0625 -0.171875 12.03125 -0.171875 C 11.070312 -0.171875 10.164062 -0.140625 9.3125 -0.078125 C 8.457031 -0.0234375 7.570312 0.0390625 6.65625 0.125 C 5.75 0.207031 4.722656 0.25 3.578125 0.25 Z M 3.578125 0.25 "/></g></g><g style="fill:#000000;fill-opacity:1;"><g transform="translate(178.270022, 242.482939)"><path style="stroke:none" d="M 30.5625 1.625 C 30.394531 1.625 30.15625 1.46875 29.84375 1.15625 C 29.53125 0.84375 29.375 0.597656 29.375 0.421875 C 29.488281 -0.367188 29.585938 -1.207031 29.671875 -2.09375 C 29.753906 -2.976562 29.820312 -3.734375 29.875 -4.359375 L 29.875 -4.859375 C 28.800781 -3.265625 27.28125 -1.859375 25.3125 -0.640625 C 23.351562 0.578125 21.117188 1.1875 18.609375 1.1875 C 15.421875 1.1875 12.601562 0.378906 10.15625 -1.234375 C 7.707031 -2.859375 5.785156 -5.019531 4.390625 -7.71875 C 3.003906 -10.425781 2.3125 -13.347656 2.3125 -16.484375 C 2.3125 -20.179688 3.148438 -23.519531 4.828125 -26.5 C 6.503906 -29.488281 8.847656 -31.851562 11.859375 -33.59375 C 14.878906 -35.332031 18.382812 -36.203125 22.375 -36.203125 C 23.332031 -36.203125 24.3125 -36.128906 25.3125 -35.984375 C 26.3125 -35.835938 27.179688 -35.65625 27.921875 -35.4375 C 28.597656 -35.257812 28.96875 -35.171875 29.03125 -35.171875 C 29.3125 -35.171875 29.453125 -35.65625 29.453125 -36.625 L 29.453125 -47.390625 C 29.453125 -49.546875 29.164062 -51.050781 28.59375 -51.90625 C 28.03125 -52.757812 27.125 -53.300781 25.875 -53.53125 C 25.238281 -53.695312 24.921875 -54.125 24.921875 -54.8125 C 24.921875 -55.4375 25.207031 -55.832031 25.78125 -56 C 28 -56.519531 30.085938 -57.101562 32.046875 -57.75 C 34.015625 -58.40625 35.625 -59.019531 36.875 -59.59375 C 37.445312 -59.820312 37.859375 -59.976562 38.109375 -60.0625 C 38.367188 -60.144531 38.53125 -60.1875 38.59375 -60.1875 C 39.15625 -60.1875 39.4375 -59.898438 39.4375 -59.328125 C 39.4375 -59.328125 39.40625 -58.984375 39.34375 -58.296875 C 39.289062 -57.617188 39.222656 -56.695312 39.140625 -55.53125 C 39.054688 -54.363281 38.988281 -53.039062 38.9375 -51.5625 L 38.671875 -9.984375 C 38.671875 -8.054688 38.8125 -6.664062 39.09375 -5.8125 C 39.382812 -4.957031 39.867188 -4.53125 40.546875 -4.53125 C 40.835938 -4.53125 41.207031 -4.539062 41.65625 -4.5625 C 42.113281 -4.59375 42.910156 -4.664062 44.046875 -4.78125 C 44.898438 -4.832031 45.328125 -4.546875 45.328125 -3.921875 C 45.328125 -3.472656 45.171875 -3.035156 44.859375 -2.609375 C 44.546875 -2.179688 44.25 -1.96875 43.96875 -1.96875 C 42.03125 -1.738281 40.066406 -1.363281 38.078125 -0.84375 C 36.085938 -0.332031 34.066406 0.316406 32.015625 1.109375 C 31.617188 1.273438 31.320312 1.398438 31.125 1.484375 C 30.925781 1.578125 30.738281 1.625 30.5625 1.625 Z M 22.53125 -4.1875 C 23.613281 -4.1875 24.8125 -4.457031 26.125 -5 C 27.4375 -5.539062 28.546875 -6.289062 29.453125 -7.25 L 29.453125 -25.015625 C 29.453125 -26.210938 29.050781 -27.394531 28.25 -28.5625 C 27.457031 -29.726562 26.40625 -30.691406 25.09375 -31.453125 C 23.789062 -32.222656 22.398438 -32.609375 20.921875 -32.609375 C 19.554688 -32.609375 18.21875 -32.109375 16.90625 -31.109375 C 15.59375 -30.117188 14.492188 -28.597656 13.609375 -26.546875 C 12.734375 -24.503906 12.296875 -21.890625 12.296875 -18.703125 C 12.296875 -16.078125 12.617188 -13.835938 13.265625 -11.984375 C 13.921875 -10.140625 14.757812 -8.648438 15.78125 -7.515625 C 16.8125 -6.378906 17.925781 -5.539062 19.125 -5 C 20.320312 -4.457031 21.457031 -4.1875 22.53125 -4.1875 Z M 22.53125 -4.1875 "/></g></g><g style="fill:#000000;fill-opacity:1;"><g transform="translate(219.416001, 242.482939)"><path style="stroke:none" d="M 3.421875 0.25 C 2.960938 0.25 2.585938 0.148438 2.296875 -0.046875 C 2.015625 -0.242188 1.875 -0.515625 1.875 -0.859375 C 1.875 -1.304688 2.046875 -1.644531 2.390625 -1.875 C 2.734375 -2.101562 3.128906 -2.273438 3.578125 -2.390625 C 4.953125 -2.734375 5.9375 -3.101562 6.53125 -3.5 C 7.125 -3.894531 7.421875 -4.578125 7.421875 -5.546875 L 7.421875 -24.078125 C 7.421875 -25.898438 7.132812 -27.265625 6.5625 -28.171875 C 6 -29.085938 5.035156 -29.65625 3.671875 -29.875 C 3.390625 -29.9375 3.160156 -30.09375 2.984375 -30.34375 C 2.816406 -30.601562 2.734375 -30.90625 2.734375 -31.25 C 2.734375 -32.039062 3.046875 -32.46875 3.671875 -32.53125 C 6.398438 -33.09375 8.773438 -33.875 10.796875 -34.875 C 12.816406 -35.875 14.367188 -36.65625 15.453125 -37.21875 C 16.242188 -37.625 16.753906 -37.828125 16.984375 -37.828125 C 17.609375 -37.828125 17.921875 -37.539062 17.921875 -36.96875 C 17.867188 -36.164062 17.753906 -35.066406 17.578125 -33.671875 C 17.410156 -32.285156 17.253906 -30.804688 17.109375 -29.234375 C 16.972656 -27.671875 16.90625 -26.207031 16.90625 -24.84375 L 16.90625 -5.640625 C 16.90625 -4.785156 17.21875 -4.128906 17.84375 -3.671875 C 18.46875 -3.210938 19.460938 -2.785156 20.828125 -2.390625 C 21.285156 -2.222656 21.679688 -2.035156 22.015625 -1.828125 C 22.359375 -1.628906 22.53125 -1.304688 22.53125 -0.859375 C 22.53125 -0.171875 22.050781 0.171875 21.09375 0.171875 C 20.007812 0.171875 18.96875 0.140625 17.96875 0.078125 C 16.976562 0.0234375 16.007812 -0.0234375 15.0625 -0.078125 C 14.125 -0.140625 13.144531 -0.171875 12.125 -0.171875 C 11.15625 -0.171875 10.210938 -0.140625 9.296875 -0.078125 C 8.390625 -0.0234375 7.46875 0.0390625 6.53125 0.125 C 5.59375 0.207031 4.554688 0.25 3.421875 0.25 Z M 11.953125 -42.765625 C 10.304688 -42.765625 8.910156 -43.332031 7.765625 -44.46875 C 6.628906 -45.613281 6.0625 -46.984375 6.0625 -48.578125 C 6.0625 -50.335938 6.628906 -51.785156 7.765625 -52.921875 C 8.910156 -54.066406 10.304688 -54.640625 11.953125 -54.640625 C 13.660156 -54.640625 15.082031 -54.066406 16.21875 -52.921875 C 17.351562 -51.785156 17.921875 -50.335938 17.921875 -48.578125 C 17.921875 -46.984375 17.351562 -45.613281 16.21875 -44.46875 C 15.082031 -43.332031 13.660156 -42.765625 11.953125 -42.765625 Z M 11.953125 -42.765625 "/></g></g><g style="fill:#000000;fill-opacity:1;"><g transform="translate(238.537066, 242.482939)"><path style="stroke:none" d="M 3.15625 23.046875 C 2.8125 23.046875 2.441406 22.957031 2.046875 22.78125 C 1.648438 22.613281 1.453125 22.332031 1.453125 21.9375 C 1.453125 21.488281 1.648438 21.148438 2.046875 20.921875 C 2.441406 20.691406 2.898438 20.488281 3.421875 20.3125 C 4.492188 19.976562 5.328125 19.597656 5.921875 19.171875 C 6.523438 18.742188 6.828125 18.046875 6.828125 17.078125 L 6.828125 -24.671875 C 6.828125 -25.242188 6.679688 -25.910156 6.390625 -26.671875 C 6.109375 -27.441406 5.695312 -28.15625 5.15625 -28.8125 C 4.625 -29.46875 3.929688 -29.851562 3.078125 -29.96875 C 2.785156 -30.082031 2.566406 -30.238281 2.421875 -30.4375 C 2.285156 -30.632812 2.21875 -30.960938 2.21875 -31.421875 C 2.21875 -31.816406 2.285156 -32.113281 2.421875 -32.3125 C 2.566406 -32.507812 2.753906 -32.640625 2.984375 -32.703125 C 5.035156 -33.148438 7.082031 -33.726562 9.125 -34.4375 C 11.175781 -35.15625 12.972656 -35.859375 14.515625 -36.546875 C 14.679688 -36.597656 14.847656 -36.691406 15.015625 -36.828125 C 15.191406 -36.972656 15.363281 -37.046875 15.53125 -37.046875 C 15.820312 -37.046875 16.007812 -36.945312 16.09375 -36.75 C 16.175781 -36.550781 16.21875 -36.3125 16.21875 -36.03125 C 16.21875 -35.570312 16.144531 -34.816406 16 -33.765625 C 15.863281 -32.710938 15.796875 -31.816406 15.796875 -31.078125 C 15.796875 -30.503906 15.851562 -30.191406 15.96875 -30.140625 C 16.53125 -30.703125 17.535156 -31.453125 18.984375 -32.390625 C 20.441406 -33.335938 22.125 -34.179688 24.03125 -34.921875 C 25.9375 -35.660156 27.773438 -36.03125 29.546875 -36.03125 C 32.554688 -36.03125 35.128906 -35.21875 37.265625 -33.59375 C 39.398438 -31.96875 41.035156 -29.890625 42.171875 -27.359375 C 43.304688 -24.828125 43.875 -22.195312 43.875 -19.46875 C 43.875 -16.84375 43.375 -14.289062 42.375 -11.8125 C 41.382812 -9.34375 39.976562 -7.113281 38.15625 -5.125 C 36.34375 -3.132812 34.253906 -1.539062 31.890625 -0.34375 C 29.523438 0.851562 26.976562 1.453125 24.25 1.453125 C 23.5625 1.453125 22.75 1.351562 21.8125 1.15625 C 20.875 0.957031 19.9375 0.703125 19 0.390625 C 18.0625 0.078125 17.25 -0.28125 16.5625 -0.6875 C 16.507812 -0.6875 16.453125 -0.53125 16.390625 -0.21875 C 16.335938 0.09375 16.296875 0.445312 16.265625 0.84375 C 16.234375 1.25 16.21875 1.566406 16.21875 1.796875 L 16.21875 16.5625 C 16.21875 17.300781 16.445312 17.910156 16.90625 18.390625 C 17.363281 18.878906 17.929688 19.265625 18.609375 19.546875 C 19.296875 19.835938 20.066406 20.09375 20.921875 20.3125 C 21.484375 20.488281 21.9375 20.691406 22.28125 20.921875 C 22.625 21.148438 22.796875 21.488281 22.796875 21.9375 C 22.796875 22.28125 22.625 22.550781 22.28125 22.75 C 21.9375 22.945312 21.597656 23.046875 21.265625 23.046875 C 19.554688 23.046875 17.890625 22.972656 16.265625 22.828125 C 14.640625 22.691406 13.085938 22.625 11.609375 22.625 C 10.640625 22.625 9.726562 22.648438 8.875 22.703125 C 8.019531 22.765625 7.132812 22.835938 6.21875 22.921875 C 5.3125 23.003906 4.289062 23.046875 3.15625 23.046875 Z M 24.5 -2.140625 C 25.1875 -2.140625 26.039062 -2.378906 27.0625 -2.859375 C 28.082031 -3.335938 29.09375 -4.117188 30.09375 -5.203125 C 31.09375 -6.285156 31.914062 -7.765625 32.5625 -9.640625 C 33.21875 -11.523438 33.546875 -13.832031 33.546875 -16.5625 C 33.546875 -19.695312 33.203125 -22.21875 32.515625 -24.125 C 31.835938 -26.03125 30.988281 -27.460938 29.96875 -28.421875 C 28.945312 -29.390625 27.90625 -30.03125 26.84375 -30.34375 C 25.789062 -30.664062 24.867188 -30.828125 24.078125 -30.828125 C 22.941406 -30.828125 21.773438 -30.582031 20.578125 -30.09375 C 19.378906 -29.613281 18.378906 -29.046875 17.578125 -28.390625 C 16.785156 -27.734375 16.390625 -27.175781 16.390625 -26.71875 C 16.390625 -25.925781 16.390625 -24.890625 16.390625 -23.609375 C 16.390625 -22.328125 16.375 -20.957031 16.34375 -19.5 C 16.320312 -18.050781 16.296875 -16.726562 16.265625 -15.53125 C 16.234375 -14.34375 16.21875 -13.492188 16.21875 -12.984375 C 16.21875 -11.328125 16.585938 -9.660156 17.328125 -7.984375 C 18.066406 -6.304688 19.0625 -4.910156 20.3125 -3.796875 C 21.570312 -2.691406 22.96875 -2.140625 24.5 -2.140625 Z M 24.5 -2.140625 "/></g></g><g style="fill:#000000;fill-opacity:1;"><g transform="translate(279.939145, 242.482939)"><path style="stroke:none" d="M 3.421875 0.25 C 2.960938 0.25 2.585938 0.148438 2.296875 -0.046875 C 2.015625 -0.242188 1.875 -0.515625 1.875 -0.859375 C 1.875 -1.304688 2.046875 -1.644531 2.390625 -1.875 C 2.734375 -2.101562 3.128906 -2.273438 3.578125 -2.390625 C 4.953125 -2.734375 5.9375 -3.101562 6.53125 -3.5 C 7.125 -3.894531 7.421875 -4.578125 7.421875 -5.546875 L 7.421875 -24.078125 C 7.421875 -25.898438 7.132812 -27.265625 6.5625 -28.171875 C 6 -29.085938 5.035156 -29.65625 3.671875 -29.875 C 3.390625 -29.9375 3.160156 -30.09375 2.984375 -30.34375 C 2.816406 -30.601562 2.734375 -30.90625 2.734375 -31.25 C 2.734375 -32.039062 3.046875 -32.46875 3.671875 -32.53125 C 6.398438 -33.09375 8.773438 -33.875 10.796875 -34.875 C 12.816406 -35.875 14.367188 -36.65625 15.453125 -37.21875 C 16.242188 -37.625 16.753906 -37.828125 16.984375 -37.828125 C 17.609375 -37.828125 17.921875 -37.539062 17.921875 -36.96875 C 17.867188 -36.164062 17.753906 -35.066406 17.578125 -33.671875 C 17.410156 -32.285156 17.253906 -30.804688 17.109375 -29.234375 C 16.972656 -27.671875 16.90625 -26.207031 16.90625 -24.84375 L 16.90625 -5.640625 C 16.90625 -4.785156 17.21875 -4.128906 17.84375 -3.671875 C 18.46875 -3.210938 19.460938 -2.785156 20.828125 -2.390625 C 21.285156 -2.222656 21.679688 -2.035156 22.015625 -1.828125 C 22.359375 -1.628906 22.53125 -1.304688 22.53125 -0.859375 C 22.53125 -0.171875 22.050781 0.171875 21.09375 0.171875 C 20.007812 0.171875 18.96875 0.140625 17.96875 0.078125 C 16.976562 0.0234375 16.007812 -0.0234375 15.0625 -0.078125 C 14.125 -0.140625 13.144531 -0.171875 12.125 -0.171875 C 11.15625 -0.171875 10.210938 -0.140625 9.296875 -0.078125 C 8.390625 -0.0234375 7.46875 0.0390625 6.53125 0.125 C 5.59375 0.207031 4.554688 0.25 3.421875 0.25 Z M 11.953125 -42.765625 C 10.304688 -42.765625 8.910156 -43.332031 7.765625 -44.46875 C 6.628906 -45.613281 6.0625 -46.984375 6.0625 -48.578125 C 6.0625 -50.335938 6.628906 -51.785156 7.765625 -52.921875 C 8.910156 -54.066406 10.304688 -54.640625 11.953125 -54.640625 C 13.660156 -54.640625 15.082031 -54.066406 16.21875 -52.921875 C 17.351562 -51.785156 17.921875 -50.335938 17.921875 -48.578125 C 17.921875 -46.984375 17.351562 -45.613281 16.21875 -44.46875 C 15.082031 -43.332031 13.660156 -42.765625 11.953125 -42.765625 Z M 11.953125 -42.765625 "/></g></g><g style="fill:#000000;fill-opacity:1;"><g transform="translate(299.06021, 242.482939)"><path style="stroke:none" d="M 17.84375 1.1875 C 14.425781 1.1875 11.832031 0.28125 10.0625 -1.53125 C 8.300781 -3.351562 7.421875 -6.003906 7.421875 -9.484375 L 7.421875 -29.203125 C 7.421875 -29.648438 7.234375 -29.988281 6.859375 -30.21875 C 6.492188 -30.445312 5.773438 -30.59375 4.703125 -30.65625 L 3.75 -30.65625 C 3.414062 -30.65625 3.132812 -30.921875 2.90625 -31.453125 C 2.675781 -31.992188 2.5625 -32.523438 2.5625 -33.046875 C 2.5625 -33.148438 2.601562 -33.300781 2.6875 -33.5 C 2.769531 -33.707031 2.898438 -33.835938 3.078125 -33.890625 C 4.378906 -34.460938 5.710938 -35.242188 7.078125 -36.234375 C 8.453125 -37.234375 9.734375 -38.257812 10.921875 -39.3125 C 12.117188 -40.363281 13.117188 -41.257812 13.921875 -42 C 14.316406 -42.289062 14.640625 -42.546875 14.890625 -42.765625 C 15.148438 -42.992188 15.453125 -43.109375 15.796875 -43.109375 C 16.253906 -43.109375 16.609375 -43.007812 16.859375 -42.8125 C 17.117188 -42.613281 17.191406 -42.226562 17.078125 -41.65625 L 16.5625 -36.96875 C 16.507812 -36.28125 16.664062 -35.820312 17.03125 -35.59375 C 17.40625 -35.375 17.929688 -35.265625 18.609375 -35.265625 L 28.6875 -35.265625 C 28.851562 -35.265625 29.019531 -35.0625 29.1875 -34.65625 C 29.363281 -34.257812 29.453125 -33.863281 29.453125 -33.46875 C 29.453125 -32.726562 29.351562 -32.046875 29.15625 -31.421875 C 28.957031 -30.796875 28.71875 -30.484375 28.4375 -30.484375 L 20.3125 -30.484375 C 19.007812 -30.484375 18.113281 -30.335938 17.625 -30.046875 C 17.144531 -29.765625 16.90625 -29.171875 16.90625 -28.265625 L 16.90625 -11.859375 C 16.90625 -9.359375 17.390625 -7.46875 18.359375 -6.1875 C 19.328125 -4.90625 20.691406 -4.265625 22.453125 -4.265625 C 24.046875 -4.265625 25.253906 -4.40625 26.078125 -4.6875 C 26.898438 -4.976562 27.65625 -5.320312 28.34375 -5.71875 C 28.507812 -5.832031 28.648438 -5.890625 28.765625 -5.890625 C 29.054688 -5.890625 29.269531 -5.71875 29.40625 -5.375 C 29.550781 -5.03125 29.625 -4.660156 29.625 -4.265625 C 29.625 -3.984375 29.066406 -3.382812 27.953125 -2.46875 C 26.847656 -1.5625 25.398438 -0.726562 23.609375 0.03125 C 21.816406 0.800781 19.894531 1.1875 17.84375 1.1875 Z M 17.84375 1.1875 "/></g></g><g style="fill:#000000;fill-opacity:1;"><g transform="translate(324.669234, 242.482939)"><path style="stroke:none" d="M 6.65625 24.25 C 5.289062 24.25 4.007812 23.804688 2.8125 22.921875 C 1.625 22.035156 1.03125 20.882812 1.03125 19.46875 C 1.03125 18.382812 1.296875 17.359375 1.828125 16.390625 C 2.367188 15.421875 3.179688 14.9375 4.265625 14.9375 C 5.066406 14.9375 5.878906 15.078125 6.703125 15.359375 C 7.523438 15.648438 8.304688 15.765625 9.046875 15.703125 C 9.734375 15.648438 10.234375 15.492188 10.546875 15.234375 C 10.859375 14.984375 11.210938 14.515625 11.609375 13.828125 C 12.066406 13.035156 12.566406 12.164062 13.109375 11.21875 C 13.648438 10.28125 14.21875 9.15625 14.8125 7.84375 C 15.40625 6.539062 16.070312 4.976562 16.8125 3.15625 C 17.332031 1.957031 17.59375 0.820312 17.59375 -0.25 C 17.59375 -0.9375 17.503906 -1.59375 17.328125 -2.21875 C 17.160156 -2.84375 16.960938 -3.410156 16.734375 -3.921875 L 6.40625 -28.265625 C 5.945312 -29.398438 5.390625 -30.394531 4.734375 -31.25 C 4.078125 -32.101562 3.269531 -32.671875 2.3125 -32.953125 C 1.789062 -33.179688 1.375 -33.410156 1.0625 -33.640625 C 0.75 -33.867188 0.59375 -34.207031 0.59375 -34.65625 C 0.59375 -35.113281 0.820312 -35.382812 1.28125 -35.46875 C 1.738281 -35.550781 2.132812 -35.59375 2.46875 -35.59375 C 3.78125 -35.59375 4.832031 -35.566406 5.625 -35.515625 C 6.425781 -35.460938 7.164062 -35.40625 7.84375 -35.34375 C 8.53125 -35.289062 9.273438 -35.265625 10.078125 -35.265625 C 11.265625 -35.265625 12.226562 -35.289062 12.96875 -35.34375 C 13.71875 -35.40625 14.503906 -35.460938 15.328125 -35.515625 C 16.148438 -35.566406 17.1875 -35.59375 18.4375 -35.59375 C 18.832031 -35.59375 19.257812 -35.519531 19.71875 -35.375 C 20.175781 -35.238281 20.40625 -34.941406 20.40625 -34.484375 C 20.40625 -34.035156 20.148438 -33.679688 19.640625 -33.421875 C 19.128906 -33.171875 18.644531 -32.957031 18.1875 -32.78125 C 17.613281 -32.613281 17.15625 -32.285156 16.8125 -31.796875 C 16.476562 -31.316406 16.3125 -30.617188 16.3125 -29.703125 C 16.3125 -29.304688 16.394531 -28.804688 16.5625 -28.203125 C 16.726562 -27.609375 16.925781 -26.972656 17.15625 -26.296875 L 23.046875 -12.03125 C 23.109375 -11.8125 23.222656 -11.703125 23.390625 -11.703125 C 23.453125 -11.703125 23.539062 -11.8125 23.65625 -12.03125 L 28.515625 -25.953125 C 28.679688 -26.347656 28.835938 -26.875 28.984375 -27.53125 C 29.128906 -28.1875 29.203125 -28.742188 29.203125 -29.203125 C 29.203125 -30.222656 28.957031 -31.003906 28.46875 -31.546875 C 27.988281 -32.085938 27.460938 -32.472656 26.890625 -32.703125 C 26.429688 -32.929688 25.945312 -33.171875 25.4375 -33.421875 C 24.925781 -33.679688 24.671875 -34.035156 24.671875 -34.484375 C 24.671875 -34.941406 24.910156 -35.238281 25.390625 -35.375 C 25.878906 -35.519531 26.296875 -35.59375 26.640625 -35.59375 C 27.890625 -35.59375 28.941406 -35.535156 29.796875 -35.421875 C 30.648438 -35.316406 31.644531 -35.265625 32.78125 -35.265625 C 33.519531 -35.265625 34.128906 -35.289062 34.609375 -35.34375 C 35.097656 -35.40625 35.625 -35.460938 36.1875 -35.515625 C 36.757812 -35.566406 37.472656 -35.59375 38.328125 -35.59375 C 38.671875 -35.59375 39.082031 -35.550781 39.5625 -35.46875 C 40.050781 -35.382812 40.296875 -35.113281 40.296875 -34.65625 C 40.296875 -34.207031 40.140625 -33.867188 39.828125 -33.640625 C 39.515625 -33.410156 39.101562 -33.179688 38.59375 -32.953125 C 37.625 -32.671875 36.679688 -32.03125 35.765625 -31.03125 C 34.859375 -30.039062 34.117188 -28.890625 33.546875 -27.578125 L 21.265625 2.140625 C 20.921875 2.929688 20.460938 3.992188 19.890625 5.328125 C 19.316406 6.671875 18.703125 8.140625 18.046875 9.734375 C 17.398438 11.328125 16.707031 12.976562 15.96875 14.6875 C 15.226562 16.394531 14.515625 18.070312 13.828125 19.71875 C 13.203125 21.195312 12.25 22.320312 10.96875 23.09375 C 9.6875 23.863281 8.25 24.25 6.65625 24.25 Z M 6.65625 24.25 "/></g></g><path style=" stroke:none;fill-rule:nonzero;fill:#f4b626;fill-opacity:1;" d="M 178.285156 137.410156 C 174.597656 131.578125 171.175781 123.058594 171.453125 111.789062 C 164.324219 106.195312 154.078125 101.222656 139.316406 98.160156 C 142.644531 114.175781 148.210938 124.875 154.386719 132.042969 C 164.78125 131.367188 172.734375 134.160156 178.285156 137.410156 "/><g clip-rule="nonzero" clip-path="url(#5565c37f57)"><path style=" stroke:none;fill-rule:nonzero;fill:#a9791d;fill-opacity:1;" d="M 192.648438 140.945312 C 200.566406 131.316406 211.933594 108.394531 187.28125 70.800781 C 162.628906 108.398438 174.007812 131.324219 181.917969 140.953125 C 172.941406 133.890625 152.535156 124.632812 119.566406 146.253906 C 165.738281 176.53125 187.28125 146.253906 187.28125 146.253906 C 187.28125 146.253906 208.824219 176.53125 254.996094 146.253906 C 222.035156 124.636719 201.628906 133.886719 192.648438 140.945312 "/></g><path style=" stroke:none;fill-rule:nonzero;fill:#f4b626;fill-opacity:1;" d="M 220.175781 132.042969 C 226.351562 124.875 231.917969 114.175781 235.246094 98.160156 C 220.484375 101.222656 210.238281 106.195312 203.109375 111.789062 C 203.386719 123.058594 199.96875 131.578125 196.277344 137.410156 C 201.832031 134.160156 209.785156 131.367188 220.175781 132.042969 "/><path style=" stroke:none;fill-rule:nonzero;fill:#f4b626;fill-opacity:1;" d="M 187.28125 164.15625 C 211.753906 164.15625 234.386719 166.058594 252.902344 169.285156 C 251.632812 168.621094 250.296875 168.0625 248.980469 167.5625 C 246.175781 166.511719 243.296875 165.6875 240.40625 164.953125 C 234.609375 163.542969 228.734375 162.511719 222.839844 161.742188 C 211.039062 160.1875 199.152344 159.621094 187.28125 159.546875 C 175.40625 159.617188 163.523438 160.179688 151.726562 161.734375 C 145.828125 162.503906 139.953125 163.535156 134.15625 164.945312 C 131.265625 165.683594 128.386719 166.503906 125.582031 167.558594 C 124.261719 168.0625 122.925781 168.621094 121.652344 169.285156 C 140.164062 166.058594 162.808594 164.15625 187.28125 164.15625 "/></g></svg>